<svg version="1.1" id="Layer_1" xmlns="http://www.w3.org/2000/svg" xmlns:xlink="http://www.w3.org/1999/xlink" x="0px" y="0px" viewBox="0 0 500 500" style="width: 188px;" xml:space="preserve" data-imageid="seo-1-42" imageName="SEO 1" class="illustrations_image">
<style type="text/css">
	.st0_seo-1-42{fill:#D9616F;}
	.st1_seo-1-42{fill:url(#SVGID_1_);}
	.st2_seo-1-42{fill:url(#SVGID_00000183936284966147080370000010976228721024437679_);}
	.st3_seo-1-42{fill:url(#SVGID_00000041284794179166036710000003653190359927618217_);}
	.st4_seo-1-42{fill:#56403D;}
	.st5_seo-1-42{fill:#68E1FD;}
	.st6_seo-1-42{fill:#FFFFFF;}
	.st7_seo-1-42{fill:none;}
	.st8_seo-1-42{fill:#8CCC00;}
	.st9_seo-1-42{fill:#FFA197;}
	.st10_seo-1-42{fill:#E55600;}
	.st11_seo-1-42{fill:#34323D;}
	.st12_seo-1-42{fill:#FCBF81;}
	.st13_seo-1-42{fill:#8B93FC;}
</style>
<g id="background_seo-1-42">
	<path class="st0_seo-1-42" d="M242.3,422.1L20.2,290.8c-7.1-4-13.1-10.5-6.2-14.8l223-128.5c3.4-2.1,8.4-3.4,11.8-1.5L482,281.4&#10;&#9;&#9;c7.1,4.1,8.3,15.6,1.3,19.7L271.6,421.9C262.6,427.2,251.5,427.2,242.3,422.1z"/>
	
		<linearGradient id="SVGID_1_-seo-1-42" gradientUnits="userSpaceOnUse" x1="355.989" y1="190.2184" x2="306.979" y2="220.7983" gradientTransform="matrix(1 0 0 -1 0 502)">
		<stop offset="1.000000e-02" style="stop-color:#D9616F"/>
		<stop offset="0.99" style="stop-color:#56403D"/>
	</linearGradient>
	<path class="st1_seo-1-42" d="M315.8,267.1l-26.6,17.4l50.4,33.2c0.4,0,4.7,11.8,1.3,0c20.6-11.4,22-1.6,36.6-10.7&#10;&#9;&#9;C355.4,291.7,331.9,277,315.8,267.1z"/>
	
		<linearGradient id="SVGID_00000181066328882473211650000004215557816306252220_-seo-1-42" gradientUnits="userSpaceOnUse" x1="249.1157" y1="106.6615" x2="230.5757" y2="147.9816" gradientTransform="matrix(1 0 0 -1 0 502)">
		<stop offset="1.000000e-02" style="stop-color:#D9616F"/>
		<stop offset="0.99" style="stop-color:#56403D"/>
	</linearGradient>
	<path style="fill:url(#SVGID_00000181066328882473211650000004215557816306252220_);" d="M221.3,352.6L196,364.1l50.4,33.2&#10;&#9;&#9;c0.4,0,4.7,11.8,1.3,0c20.6-11.4,22-1.6,36.6-10.7C262.2,371.4,237.4,362.5,221.3,352.6z"/>
	
		<linearGradient id="SVGID_00000157282499659603109700000015687189261124674439_-seo-1-42" gradientUnits="userSpaceOnUse" x1="105.8709" y1="201.5214" x2="94.7409" y2="226.3414" gradientTransform="matrix(1 0 0 -1 0 502)">
		<stop offset="1.000000e-02" style="stop-color:#D9616F"/>
		<stop offset="0.99" style="stop-color:#56403D"/>
	</linearGradient>
	<path style="fill:url(#SVGID_00000157282499659603109700000015687189261124674439_);" d="M93.5,272.8l-22.2,12.5l28.7,18h0.8&#10;&#9;&#9;c11.6-6.4,21.8-4.6,30-9.6C120,288,103.3,279.8,93.5,272.8z"/>
</g>
<g id="monitor_seo-1-42">
	<path class="st4_seo-1-42" d="M271,241.2L248.5,252c-2.6,1.2-3.7,4.3-2.4,6.9c0.4,0.9,1.2,1.7,2.1,2.2l53.4,31.1c2.4,1.4,5.5,0.7,7-1.7&#10;&#9;&#9;l13-20.2"/>
	<path class="st5_seo-1-42 targetColor" d="M393.5,189L213.9,85.6c-3.9-2.2-8.8-0.9-11.1,3c-0.7,1.2-1.1,2.6-1.1,4v107.6c0,2.4,1.3,4.6,3.4,5.8&#10;&#9;&#9;l191.4,110.5c2.1,1.2,4.7,0.5,5.9-1.6c0.4-0.7,0.6-1.4,0.6-2.2V205.6C403.1,198.8,399.4,192.4,393.5,189z" style="fill: rgb(104, 225, 253);"/>
	<path class="st6_seo-1-42" d="M213.9,93.7L388,193.9c3.8,2.2,6.1,6.2,6.1,10.6v80.7c0,2.4-2,4.4-4.4,4.4c-0.8,0-1.5-0.2-2.2-0.6L210,187.1&#10;&#9;&#9;c-1.3-0.8-2.2-2.2-2.2-3.8v-86c0-2.3,1.8-4.1,4.1-4.1C212.6,93.2,213.3,93.4,213.9,93.7z"/>
	<ellipse transform="matrix(0.982 -0.1891 0.1891 0.982 -40.5242 58.5107)" class="st4_seo-1-42" cx="286.4" cy="241.6" rx="3.8" ry="4.3"/>
	<line class="st7_seo-1-42" x1="266.3" y1="170.7" x2="354.5" y2="222.5"/>
	<path class="st5_seo-1-42 targetColor" d="M337.2,206.2l-82.8-48.6c-8.7-5.1-14,10.2-4.4,15.6c29.3,17.2,58,33.8,87.2,50.8V206.2z" style="fill: rgb(104, 225, 253);"/>
	<path class="st5_seo-1-42 targetColor" d="M355.4,216.9l-18.1-10.7V224l12.9,7.6C358.8,236.7,364.1,222,355.4,216.9z" style="fill: rgb(104, 225, 253);"/>
	<path class="st6_seo-1-42" d="M346.2,225c-1.9,0-3.8-1.7-4.6-4.1c-0.9-2.9,0.1-5.8,2.2-6.4c1.2-0.3,2.4-0.1,3.3,0.7c1.1,0.8,1.8,2,2.2,3.3&#10;&#9;&#9;l0,0c0.4,1.3,0.5,2.7,0.1,4c-0.3,1.2-1.2,2.1-2.3,2.5C346.8,225,346.5,225,346.2,225z M344.8,215.5c-0.2,0-0.4,0-0.6,0.1&#10;&#9;&#9;c-1.5,0.5-2.1,2.7-1.4,4.9s2.5,3.7,4,3.2c0.7-0.3,1.3-0.9,1.5-1.7c0.3-1,0.3-2.2-0.1-3.2l0,0c-0.3-1-0.9-2-1.8-2.7&#10;&#9;&#9;C345.9,215.7,345.4,215.5,344.8,215.5L344.8,215.5z"/>
	
		<rect x="349.8" y="222.5" transform="matrix(0.7243 -0.6895 0.6895 0.7243 -59.193 303.9106)" class="st6_seo-1-42" width="1.2" height="6.9"/>
</g>
<g id="screen_seo-1-42">
	<path class="st8_seo-1-42" d="M422.5,258l-51.3-28.2c-2-1.1-3.3-3.2-3.2-5.5v-94c0-3.5,2.8-6.3,6.3-6.3c1.1,0,2.2,0.3,3.1,0.8l51.3,29.6&#10;&#9;&#9;c1.9,1.1,3.1,3.2,3.1,5.4v92.6c0,3.5-2.8,6.3-6.3,6.3C424.5,258.8,423.5,258.5,422.5,258z"/>
	<path class="st4_seo-1-42" d="M419.5,192.5V215c0,6.5-10.2,6.6-10.2,0v-22.5C409.3,185.9,419.5,185.9,419.5,192.5z"/>
	<path class="st9_seo-1-42" d="M405.6,169.4v36.3c0,6.5-10.2,6.6-10.2,0v-36.3C395.5,162.8,405.6,162.8,405.6,169.4z"/>
	<path class="st6_seo-1-42" d="M389.3,143.1v55.8c0,6.5-10.2,6.6-10.2,0v-55.8C379.1,136.5,389.3,136.5,389.3,143.1z"/>
	<path class="st6_seo-1-42" d="M401.9,221.3l12.6,6.6c1.8,0.9,0.2,3.6-1.6,2.7l-12.6-6.6C398.5,223,400.1,220.3,401.9,221.3z"/>
	<path class="st6_seo-1-42" d="M379.9,219.6c11.7,6.3,23.5,12.3,35.4,18.1c1.8,0.9,0.2,3.6-1.6,2.7c-11.9-5.8-23.7-11.8-35.4-18.1&#10;&#9;&#9;C376.5,221.4,378.1,218.7,379.9,219.6z"/>
	<path class="st8_seo-1-42" d="M149.8,124.2v21.3c0,2,1.1,3.9,2.9,4.9l73.4,42.7c2.7,1.6,6.2,0.7,7.8-2.1c0.5-0.8,0.8-1.8,0.8-2.7l0.6-21&#10;&#9;&#9;c0.1-2.1-1-4-2.9-5.1l-74-43c-2.7-1.6-6.2-0.6-7.8,2.1C150,122.2,149.8,123.2,149.8,124.2z"/>
</g>
<g id="character_1_seo-1-42">
	<path class="st10_seo-1-42" d="M266.3,197.3c-2.4-0.7-4.4-2.2-5.9-4.2c-2.3-3.1-3.5-6.9-3.6-10.7c-0.3-8.6,4.7-15.8,11.1-16&#10;&#9;&#9;c3.2-0.1,6.3,1.5,8.6,4.6c2.3,3.1,3.5,6.9,3.6,10.7l0,0c0.2,3.9-0.8,7.7-2.9,10.9c-2.1,3.2-5,5-8.3,5.1&#10;&#9;&#9;C268.1,197.7,267.2,197.5,266.3,197.3z M269.8,170.1c-0.5-0.2-1.1-0.2-1.6-0.2c-4.4,0.1-7.9,5.8-7.7,12.4c0,3.1,1,6.2,2.8,8.7&#10;&#9;&#9;c1.6,2.1,3.6,3.2,5.6,3.1s4-1.3,5.4-3.5c1.7-2.7,2.5-5.8,2.3-8.9l0,0c0-3.1-1-6.2-2.8-8.7C272.8,171.6,271.4,170.6,269.8,170.1z"/>
	<path class="st10_seo-1-42" d="M287.2,220.8c0.5-0.3,0.9-0.8,0.9-1.5l-13.8-25.4l-3.1,1.7l13.4,25.5C285.5,221.3,286.4,221.2,287.2,220.8z"/>
	<path class="st11_seo-1-42" d="M205.6,355c0,0,9.4-4.2,11.7-4.4s6.1,0.6,2.8,4.8c0,0-9.9,6.5-11.2,6.7s-4.5-0.8-4.6-0.5s-0.4,2.8-0.4,2.8&#10;&#9;&#9;s-8.3,3.2-8.6-2.4c0-0.7,1.2-11,1.2-11"/>
	<path class="st11_seo-1-42" d="M226.2,366.9l6,2.1c0.4,1.1,1.3,1.9,2.4,2.2c0.2,0.3,0.5,0.4,0.8,0.5c2.5,0.4,4.8-0.4,7.1-1.1&#10;&#9;&#9;c2.9-0.9,14-5.2,10.9,2.9c-2,1.4-4.3,2.7-6.4,3.9c-1.2,0.7-2.4,1.4-3.6,2.1c-0.6,0.4-1.3,0.8-2.1,1c-1.6,0.2-5.5-1-5.6-0.5&#10;&#9;&#9;s-0.5,3.5-0.5,3.5s-10.2,3.9-10.6-2.9C224.7,379.5,226.2,366.9,226.2,366.9z"/>
	<path class="st5_seo-1-42 targetColor" d="M237.5,280.8c-0.7-6-1.6-12-2.6-17.9c-0.2-1.1-0.3-5.8-1.2-6.6c0,0-8.6-7-15.6-8.8l-0.8-3l-0.1,0.1&#10;&#9;&#9;c0-3-4.3-5-5.8-1.8c-2.8,6.1-4.9,12.5-6.3,19.1c-2.2,9.7-3.1,19.7-3.9,29.7c-0.8,8.3-2,16.6-3.8,24.8c-2.5,12.5-2.5,24.7-1.5,37.3&#10;&#9;&#9;c0,0,2.2,6.8,12.3,2.9c0.1-0.9,0.2-1.9,0.3-2.8c0.6-0.2,1-0.7,1-1.4c1.6-17.6,5.7-43.8,9.3-61.1c0.3,4.4-0.2,17,0.1,21.4&#10;&#9;&#9;c0,0.6,0.1,2.2,0.1,2.8c1.3,19.9,2,39.2,3.5,59.1c7.7,3.2,10.9,1.7,15.6-3.2C239.9,341.1,241.2,311,237.5,280.8z" style="fill: rgb(104, 225, 253);"/>
	<path class="st12_seo-1-42" d="M283.9,201c-0.1-0.8-0.9-1.4-1.7-1.3c0,0-0.1,0-0.1,0c-0.1-0.4-0.4-0.8-0.8-1c-0.4-0.1-0.9-0.1-1.3,0&#10;&#9;&#9;c-0.1-0.4-0.4-0.8-0.8-1c-0.8-0.4-1.7-0.2-2.3,0.5c-0.2-0.4-0.6-0.6-1-0.7c-1.2-0.1-1.6,1.2-1.5,2.2c-0.1,0.6-0.2,1.3-0.2,2&#10;&#9;&#9;c-0.5-2.4,0.3,0.2-0.5-2.1c-0.5-1.4-3,0.1-2.9,1.4c0.4,2.7,0.6,5.4,0.4,8.2c0,0.2,0,0.3,0.1,0.5l-1.1,1.4c-0.3,0.4-0.7,0.8-1,1.2&#10;&#9;&#9;l-0.3,0.3c-0.3,0.2-0.5,0.6-0.4,1c-0.1,0.2-0.1,0.5-0.2,0.7c0,0.1,0,0.2,0,0.2c-0.3,0.5-0.7,1-1,1.5c-0.4,0.6-0.2,1.4,0.4,1.8&#10;&#9;&#9;c0.1,0.1,0.3,0.1,0.4,0.2l-0.3,0.1c-1.5,0.5-0.5,2.7,1,2.2c3.1-1.1,5.9-3,8-5.6c0.4-0.1,0.7-0.4,0.8-0.7l0.2-0.6&#10;&#9;&#9;c1.7-2.3,3-4.8,3.9-7.4c0.1-0.3,0.2-0.7,0.4-1C282.9,204,284,202.3,283.9,201z"/>
	<path class="st13_seo-1-42" d="M234.8,261.4c0.3-0.7,0.7-1.3,1.1-1.9c1.3-1.9,1.9-4.1,2.8-6.1c4.1-9.3,6.6-19.1,7.4-29.2V224&#10;&#9;&#9;c0.2-1.8,0.3-3.6,0.3-5.4c0.1-2.3-0.2-4.9-1.6-6.8c-0.2-0.2-0.4-0.5-0.6-0.7c-2.2-2.2-5.6-2.8-8.1-4.6c-1.9-1.3-3.8-2.8-6.1-2.8&#10;&#9;&#9;c-1.9,0.1-3.7,0.9-5,2.3c-4.2,3.8-6.1,9.4-7.8,14.8l-7.5,23.5c-0.3,1-0.6,2-0.9,3.1C216.4,255.6,223.8,261.4,234.8,261.4z"/>
	<path class="st12_seo-1-42" d="M234.6,201.5l-0.8,5.1c0,0,2.2,4.4,8,3.3l0.3-5.1"/>
	<path class="st12_seo-1-42" d="M248.8,189.2c0.5,0.3,1.4,12.2-2.6,17.8s-12.3-4.5-13.3-10.2S239.7,183.1,248.8,189.2z"/>
	<path class="st10_seo-1-42" d="M248.2,190.6c0,0-1.2,3.4-4.5,3.5s-6.1-0.1-6.4,1.4s5.4,1.7,4.4,4.8c-0.7,2.1-1.7,4.1-3,6&#10;&#9;&#9;c-0.9,1.4-8.1-6.4-8.3-15.5s8-8.7,8.4-8.6s1.8-1.9,5.7-1.4s4.4,2.2,4.4,2.2s3-0.9,5.1,2.4c2.4,3.8-0.1,8.3-4.6,9L248.2,190.6z"/>
	<path class="st13_seo-1-42" d="M244.2,211.2c0,0,5.5,10.7,10,11s14.7-13.4,14.7-13.4c4.1-0.9,8.4,0.9,10.5,4.6c0,0-13.4,19.7-24.7,25.5&#10;&#9;&#9;s-22.9-11.7-22.9-11.7"/>
</g>
<g id="plant_seo-1-42">
	<path class="st5_seo-1-42 targetColor" d="M60.9,250.9c0,0-2.6,30.9,13.9,36.3s24.7-10.3,24.1-37.6" style="fill: rgb(104, 225, 253);"/>
	
		<ellipse transform="matrix(0.9995 -3.175965e-02 3.175965e-02 0.9995 -7.9097 2.6623)" class="st4_seo-1-42" cx="79.8" cy="250.3" rx="19" ry="11"/>
	<path class="st8_seo-1-42" d="M84,225.8c0,0-7.8-10.5-4.8-18.1c0,0,2.5-4.9,6.3-5.7c0,0-0.1,10.2,3.7,8.8s-0.3-10.7-0.3-10.7&#10;&#9;&#9;s3.8-5.5,8.2-5.5s0.3,9.5,3.3,7.9s-0.1-9.5,3.3-10.6c3.1-0.8,6.3-1.4,9.4-1.8c0,0,3.5,9.2,0.3,10.6s-7.9,2-5.6,4s8.7-0.6,8.7-0.6&#10;&#9;&#9;s0.6,5.2-1.6,7.6s-15.2-2.3-12.8,2.2s10.9,1.9,10.9,1.9s-4.2,6.4-9.2,9.4S84,225.8,84,225.8z"/>
	<path class="st8_seo-1-42" d="M86.6,252.6c0,0-5.6-5.1-4.6-9.7c0,0,0.9-3,3-3.9c0,0,1.1,5.8,3,4.6s-1.3-6-1.3-6s1.6-3.6,4.1-4&#10;&#9;&#9;s1.2,5.4,2.7,4.1s-1.1-5.4,0.7-6.4c1.7-0.8,3.4-1.4,5.2-2c0,0,3,4.9,1.3,6s-4.3,2-2.7,2.9s4.9-1.3,4.9-1.3s0.9,2.9-0.1,4.5&#10;&#9;&#9;s-8.9,0.3-7,2.6s6.4-0.1,6.4-0.1c-1,2.4-2.4,4.5-4.2,6.3C95.3,252.4,86.6,252.6,86.6,252.6z"/>
	<path class="st8_seo-1-42" d="M66.4,241.8c0,0-13.1,0.9-17.8-5.7c0,0-2.7-4.8-1.5-8.4c0,0,8.6,5.5,9.4,1.6s-9.2-5.4-9.2-5.4&#10;&#9;&#9;s-2.6-6.2-0.2-9.9s8.2,4.9,8.4,1.5s-8.1-5-7.2-8.4c1-3.1,2.2-6,3.5-8.9c0,0,9.7,2,9.2,5.4s-2.5,7.8,0.4,6.9s4.2-7.7,4.2-7.7&#10;&#9;&#9;s4.7,2.3,5.5,5.3s-10.1,11.6-5,11.9s7.4-8.2,7.4-8.2s3.1,6.9,3,12.8S66.4,241.8,66.4,241.8z"/>
	<path class="st4_seo-1-42" d="M110.3,194.3c-1.3,1.2-2.7,2.4-4.1,3.7c0.1-1.5,0.2-3,0.4-4.4c0.1-0.8-1.1-1.1-1.2-0.3c-0.2,2-0.4,4-0.5,6&#10;&#9;&#9;c-3.6,3.3-7.1,6.8-10.4,10.5c-0.4-2.5-0.5-5-0.5-7.6c0-0.8-1.2-0.8-1.2,0c-0.1,2.9,0.2,5.8,0.6,8.7c-2.1,2.4-4,4.9-5.8,7.5&#10;&#9;&#9;c-2.2-2.9-3.8-6.2-4.6-9.7c-0.2-0.8-1.3-0.4-1.2,0.4c0.8,3.8,2.5,7.3,4.9,10.3c0,0,0.1,0.1,0.1,0.1c-5.2,7.9-8.7,16.6-8.7,26.6&#10;&#9;&#9;c0,0.8,1.2,0.8,1.2,0c0-9.6,3.3-18.1,8.3-25.7c5,1.2,10.2,1.5,15.3,1c0.8-0.1,0.8-1.3,0-1.2c-4.9,0.5-9.8,0.2-14.6-0.9&#10;&#9;&#9;c2.5-3.6,5.3-7.1,8.2-10.3c0,0,0.1,0,0.1,0c2.9,0.2,5.8,0.3,8.7,0.3c1.9,0,3.7,0.1,5.4-0.8c0.7-0.4,0-1.4-0.7-1.1&#10;&#9;&#9;c-2,1.1-4.8,0.6-6.9,0.6c-1.8,0-3.7-0.1-5.5-0.2c4.3-4.5,8.8-8.7,13.3-12.7C111.8,194.6,110.9,193.7,110.3,194.3z"/>
	<path class="st4_seo-1-42" d="M72.8,219.5c0-0.3-0.2-0.7-0.5-0.7c-0.3,0-0.6,0.1-0.7,0.4c-1.2,4.6-3.9,8.7-7.6,11.6&#10;&#9;&#9;c-1.5-3.8-2.9-7.7-4.2-11.7c2.9-3.1,5.2-6.6,6.9-10.5c0.3-0.7-0.8-1.3-1.1-0.6c-1.6,3.5-3.7,6.8-6.3,9.7c-1.4-4.5-2.7-9.1-3.8-13.7&#10;&#9;&#9;c-0.2-0.8-1.4-0.4-1.2,0.4c1.5,6.3,3.3,12.5,5.5,18.6c-2.3-0.4-4.6-1.1-6.8-2c-0.7-0.3-1.3,0.8-0.6,1.1c2.5,1.1,5.2,1.9,7.9,2.2&#10;&#9;&#9;l0,0c1.4,4,3,8,4.7,11.9c-3.7,0-7.4-0.7-10.8-2c-0.7-0.3-1.3,0.8-0.6,1.1c3.8,1.5,7.8,2.2,11.9,2.2c2.2,4.9,4.5,9.7,7,14.4&#10;&#9;&#9;c0.4,0.7,1.4,0,1-0.7c-3.4-6.3-6.4-12.7-9.1-19.3l0,0C68.5,229,71.5,224.5,72.8,219.5z"/>
	<path class="st4_seo-1-42" d="M95.7,234.8l-3.2,5.8c-0.4-0.5-0.8-1.1-1.1-1.8c-0.4-0.7-1.4,0-1,0.7c0.4,0.8,0.9,1.5,1.5,2.2l0,0&#10;&#9;&#9;c-1.2,2.1-2.3,4.2-3.5,6.3c-0.4-0.4-0.7-0.9-0.8-1.5c-0.1-0.8-1.4-0.8-1.2,0c0.1,1,0.7,1.9,1.4,2.5l-4.4,8c-0.2,0.3,0,0.7,0.3,0.8&#10;&#9;&#9;c0.3,0.1,0.6,0,0.8-0.2l5.8-10.4c1,0,2-0.2,3-0.6c0.8-0.3,0.4-1.5-0.4-1.2c-0.6,0.2-1.3,0.4-1.9,0.4l5.8-10.5&#10;&#9;&#9;c0.2-0.3,0-0.7-0.3-0.8C96.2,234.4,95.8,234.5,95.7,234.8z"/>
</g>
</svg>