<svg version="1.1" id="Layer_1" xmlns="http://www.w3.org/2000/svg" xmlns:xlink="http://www.w3.org/1999/xlink" x="0px" y="0px" viewBox="0 0 500 500" style="width: 188px;" xml:space="preserve" data-imageid="computer-78" imageName="Computer" class="illustrations_image">
<style type="text/css">
	.st0_computer-78{fill:#25B000;}
	.st1_computer-78{opacity:0.32;fill:url(#SVGID_1_);enable-background:new    ;}
	.st2_computer-78{opacity:0.32;fill:url(#SVGID_00000039117651120298431260000015869058157517261962_);enable-background:new    ;}
	.st3_computer-78{opacity:0.32;fill:url(#SVGID_00000056404263382374263150000006867517765288071594_);enable-background:new    ;}
	.st4_computer-78{fill:#34323D;}
	.st5_computer-78{fill:#FF9A22;}
	.st6_computer-78{fill:#FCBF81;}
	.st7_computer-78{fill:#68E1FD;}
	.st8_computer-78{fill:#334C42;}
	.st9_computer-78{opacity:0.1;fill:#FFFFFF;enable-background:new    ;}
	.st10_computer-78{fill:#17619E;}
	.st11_computer-78{fill:#FFFFFF;}
	.st12_computer-78{opacity:0.57;fill:#FFFFFF;enable-background:new    ;}
	.st13_computer-78{opacity:0.2;fill:#34323D;enable-background:new    ;}
	.st14_computer-78{fill:none;}
	.st15_computer-78{fill:#695DD8;}
	.st16_computer-78{opacity:0.4;fill:#34323D;enable-background:new    ;}
</style>
<g id="background_computer-78">
	<path class="st0_computer-78" d="M241.1,391L24,262.7c-6.9-3.9-12.8-10.2-6.1-14.4l217.9-125.6c3.3-2,8.2-3.4,11.6-1.4l227.9,132.3&#10;&#9;&#9;c6.9,4,8.2,15.2,1.2,19.2l-206.7,118C260.9,395.9,250,396,241.1,391z"/>
	
		<linearGradient id="SVGID_1_-computer-78" gradientUnits="userSpaceOnUse" x1="267.4825" y1="-2097.6062" x2="294.9025" y2="-2115.426" gradientTransform="matrix(1 0 0 1 0 2407.26)">
		<stop offset="0" style="stop-color:#25B000"/>
		<stop offset="1" style="stop-color:#0E4500"/>
	</linearGradient>
	<path class="st1_computer-78" d="M300.4,285.5l-3.5-3.6l-46.5,23.6c9.2,5,14.7,10,24.2,14.4l30.4-19.2l9.3-6.6L300.4,285.5z"/>
	
		<linearGradient id="SVGID_00000013911185711725913250000003668802255121198739_-computer-78" gradientUnits="userSpaceOnUse" x1="395.5056" y1="-2119.4736" x2="420.3956" y2="-2145.5237" gradientTransform="matrix(1 0 0 1 0 2407.26)">
		<stop offset="0" style="stop-color:#25B000"/>
		<stop offset="1" style="stop-color:#0E4500"/>
	</linearGradient>
	<path style="opacity:0.32;fill:url(#SVGID_00000013911185711725913250000003668802255121198739_);enable-background:new    ;" d="&#10;&#9;&#9;M409.1,292.8c4.5-2.8,9-5.6,13.4-8.5c7.6-4.9,16-9.6,23-15.5l-35.4-9.5l-37.7,19.3c7.3,3.9,17.3,9.1,31.8,17.1&#10;&#9;&#9;C405.9,294.7,407.5,293.8,409.1,292.8z"/>
	
		<linearGradient id="SVGID_00000133515992726532488020000011701749333424858529_-computer-78" gradientUnits="userSpaceOnUse" x1="188.8328" y1="-2068.6055" x2="212.8428" y2="-2083.3555" gradientTransform="matrix(1 0 0 1 0 2407.26)">
		<stop offset="0" style="stop-color:#25B000"/>
		<stop offset="1" style="stop-color:#0E4500"/>
	</linearGradient>
	<path style="opacity:0.32;fill:url(#SVGID_00000133515992726532488020000011701749333424858529_);enable-background:new    ;" d="&#10;&#9;&#9;M215.5,318.5l-3.5-3.6l-46.5,23.6c9.1,5,14.7,10,24.2,14.4l30.4-19.1l9.3-6.6L215.5,318.5z"/>
</g>
<g id="stationary_computer-78">
	<path class="st4_computer-78" d="M429.8,214.8c-13.9,0-25.2,3.7-25.2,8.2H455C455,218.4,443.7,214.8,429.8,214.8z"/>
	<path class="st4_computer-78" d="M404.7,223.6l-0.1-0.6C404.6,223.2,404.6,223.4,404.7,223.6z"/>
	<path class="st4_computer-78" d="M455,223l-0.1,0.7C455,223.5,455,223.2,455,223z"/>
	<path class="st4_computer-78" d="M429.8,231.2c13.2,0,24-3.3,25.1-7.5l0.1-0.7h-50.4l0.1,0.6C405.6,227.9,416.5,231.2,429.8,231.2z"/>
	<rect x="433.7" y="180.4" class="st0_computer-78" width="5.7" height="58.5"/>
	<ellipse class="st0_computer-78" cx="436.5" cy="180.4" rx="2.8" ry="1.2"/>
	
		<rect x="414.1" y="216.9" transform="matrix(0.2001 -0.9798 0.9798 0.2001 139.4157 610.1274)" class="st5_computer-78" width="58.5" height="5.7"/>
	<ellipse transform="matrix(0.2001 -0.9798 0.9798 0.2001 172.1613 592.9418)" class="st5_computer-78" cx="449.2" cy="191" rx="1.2" ry="2.8"/>
	<path class="st5_computer-78" d="M422.9,224.3l-5.2,3c-0.2,0.1-0.5,0-0.6-0.2c-0.1-0.2-0.1-0.5,0.2-0.6c0,0,0,0,0,0l0,0l5.3-3&#10;&#9;&#9;c0.1,0,0.1,0,0.2,0l-1-5.6l-5.2,3c-0.2,0.1-0.5,0.1-0.6-0.2c-0.1-0.2-0.1-0.5,0.2-0.6l5.3-3c0.1,0,0.1-0.1,0.2-0.1l-1-5.2l-5.1,2.9&#10;&#9;&#9;c-0.2,0.1-0.5,0.1-0.6-0.2c-0.1-0.2-0.1-0.5,0.2-0.6l0,0l5.3-3h0.1l-1.1-5.9l-5.1,2.9c-0.2,0.1-0.5,0.1-0.6-0.2&#10;&#9;&#9;c-0.1-0.2-0.1-0.5,0.2-0.6l5.3-3h0.1l-1-5.6l-5.2,3c-0.2,0.1-0.5,0.1-0.6-0.2c-0.1-0.2-0.1-0.5,0.2-0.6l5.3-3h0.2l-0.9-4.9l-5.2,3&#10;&#9;&#9;c-0.2,0.1-0.5,0.1-0.6-0.1c0,0,0,0,0,0c-0.1-0.2-0.1-0.5,0.2-0.6c0,0,0,0,0,0l0,0l5.3-3c0.1,0,0.1,0,0.2,0l-0.9-4.8l-5.2,3&#10;&#9;&#9;c-0.2,0.1-0.5,0.1-0.6-0.2c0,0,0,0,0,0c-0.1-0.2,0-0.5,0.2-0.6l5.3-3h0.2l-1-5.4l-5.1,2.9c-0.2,0.1-0.5,0.1-0.6-0.2&#10;&#9;&#9;c-0.1-0.2-0.1-0.5,0.2-0.6l5.3-3h0.1l-0.5-2.5l-11.2,7c0,0,8,44.5,8.1,44.6c4.7,2.4,13.1,2.7,13.1,2.7L422.9,224.3z"/>
	<path class="st4_computer-78" d="M409.1,182.8c-0.2,0.1-0.3,0.4-0.2,0.6c0,0,0,0,0,0c0.1,0.2,0.4,0.3,0.6,0.2l5.1-2.9l-0.2-0.9h-0.1&#10;&#9;&#9;L409.1,182.8z"/>
	<path class="st4_computer-78" d="M410.3,189.1c-0.2,0.1-0.3,0.4-0.2,0.6c0.1,0.2,0.4,0.3,0.6,0.2l5.2-3l-0.2-0.9h-0.1L410.3,189.1z"/>
	<path class="st4_computer-78" d="M411.3,194.9c-0.2,0.1-0.3,0.4-0.2,0.6c0,0,0,0,0,0c0.1,0.2,0.4,0.3,0.6,0.2l0,0l5.2-3l-0.2-0.9&#10;&#9;&#9;c-0.1,0-0.1,0-0.2,0L411.3,194.9z"/>
	<path class="st4_computer-78" d="M412.4,200.7c-0.2,0.1-0.3,0.4-0.2,0.6c0.1,0.2,0.4,0.3,0.6,0.2l5.2-3l-0.2-0.9h-0.2L412.4,200.7z"/>
	<path class="st4_computer-78" d="M413.7,207.2c-0.2,0.1-0.3,0.4-0.2,0.6c0.1,0.2,0.4,0.3,0.6,0.2l5.1-2.9l-0.2-0.9H419L413.7,207.2z"/>
	<path class="st4_computer-78" d="M415,213.8c-0.2,0.1-0.3,0.4-0.2,0.6c0.1,0.2,0.4,0.3,0.6,0.2l0,0l5.1-2.9l-0.2-0.9h-0.1L415,213.8z"/>
	<path class="st4_computer-78" d="M421.3,216.9l-5.3,3c-0.2,0.1-0.3,0.4-0.2,0.6c0.1,0.2,0.4,0.3,0.6,0.2l5.2-3l-0.2-0.9&#10;&#9;&#9;C421.5,216.8,421.4,216.8,421.3,216.9z"/>
	<path class="st4_computer-78" d="M417.3,226.4c-0.2,0.1-0.3,0.4-0.2,0.6c0,0,0,0,0,0c0.1,0.2,0.4,0.3,0.6,0.2l5.2-3l-0.1-0.9&#10;&#9;&#9;c-0.1,0-0.1,0-0.2,0L417.3,226.4z"/>
	<path class="st6_computer-78" d="M446.4,190.5c0,0,0.3,1.5,2.5,1.7s3-0.6,3-0.6l-0.7-11.2L446.4,190.5z"/>
	<path class="st4_computer-78" d="M451.2,180.4l-2.2,4.7c0.7,0.7,1.7,0.9,2.6,0.4L451.2,180.4z"/>
	<path class="st6_computer-78" d="M433.7,180.1c0,0,0.5,1.4,2.8,1.3s2.9-1.1,2.9-1.1l-2.5-10.9L433.7,180.1z"/>
	<path class="st4_computer-78" d="M436.9,169.5l-1.5,4.9c0.7,0.6,1.9,0.6,2.6,0L436.9,169.5z"/>
	<path class="st7_computer-78 targetColor" d="M429.8,231.2c-13.3,0-24.2-3.3-25.1-7.6c0.6,5.1,5.2,40.1,5.4,40.2c0,0,2.3,9.9,19.8,9.9&#10;&#9;&#9;c14.8,0,19.1-7.5,19.1-7.5l6-42.6C453.7,227.9,442.9,231.2,429.8,231.2z" style="fill: rgb(104, 225, 253);"/>
</g>
<g id="monitor_computer-78">
	<path class="st4_computer-78" d="M214.7,247.7l36.1,13.5c0,0,1.5,1,0.5,3.3c-0.6,1.3-3.5,3.3-3.5,3.3l-31.1,18.1c-1.7,0.8-3.5,1.3-5.4,1.5&#10;&#9;&#9;c-2.5,0.1-6.6-1.9-6.6-1.9l-29-16.8L214.7,247.7z"/>
	<path class="st8_computer-78" d="M215.2,246l34.4,14.1c0,0,2.4,1.3,1.8,3.1c-0.7,1.3-1.8,2.4-3.1,3.1l-31.2,17.9c-1.7,0.8-3.5,1.2-5.4,1.5&#10;&#9;&#9;c-2.5,0.1-6.6-1.9-6.6-1.9l-27.5-15.6L215.2,246z"/>
	<path class="st9_computer-78" d="M215.2,246l34.4,14.1c0,0,2.4,1.3,1.8,3.1c-0.7,1.3-1.8,2.4-3.1,3.1l-31.2,17.9c-1.7,0.8-3.5,1.2-5.4,1.5&#10;&#9;&#9;c-2.5,0.1-6.6-1.9-6.6-1.9l-27.5-15.6L215.2,246z"/>
	<path class="st8_computer-78" d="M121.7,301.9c-1.3,0.6-2.9,0.2-3.8-0.9c0,0-0.7-0.1-0.7-3.1V160.6c0.1-2.4,1.2-4.7,3-6.2&#10;&#9;&#9;c3.4-2.4,6.9-4.5,10.5-6.4l152.6-88.1L285,59c1.2-0.6,2.6-0.2,3.4,0.9c0.4,0.8,0.7,1.6,0.8,2.5c0.1,1.4,0,15.3,0,15.3v123.5&#10;&#9;&#9;c0,2.4-1,4.7-2.8,6.3L121.7,301.9z"/>
	<path class="st10_computer-78" d="M120,281.1V162.6c0-3.9,0.5-6.1,3.6-7.8l161-93.2c1-0.7,2.3-0.5,3,0.5c0.3,0.4,0.4,0.8,0.4,1.2l-0.4,121.9&#10;&#9;&#9;L120,281.1z"/>
	<path class="st7_computer-78 targetColor" d="M141.6,251.9v-87c0-2.9,0.4-4.5,2.6-5.7l118.2-68.4c0.7-0.5,1.7-0.4,2.2,0.3c0,0,0,0,0,0&#10;&#9;&#9;c0.2,0.3,0.3,0.6,0.3,0.9l-0.3,89.4L141.6,251.9z" style="fill: rgb(104, 225, 253);"/>
	<path class="st11_computer-78" d="M262.4,90.7l-118.2,68.4c-2.2,1.2-2.6,2.8-2.6,5.7v8.5l123.2-70.1V92c0-0.9-0.7-1.6-1.6-1.5c0,0,0,0,0,0&#10;&#9;&#9;C262.9,90.5,262.6,90.5,262.4,90.7z"/>
	
		<ellipse transform="matrix(0.1556 -0.9878 0.9878 0.1556 -37.1583 284.2287)" class="st7_computer-78 targetColor" cx="147.7" cy="163.8" rx="3.1" ry="1.7" style="fill: rgb(104, 225, 253);"/>
	
		<ellipse transform="matrix(0.1556 -0.9878 0.9878 0.1556 -28.982 287.4026)" class="st7_computer-78 targetColor" cx="153.6" cy="160.7" rx="3.1" ry="1.7" style="fill: rgb(104, 225, 253);"/>
	<ellipse transform="matrix(0.1556 -0.9878 0.9878 0.1556 -20.62 290.4412)" class="st7_computer-78 targetColor" cx="159.6" cy="157.3" rx="3.1" ry="1.7" style="fill: rgb(104, 225, 253);"/>
	<polygon class="st12_computer-78" points="256.3,166.6 256.3,124.6 227.7,141.1 227.7,183 &#9;"/>
	<polygon class="st12_computer-78" points="179.7,208.6 179.7,166.6 151.1,183 151.1,225 &#9;"/>
</g>
<g id="character_2_computer-78">
	<path class="st6_computer-78" d="M321,196.9c-0.1,0.7-2.1,11.2-1.4,11.9s1.4-1.6,1.4-1.6s0.3,5.7,2.3,7.2s3.4-4.2,3.8-6.4c0.2-3,0.2-5.9,0-8.9"/>
	<path class="st6_computer-78" d="M284.1,150.4v-5.7c0,0,2.2-5.4,1.4-5.9s-2.8,3.4-2.8,3.4s-3.3-7.2-4.2-7.2s-4,4-4,5.8s2.5,5.4,3.2,6.4&#10;&#9;&#9;c0.9,2.2,1.7,4.5,2.3,6.8"/>
	<path class="st5_computer-78" d="M301.6,146.8c0,0-8.7,16.5-10.3,16.1s-6.7-13.9-6.7-13.9c-2.5,1.3-4.9,2.7-7.2,4.3c-0.9,0.9,4.1,25,15.7,24&#10;&#9;&#9;s14.9-11.5,14.9-11.5"/>
	<path class="st13_computer-78" d="M301.6,146.8c0,0-8.7,16.5-10.3,16.1s-6.7-13.9-6.7-13.9c-2.5,1.3-4.9,2.7-7.2,4.3c-0.9,0.9,4.1,25,15.7,24&#10;&#9;&#9;s14.9-11.5,14.9-11.5"/>
	<path class="st6_computer-78" d="M303.4,189c-0.9-0.5-1.9-1.1-2.8-1.5c-3.9,7.1-6.1,14.7-8.1,22.5c-0.3,2.7-0.5,5.4-0.8,8.1&#10;&#9;&#9;c-1.3,16.4,1.4,41.4,1.8,57.8c0.1,2.7,1.5,2.4,5.7,0C309.8,235.2,297.4,237.5,303.4,189z"/>
	<path class="st6_computer-78" d="M293.2,268.3c0,0,0.6,10.1-0.4,11.7s-7.5,7.2-8.7,8s-2.6,2.3-2.1,3.2s4.9,3.3,8.5,3s4.5-4.8,6.5-5.2&#10;&#9;&#9;s3.8-0.4,4.5-2.4s-2.5-11.5-1.2-16.5S293.2,268.3,293.2,268.3z"/>
	<path class="st10_computer-78" d="M291.9,287.1c-1.8,0.6-4.8,1-6.1-0.4c-0.5,0.4-1.1,0.8-1.6,1.2c-1.2,0.7-2.6,2.3-2.1,3.2s4.9,3.3,8.5,3&#10;&#9;&#9;s4.5-4.8,6.5-5.2s3.8-0.4,4.5-2.4c0.3-0.9-0.1-3.1-0.6-5.8C298.5,283.6,295.4,285.8,291.9,287.1z"/>
	<path class="st6_computer-78" d="M316.5,195.8c-3.6-2.1-7.9-4-7.9-4c-1.9,4.7-1.3,10.9-1.9,15.9c-0.7,5.7-1.4,11.4-1.8,17.2&#10;&#9;&#9;c-1.3,16.4,1.4,41.4,1.8,57.8c0.1,2.7,1.5,2.3,5.7,0C322.9,242.1,310.5,244.4,316.5,195.8z"/>
	<line class="st14_computer-78" x1="310.5" y1="177.3" x2="293" y2="168.5"/>
	<path class="st7_computer-78 targetColor" d="M301.8,274.1c4.6,0.5,10.6,2.3,15.1,1c0.6-11.7,3.1-71.4,3-75c-0.5-8.3-6.3-18.2-6.3-18.2l-16.3-1.6&#10;&#9;&#9;c0,0-5.8,10.9-6.5,17.8c-0.3,2.8-3,60.8-2.9,70.9C292,271.8,296.8,273.5,301.8,274.1z" style="fill: rgb(104, 225, 253);"/>
	<path class="st6_computer-78" d="M306.4,275.2c0,0,0.6,10.1-0.4,11.7s-7.5,7.2-8.7,8s-2.6,2.3-2.1,3.2s4.9,3.3,8.5,3s4.5-4.8,6.5-5.2&#10;&#9;&#9;s3.8-0.4,4.5-2.4s-2.5-11.5-1.2-16.5S306.4,275.2,306.4,275.2z"/>
	<path class="st10_computer-78" d="M305,294c-1.8,0.6-4.8,1-6.1-0.4c-0.5,0.4-1.1,0.8-1.6,1.2c-1.2,0.7-2.6,2.3-2.1,3.2s4.9,3.3,8.5,3&#10;&#9;&#9;s4.5-4.8,6.5-5.2s3.8-0.4,4.5-2.4c0.3-0.9-0.1-3.1-0.6-5.8C311.6,290.4,308.5,292.7,305,294z"/>
	<path class="st5_computer-78" d="M327.7,171.9v-0.2c-0.9-5-2.4-10-4.4-14.7c-0.9-2.4-3.2-4.4-5.1-6.1c-2.5-2.3-5.1-4.5-7.9-6.5&#10;&#9;&#9;c0,0-5.6,1.3-8.6,2.5c-2.1,0.8-3,3.6-3.8,5.5c-1.3,3.2-3.8,6.6-3.7,10.3c0.1,2.7,0.4,5.4,0.9,8c0.6,4,1.4,8,2.3,12&#10;&#9;&#9;c0,0,11.4,0.9,16.4,0.2l1-10.5c0,0,3.4,16.4,4.7,25.3l0.3,2.7l8.2,0.5c0.6-4.7,0.8-9.5,0.5-14.2&#10;&#9;&#9;C328.6,181.7,328.3,176.7,327.7,171.9z"/>
	<path class="st6_computer-78" d="M299.2,130.8c0,0-1.2,12.9,4,14.8s8.5-4.5,8.5-4.5s1.8-8.6,0.2-10.6S302.3,127.3,299.2,130.8z"/>
	<path class="st10_computer-78" d="M303,131.8c-1.1,0.9-2.5,1.6-3.9,1.9c-1.8,0.2-2.8-2.4-3-3.8s1.1-6,9.3-6.3s13.1,6.7,13.1,10.9&#10;&#9;&#9;s-0.5,14.6-0.5,14.6c-3.6-0.2-7.2-0.6-10.8-1.2c0,0,2.8-9.5,2.2-12.4S303,131.8,303,131.8z"/>
</g>
<g id="character_1_computer-78">
	<path class="st6_computer-78" d="M147.1,201.6l2.8,1.3c-0.7-0.5-1.5-0.9-2.2-1.5s-1.7-1.7-1.6-2.6c0.2-1.4,2.7-0.1,4.6,1&#10;&#9;&#9;c-1.3-1.1-2.4-2.4-1.2-2.9s2.3,0.9,3,1.4c1.2,0.9,2.4,1.8,3.5,2.8c-0.8-1.1-1.5-2.2-2.1-3.4c-0.7-1.1,1-2,1.8-1.2&#10;&#9;&#9;c2.3,2.5,4.8,4.8,7.4,6.9c0.1,0.1,0.2,0.2,0.3,0.3h3.4c0.3-0.1,0.7,0,0.9,0.3c0.2,0.1,0.4,0.2,0.6,0.3l0.2,0.1&#10;&#9;&#9;c0.5,0,1.1,0.1,1.6,0.2c0.7,0.1,1.1,0.8,0.9,1.4c0,0,0,0,0,0c0,0.1,0,0.1-0.1,0.2l0.2-0.1c1.2-0.7,2.1,1.2,0.9,2&#10;&#9;&#9;c-2.5,1.5-5.4,2.4-8.4,2.4c0,0.3-0.3,0.5-0.5,0.5c0,0,0,0,0,0c-3.1-0.1-6.2-0.6-9.2-1.6c-0.4-0.1-0.7-0.3-1.1-0.4&#10;&#9;&#9;c-1.8-0.7-3.4-1.8-4.8-3.1c-0.2-0.2-0.2-0.6,0-0.8c0,0,0,0,0,0c0.2-0.2,0.4-0.2,0.6-0.2l0.5,0.2c-0.3-0.2-0.7-0.4-1-0.6&#10;&#9;&#9;c-0.8-0.5-1.8-1.1-1.9-2.2c-0.1-0.3,0.1-0.7,0.4-0.8C146.8,201.5,146.9,201.6,147.1,201.6z"/>
	<path class="st6_computer-78" d="M187.9,188.2c0.4-0.1-3.4-5.4-3.7-5.9c-1.8-2.9-3.5-6-5.1-9.1c0-0.1-0.1-0.2-0.2-0.2c-0.3-0.6-0.6-1.2-0.9-1.7&#10;&#9;&#9;c-0.2-0.4-0.7-0.5-1-0.3c-0.3,0.1-0.4,0.4-0.4,0.7c-0.1,1.8,0.3,3.6,1.2,5.1c-0.4,0.4-0.8,0.9-1.2,1.3c0.1,0.1,0.2,0.2,0.1,0.4&#10;&#9;&#9;c-0.1,0.3-0.2,0.5-0.4,0.7c-0.1,0.2-0.2,0.3-0.4,0.4c-0.1,0-0.1,0.1-0.2,0.1c-0.2,0.7,0,1.5,0.5,2.1c-0.3,0.7-0.4,1.5-0.1,2.2v0.1&#10;&#9;&#9;h0.1c1,0.6,2,1.3,2.9,2c0.1,0.1,0.1,0.4,0,0.5c0,0-0.1,0-0.1,0.1c0.7,0.4,1.5,0.7,2.3,0.9c0.2,0.1,0.4,0.1,0.5,0&#10;&#9;&#9;c0.1,0.1,0.2,0.2,0.3,0.3c0.3,0.3,0.8,0.3,1.1,0c0,0,0,0,0,0c0.1-0.1,0.2-0.2,0.2-0.3c0-0.1,0-0.2,0-0.3l0.3,0.3&#10;&#9;&#9;c-0.1,0.5,0.2,1,0.6,1.1h0.2c0.5,0.1,0.9-0.3,1-0.7c0-0.1,0-0.2,0-0.4l0.6,0.9c0.1,0.1,0.2,0.1,0.3,0.1c0,0,0.1-0.1,0.1-0.1&#10;&#9;&#9;c0,0,0-0.1,0-0.1c0.3,0.5,0.6,1.1,0.8,1.6C191.2,195.7,188,188.4,187.9,188.2z"/>
	<path class="st6_computer-78" d="M186.9,188.1c-0.8-0.7-1.5-1.5-2.1-2.4c-0.4-0.8-1.4-1.1-2.2-0.7c0,0,0,0,0,0h-0.1c-0.1-0.4-0.1-0.9-0.1-1.3&#10;&#9;&#9;c0-2.2-3.4-2.2-3.4,0c-0.1,1.7,0.4,3.4,1.3,4.8c1,1.3,2.3,2.4,3.7,3.3c0.8,0.5,1.9,0.2,2.4-0.6c0,0,0,0,0,0&#10;&#9;&#9;c0.1-0.2,0.2-0.4,0.2-0.6l0.2-0.1C187.4,189.8,187.5,188.8,186.9,188.1z"/>
	<path class="st4_computer-78" d="M181.6,189c-2.2-1.4-3.3-4.1-2.6-6.6c0-0.1,0-0.1,0-0.2l0,0l-1.1-2c-0.2-0.3-0.4-0.6-0.5-0.9&#10;&#9;&#9;c-0.2-0.5-0.5-2.6,1-1.8c0.5,0.6,1,1.2,1.4,1.9c0.4,0.6,0.8,1.3,1.2,1.9c0.1,0.2,0.5,0,0.4-0.2c-0.8-1.2-1.6-2.4-2.4-3.5&#10;&#9;&#9;c-0.4-0.5-0.8-1.1-1.5-0.8c-0.6,0.2-0.9,0.8-0.8,1.4c-0.3,0.5-0.8,0.9-0.9,1.5c0,0.6,0.2,1.2,0.5,1.7l0.2,0.3c0,0-0.1,0.1-0.1,0.1&#10;&#9;&#9;c-0.2,0.6-0.7,1.4-0.2,2c0.2,0.2,0.5,0.5,0.8,0.6l1.4,0.9c0.1,0.1,0.2,0,0.3,0c0,0,0,0,0,0l0,0c0.4,1.6,1.5,3.1,2.9,4&#10;&#9;&#9;C181.6,189.5,181.9,189.2,181.6,189z M176.4,180.7c-0.3-0.4-0.2-1,0.1-1.4l0.3-0.4c0.5,1.2,1.1,2.4,1.9,3.5v0.1c-0.1,0-0.2,0-0.2,0&#10;&#9;&#9;C177.4,183,176.6,181.4,176.4,180.7L176.4,180.7z M176.8,183.9c-0.3-0.2-0.5-0.6-0.5-0.9c0.1-0.3,0.2-0.6,0.3-0.9&#10;&#9;&#9;c0.4,0.6,1.1,1.1,1.8,0.7c-0.1,0.7-0.1,1.5,0,2.2C177.9,184.7,177.4,184.3,176.8,183.9L176.8,183.9z"/>
	<path class="st15_computer-78" d="M205.8,196.3c0,0-9.9,0.5-12.5-1.9s-6.3-9.9-6.3-9.9s-6.9,4.4-7.2,6.9s7.2,14.8,10.5,15.6"/>
	<path class="st16_computer-78" d="M205.8,196.3c0,0-9.9,0.5-12.5-1.9s-6.3-9.9-6.3-9.9s-6.9,4.4-7.2,6.9s7.2,14.8,10.5,15.6"/>
	<path class="st4_computer-78" d="M220.8,318.8c0,0-8.4-3.7-10.4-3.9s-5.4,0.5-2.4,4.2c0,0,8.9,5.8,10,6s4-0.7,4.1-0.4s0.3,2.5,0.3,2.5&#10;&#9;&#9;s7.4,2.8,7.7-2.1c0-0.6-1.1-9.8-1.1-9.8"/>
	<path class="st7_computer-78 targetColor" d="M230.5,297.2c-1.5-9.5-4.1-18.7-5.2-28.3c-0.7-6-1.2-12.1-1.9-18.1s-3-11.9-4.4-17.9c-0.1-0.3,0-0.6,0.3-0.7&#10;&#9;&#9;c-0.1-0.2-0.1-0.4-0.2-0.6c-0.8-0.7-1.5-1.4-2.2-2l-10.3,6.9c0,0,0.1,6.3,0.4,15.5c1.2,5.3,2.1,10.1,3.5,15.2&#10;&#9;&#9;c-0.3,0.3-0.4,0.8-0.3,1.2c3.4,16,5.8,32.1,7.3,48.3c0,0.5,0.4,1,0.9,1.2l0.3,2.5c9,3.5,11-2.6,11-2.6s0.4-5.1,0.9-12.3&#10;&#9;&#9;C230.5,302.7,230.5,299.9,230.5,297.2z" style="fill: rgb(104, 225, 253);"/>
	<path class="st4_computer-78" d="M202.5,332.6l-5,1.9c-0.3,0.9-1.1,1.6-2,1.8c-0.2,0.2-0.4,0.3-0.7,0.4c-2,0.1-4.1-0.2-5.9-1&#10;&#9;&#9;c-2.4-0.8-11.7-4.3-9.1,2.4c1.7,1.2,3.6,2.2,5.4,3.3c1,0.6,2,1.2,3,1.7c0.5,0.4,1.1,0.6,1.7,0.8c1.3,0.2,4.6-0.8,4.7-0.5&#10;&#9;&#9;s0.4,2.9,0.4,2.9s8.5,3.2,8.9-2.4C203.7,343.2,202.5,332.6,202.5,332.6z"/>
	<path class="st7_computer-78 targetColor" d="M209.5,281.6c1-16.8,1.6-33.7,5.1-50.2c0.2-4.3,2.9-1.5,2.8-3.2c-1.5-13.8-21.6,2.6-21.6,2.6&#10;&#9;&#9;c-0.8,0.7-0.9,4.9-1.1,5.9c-0.9,5.3-1.7,10.7-2.3,16c-3.3,27-2.1,53.8-0.7,80.9c4.3,4.4,7.1,5.7,14,2.9c1.4-17.7,2.7-35.4,3.8-53.1&#10;&#9;&#9;L209.5,281.6z" style="fill: rgb(104, 225, 253);"/>
	<path class="st15_computer-78" d="M198.7,198.1c0.2-0.9,2.4-1.5,3.1-1.8c1.6-0.8,0.6-2.3,2.2-3.2c2.2-1.3,4.5-2.4,6.9-3.4h0.1&#10;&#9;&#9;c3.8,0,10.2-0.2,10.6,4.8c0.6,7.9-0.1,15.7-0.7,23.5c-0.2,3.1-0.5,6.3-0.8,9.3c-0.1,1.1-0.2,10.2-0.9,10.5&#10;&#9;&#9;c-7.6,3.1-17.3,2-24.7-0.9C194.9,223.9,196.3,210.9,198.7,198.1z"/>
	<path class="st4_computer-78" d="M205.5,206c-0.5,5.3-4.2,9.8-9.4,11.2c0,0.5-0.2,3.7-0.2,4.2c6-1.4,10.5-9,11.1-15.5&#10;&#9;&#9;C207.1,205.1,205.6,205.1,205.5,206z"/>
	<path class="st6_computer-78" d="M209.2,173.8c-0.5,0.1-4.7,9.9-3.1,15.8s11.7-0.2,14.2-4.7S218.7,171.3,209.2,173.8z"/>
	<path class="st4_computer-78" d="M209.4,175.2c0,1.8,1.1,3.5,2.8,4.2c2.8,1,5.1,1.7,5,3s-5.1-0.2-5.1,2.8c0,2,0.3,4,0.8,5.9&#10;&#9;&#9;c0.3,1.5,8.8-3,11.5-10.6s-4.2-9.7-4.5-9.7s-1-2.1-4.4-2.9s-4.4,0.6-4.4,0.6c-1.6-1-3.6-0.8-5,0.5c-3.1,2.5-2.3,7.1,1.2,8.9&#10;&#9;&#9;L209.4,175.2z"/>
	<path class="st15_computer-78" d="M205.5,192.2c0,0-17.4,10-23.6,10c-4.5,0-13.4-1.5-18.1-2.3c-4.3,3.6-4.6,10-1.9,14.9&#10;&#9;&#9;c7.6,1.2,30.1,4.5,37.1,1c8.5-4.2,17.9-9.9,17.9-9.9S225.4,197.6,205.5,192.2z"/>
</g>
</svg>