<svg id="_0378_fitness" xmlns="http://www.w3.org/2000/svg" xmlns:xlink="http://www.w3.org/1999/xlink" viewBox="0 0 500 500" data-imageid="fitness-68" imageName="Fitness" class="illustrations_image" style="width: 188px;"><defs><style>.cls-1_fitness-68{fill:url(#linear-gradient);}.cls-1_fitness-68,.cls-2_fitness-68,.cls-3_fitness-68,.cls-4_fitness-68,.cls-5_fitness-68,.cls-6_fitness-68,.cls-7_fitness-68,.cls-8_fitness-68,.cls-9_fitness-68,.cls-10_fitness-68,.cls-11_fitness-68,.cls-12_fitness-68,.cls-13_fitness-68,.cls-14_fitness-68,.cls-15_fitness-68,.cls-16_fitness-68,.cls-17_fitness-68,.cls-18_fitness-68,.cls-19_fitness-68,.cls-20_fitness-68,.cls-21_fitness-68,.cls-22_fitness-68{stroke-width:0px;}.cls-2_fitness-68{opacity:.18;}.cls-2_fitness-68,.cls-10_fitness-68{isolation:isolate;}.cls-2_fitness-68,.cls-10_fitness-68,.cls-22_fitness-68{fill:#68e1fd;}.cls-3_fitness-68{fill:url(#linear-gradient-11-fitness-68);}.cls-4_fitness-68{fill:url(#linear-gradient-12-fitness-68);}.cls-5_fitness-68{fill:url(#linear-gradient-13-fitness-68);}.cls-6_fitness-68{fill:url(#linear-gradient-10-fitness-68);}.cls-7_fitness-68{fill:url(#linear-gradient-16-fitness-68);}.cls-8_fitness-68{fill:url(#linear-gradient-15-fitness-68);}.cls-9_fitness-68{fill:url(#linear-gradient-14-fitness-68);}.cls-10_fitness-68{opacity:.32;}.cls-11_fitness-68{fill:url(#linear-gradient-4-fitness-68);}.cls-12_fitness-68{fill:url(#linear-gradient-2-fitness-68);}.cls-13_fitness-68{fill:url(#linear-gradient-3-fitness-68);}.cls-14_fitness-68{fill:url(#linear-gradient-8-fitness-68);}.cls-15_fitness-68{fill:url(#linear-gradient-9-fitness-68);}.cls-16_fitness-68{fill:url(#linear-gradient-7-fitness-68);}.cls-17_fitness-68{fill:url(#linear-gradient-5-fitness-68);}.cls-18_fitness-68{fill:url(#linear-gradient-6-fitness-68);}.cls-19_fitness-68{fill:#231f20;}.cls-20_fitness-68{fill:#fff;}.cls-21_fitness-68{fill:#ffaa71;}</style><linearGradient id="linear-gradient-fitness-68" x1="754.07" y1="1987.18" x2="736.46" y2="1801.95" gradientTransform="translate(-516.24 2285.36) scale(1 -1)" gradientUnits="userSpaceOnUse"><stop offset="0" stop-color="#000"/><stop offset=".13" stop-color="#000" stop-opacity=".69"/><stop offset="1" stop-color="#000" stop-opacity="0"/></linearGradient><linearGradient id="linear-gradient-2-fitness-68" x1="162.53" y1="165.47" x2="183.38" y2="327.07" gradientUnits="userSpaceOnUse"><stop offset="0" stop-color="#000"/><stop offset=".15" stop-color="#000" stop-opacity=".47"/><stop offset="1" stop-color="#000" stop-opacity="0"/></linearGradient><linearGradient id="linear-gradient-3-fitness-68" x1="733.84" y1="2033.8" x2="687.03" y2="2023.43" xlink:href="#linear-gradient-fitness-68"/><linearGradient id="linear-gradient-4-fitness-68" x1="235.5" y1="156.06" x2="256.35" y2="317.65" gradientTransform="matrix(1,0,0,1,0,0)" xlink:href="#linear-gradient-fitness-68"/><linearGradient id="linear-gradient-5-fitness-68" x1="219.1" y1="198.33" x2="272.1" y2="182.26" gradientTransform="matrix(1,0,0,1,0,0)" xlink:href="#linear-gradient-fitness-68"/><linearGradient id="linear-gradient-6-fitness-68" x1="76.68" y1="179.75" x2="257.49" y2="198.32" gradientTransform="matrix(1,0,0,1,0,0)" xlink:href="#linear-gradient-fitness-68"/><linearGradient id="linear-gradient-7-fitness-68" x1="728.65" y1="2071.42" x2="734.53" y2="2032.8" xlink:href="#linear-gradient-fitness-68"/><linearGradient id="linear-gradient-8-fitness-68" x1="755.02" y1="2165.31" x2="726.66" y2="2133.49" xlink:href="#linear-gradient-fitness-68"/><linearGradient id="linear-gradient-9-fitness-68" x1="750.12" y1="2066.69" x2="703.55" y2="1999.82" xlink:href="#linear-gradient-fitness-68"/><linearGradient id="linear-gradient-10-fitness-68" x1="665.68" y1="1985.19" x2="654.61" y2="1883.74" xlink:href="#linear-gradient-fitness-68"/><linearGradient id="linear-gradient-11-fitness-68" x1="807.24" y1="1985.44" x2="796.17" y2="1883.99" xlink:href="#linear-gradient-fitness-68"/><linearGradient id="linear-gradient-12-fitness-68" x1="81.7" y1="130.87" x2="262.51" y2="149.44" gradientTransform="matrix(1,0,0,1,0,0)" xlink:href="#linear-gradient-fitness-68"/><linearGradient id="linear-gradient-13-fitness-68" x1="194.88" y1="101.98" x2="190.32" y2="185.06" gradientTransform="matrix(1,0,0,1,0,0)" xlink:href="#linear-gradient-fitness-68"/><linearGradient id="linear-gradient-14-fitness-68" x1="836.42" y1="1994.02" x2="927.73" y2="1981.12" xlink:href="#linear-gradient-fitness-68"/><linearGradient id="linear-gradient-15-fitness-68" x1="815.41" y1="1966.21" x2="675.69" y2="1886.43" xlink:href="#linear-gradient-fitness-68"/><linearGradient id="linear-gradient-16-fitness-68" x1="795.4" y1="2114.24" x2="866.41" y2="2056.82" gradientTransform="translate(-471 2323.65) scale(1 -1)" xlink:href="#linear-gradient-fitness-68"/></defs><g id="background_fitness-68"><path class="cls-2_fitness-68 targetColor" d="M434.88,336.05c.16,4.67.08,9.35-.24,14.02-.9,13.27-3.71,26.34-8.33,38.82-3.22,8.66-7.56,17.33-14.9,22.93-10.65,8.13-25.13,8.23-38.49,9.1-72.61,4.74-142.91,42.42-214.82,31.35-29.32-4.4-75.61-18.64-95.95-41.76-11.46-12.98-12.59-38.49-13.1-60.48-.21-9.33-.31-18.02-1.04-24.85-4.73-44.24-8.5-92.66,16.2-129.7,21.15-31.72,59.57-48.89,79.97-81.07,11.35-17.93,16.82-40.13,32.68-54.21,14.03-12.48,33.57-16.25,52.25-18.48,19.92-2.38,40.67-3.47,59.51,3.4,18.84,6.87,33.79,20.87,48.31,34.56l67.44,63.64c12.45,11.74,25.32,24.13,31.02,40.27,9.96,28.14-4.39,58.58-5.85,88.44-1.09,21.37,4.6,42.57,5.35,64.05Z" style="fill: rgb(104, 225, 253);"/><path class="cls-10_fitness-68 targetColor" d="M434.64,350.04c-.9,13.27-3.71,26.34-8.33,38.82-3.22,8.66-7.56,17.33-14.9,22.93-10.65,8.13-25.13,8.23-38.49,9.1-72.61,4.74-142.91,42.42-214.82,31.35-29.32-4.4-75.61-18.64-95.95-41.76-11.46-12.98-12.59-38.49-13.1-60.48l385.59.05Z" style="fill: rgb(104, 225, 253);"/><path class="cls-1_fitness-68" d="M394.28,365.87c4.8-.07,11.28.94,11.28,4.38,0,2.06-2.6,3.58-4.96,4.77l-44.43,22.39c-8.61,4.34-17.46,8.76-27.63,10.74-9.25,1.8-19.01,1.46-28.58,1.1l-237.48-8.81c-1.93.05-3.85-.26-5.67-.89-6.55-2.82-.66-10.02,5.73-12.99,31.69-14.74,71.65-15.76,109.4-16.38,74.06-1.12,148.31-4.3,222.34-4.3Z"/></g><g id="character_fitness-68"><path class="cls-20_fitness-68" d="M132.02,335.23c3.29,7.11,7.46,13.79,12.4,19.87,1.95,2.37,4.53,4.83,7.57,4.49.65,0,1.24-.37,1.52-.96.08-.51-.03-1.02-.32-1.45l-5.9-11.54c-1.64-3.38-3.48-6.66-5.49-9.83-1.44-2.16-4.17-7.03-6.91-7.68-4.57-1.1-4.03,4.63-2.87,7.09Z"/><path class="cls-20_fitness-68" d="M279.08,333.82c7.7-1.44,15.2-3.84,22.31-7.13,2.78-1.31,5.79-3.2,6.21-6.24.16-.63-.05-1.3-.55-1.71-.47-.21-1-.23-1.48-.05l-12.64,2.87c-3.67.76-7.29,1.74-10.85,2.92-2.46.87-7.85,2.32-9.15,4.81-2.17,4.18,3.47,5.04,6.14,4.53Z"/><path class="cls-21_fitness-68" d="M211.03,270.44c-.25.86-.5,1.72-.75,2.58l-6.41,22.28c-.28,1.19-.75,2.32-1.39,3.36-.69.88-1.52,1.65-2.46,2.28-14.64,10.65-31.02,18.6-47.29,26.5l-.9.43c-1.3.69-2.76,1.05-4.23,1.02-1.8-.14-3.63-1.64-3.46-3.41.14-1.51,1.53-2.55,2.76-3.45,6.55-4.78,11.64-11.17,17.03-17.2,5.4-6.03,11.34-11.85,18.78-15.02,1.54-.66,3.28-1.29,4.09-2.71.44-.79.72-1.67.82-2.57.56-3.46.82-6.95,1.54-10.38.82-3.99,1.82-7.66,6.13-8.66,5.18-1.29,10.67-.26,15.03,2.83.37.23.66.57.82.97.07.39.02.78-.12,1.15Z"/><path class="cls-12_fitness-68" d="M210.28,272.99l-6.41,22.28c-.28,1.19-.75,2.32-1.39,3.36-.69.88-1.52,1.65-2.46,2.28-14.64,10.65-31.02,18.6-47.29,26.5l-.9.43c-.75-.06-1.51-.15-2.27-.26,2.73-4.34,7.27-7.14,11.46-10.15,4.96-3.73,9.73-7.71,14.28-11.93l11.12-9.96c1.95-1.57,3.64-3.45,4.99-5.56.76-1.47,1.33-3.02,1.7-4.63,1.15-4.46,1.26-18.69,6.34-20.47,3.38-1.2,7.21,6.43,10.83,8.12Z"/><path class="cls-19_fitness-68" d="M188.34,241.88c-1.29,7.88-1.84,15.87-1.64,23.85-.04.81.11,1.62.44,2.37.51.76,1.21,1.37,2.04,1.77,7.55,4.33,16.09,6.62,24.8,6.64,1.03.2,2.02-.47,2.21-1.5,0-.02,0-.05.01-.07,1.09-2.87,2.08-5.79,2.96-8.75.62-1.66.86-3.44.71-5.2-.38-2.5-2.22-4.5-3.96-6.32l-16.71-17.5c-1.9-1.99-4.26-5.95-7.2-4.03-2.46,1.56-3.24,6.16-3.67,8.74Z"/><path class="cls-13_fitness-68" d="M188.34,241.88c-1.29,7.88-1.84,15.87-1.64,23.85-.04.81.11,1.62.44,2.37.51.76,1.21,1.37,2.04,1.77,7.55,4.33,16.09,6.62,24.8,6.64,1.03.2,2.02-.47,2.21-1.5,0-.02,0-.05.01-.07,1.09-2.87,2.08-5.79,2.96-8.75.62-1.66.86-3.44.71-5.2-.38-2.5-2.22-4.5-3.96-6.32l-16.71-17.5c-1.9-1.99-4.26-5.95-7.2-4.03-2.46,1.56-3.24,6.16-3.67,8.74Z"/><path class="cls-21_fitness-68" d="M279.84,318.61c-.49.41-1.09.66-1.72.74-1.84.36-3.72.46-5.58.29-.46-.01-.92-.13-1.33-.36-.49-.4-.85-.93-1.03-1.54-.89-1.99-1.67-4.03-2.32-6.12-.23-.78-.48-1.56-.75-2.32-2.83-8.19-7.58-15.61-11.46-23.36-1.56-3.1-3.02-6.38-3.19-9.83-.01-2.25.24-4.5.77-6.69-6.12-.45-12.11-2.02-17.67-4.62-.82-1.84-.84-3.93-.05-5.78.72-1.37,1.63-2.64,2.69-3.77l.77-.86,6.23-6.86c.11-.15.27-.27.44-.34.33-.06.66.02.93.23.88.52,1.7,1.13,2.58,1.64,4.79,2.92,9.41,6.1,13.84,9.54,1.68,1.22,3.21,2.63,4.55,4.22,1.51,2.05,2.67,4.33,3.43,6.76,5.04,14.53,3.85,30.65,8.95,45.15.46,1.29.89,2.92-.08,3.88Z"/><path class="cls-11_fitness-68" d="M268.6,310.3c-.56-.24-1.07-.57-1.5-1-2.83-8.19-7.58-15.61-11.46-23.36-1.56-3.1-3.02-6.38-3.19-9.83-.01-2.25.24-4.5.77-6.69-6.12-.45-12.11-2.02-17.67-4.62-.82-1.84-.84-3.93-.05-5.78.72-1.37,1.63-2.64,2.69-3.77,1.84-.97,4.03-1,5.89-.07,2.6,1.12,5.12,2.34,7.75,3.4,2.13.86,4.56,1.95,5.36,4.3.52,1.53.18,3.22.38,4.82.19,1.2.53,2.36,1.02,3.47,1.7,4.37,3.4,8.73,5.09,13.1,1.51,3.64,2.77,7.37,3.79,11.18,1.19,4.85,1.57,9.86,1.11,14.84Z"/><path class="cls-21_fitness-68" d="M269.97,199.16c-.41,1.26-1.33,2.28-2.53,2.83-2.46,1.01-5.12-.47-7.33-1.88l-10.47-6.71c-3.13-2.01-6.31-4.09-8.75-6.85-.5-.65-1.09-1.23-1.75-1.71-.88-.45-1.83-.73-2.82-.82-.72-.13-1.44-.29-2.15-.47-4.19-1.07-8.1-3.03-11.46-5.73-1.82-1.32-3.24-3.12-4.09-5.2-.95-2.77-.27-5.29.82-7.83s1.74-5.27,3.87-7.37c2.13-2.16,5.1-3.27,8.12-3.04,4.2.41,7.58,3.61,10.14,6.98,2.56,3.35,4.66,7.02,6.23,10.93.24.78.65,1.5,1.19,2.1.57.46,1.21.81,1.91,1.03,5.42,2.2,9.95,6.11,13.68,10.65,1.06,1.28,2.05,2.6,2.98,3.96.47.69.93,1.38,1.34,2.11.76,1.25,1.25,2.64,1.45,4.09.11,1-.01,2.01-.37,2.95Z"/><path class="cls-21_fitness-68" d="M294.25,171.25c-.92.92-2.04,1.63-3.28,2.06-.75.23-1.46.57-2.11.99-.52.43-.97.94-1.33,1.51-.59.82-1.16,1.64-1.74,2.46-1.01,1.45-1.99,2.92-2.95,4.41-3.09,4.82-5.95,9.83-9.87,14.01-.86.98-1.88,1.81-3.01,2.46-2.23,1.27-5.06.69-6.6-1.37-1.24-1.63-1.7-3.73-1.28-5.73.35-1.98,1.1-3.86,2.19-5.54.09-.14.18-.28.29-.42,1.29-1.8,2.73-3.48,4.32-5.03l11.18-11.54c.52-.56.66-.71.51-1.41-.22-.7-.49-1.39-.82-2.06-.34-.65-.49-1.38-.43-2.1.13-.72.86-1.38,1.55-1.15.3.1.57.34.88.34s.68-.43.87-.82c.59-1.39,1.52-2.62,2.7-3.56,1.25-.82,3.17-.88,4.09.29.21.27.36.59.59.82.58.51,1.29.85,2.05,1,.77.15,1.42.65,1.79,1.34.16.44.08.93.22,1.38.18.43.42.82.73,1.17,1.4,2.01,1.18,4.74-.52,6.5Z"/><path class="cls-17_fitness-68" d="M285.8,178.28c-1.01,1.45-1.99,2.92-2.95,4.41-3.09,4.82-5.95,9.83-9.87,14.01-.86.98-1.88,1.81-3.01,2.46-.41,1.26-1.33,2.28-2.53,2.83-2.46,1.01-5.12-.47-7.33-1.88l-10.47-6.71c-3.13-2.01-6.31-4.09-8.75-6.85-.5-.65-1.09-1.23-1.75-1.71-.88-.45-1.83-.73-2.82-.82-.72-.13-1.44-.29-2.15-.47.23-1.5.63-2.97,1.2-4.38.53-1.61,1.4-3.08,2.55-4.32,4.17-3.99,8.48,3.07,11.42,5.78,4.2,3.87,8.45,7.69,12.75,11.46l.93.82c.55.57,1.24.99,2.01,1.22,1.47.29,2.8-.82,3.86-1.93l.05-.05,16.22-16.67c.95.46.92,1.73.64,2.83Z"/><path class="cls-22_fitness-68 targetColor" d="M241.88,187.83c-.82,4.09-3.2,7.75-4.8,11.59-3.39,8.11-3.28,17.24-2.39,25.99.33,3.39-.21,6.25-3.33,8.05-1.46.82-3.28.68-4.91.47-8.19-1.03-16.7-2.84-23.46-7.37-1.22-.82-2.37-1.73-3.46-2.72-3.71-3.42-3.78-7.15-2.35-11.73,1.72-5.59,2.31-11.47,1.71-17.29-.78-7.48-3.49-14.63-5.09-21.98-.83-3.61-1.22-7.3-1.15-11.01,0-.52,0-1.03.08-1.54.22-3.32,1.13-6.55,2.68-9.49,4.54-7.95,13.69-12.08,22.65-10.21,7.27,1.64,13.92,6.81,18.02,12.92,4.51,6.71,6.24,14.86,6.44,22.85.18,3.83-.03,7.67-.63,11.46Z" style="fill: rgb(104, 225, 253);"/><path class="cls-18_fitness-68" d="M215.43,226.71c-.71,1.64-2.62,2.46-4.4,2.46-1.78-.12-3.52-.59-5.13-1.38-.98-.4-1.98-.82-2.95-1.29-1.22-.82-2.37-1.73-3.46-2.72-3.71-3.42-3.78-7.15-2.35-11.73,1.72-5.59,2.31-11.47,1.71-17.29-.78-7.48-3.49-14.63-5.09-21.98-.83-3.61-1.22-7.3-1.15-11.01,1.21-.73,2.48-1.34,3.8-1.84,4.05-1.55,13.78-4.96,15.56.82,1.86,6.22-.97,14.66-.39,21.18.3,3.43-2.11,24.01-1.51,27.4,1.85,10.38,5.39,3.76,5.73,14.3.1,1.04-.03,2.08-.38,3.06Z"/><path class="cls-19_fitness-68" d="M195.69,220.13c.13-.39.37-.74.68-1.02.32-.19.69-.29,1.06-.28,2.37-.13,4.68.66,6.91,1.45l10.25,3.57c5.14,1.8,10.39,3.62,15.84,3.81,1.3.04,2.83.1,3.57,1.18s.2,2.59-.82,3.37c-1.07.71-2.32,1.1-3.6,1.12-5.34.5-10.72-.15-15.79-1.91-3.08-1.06-6-2.53-9.06-3.64-2.76-.98-5.67-1.5-8.6-1.53-1.43,0-1.64-.72-1.57-2.26.13-1.35.51-2.66,1.12-3.87Z"/><path class="cls-16_fitness-68" d="M195.69,220.13c.13-.39.37-.74.68-1.02.32-.19.69-.29,1.06-.28,2.37-.13,4.68.66,6.91,1.45l10.25,3.57c5.14,1.8,10.39,3.62,15.84,3.81,1.3.04,2.83.1,3.57,1.18s.2,2.59-.82,3.37c-1.07.71-2.32,1.1-3.6,1.12-5.34.5-10.72-.15-15.79-1.91-3.08-1.06-6-2.53-9.06-3.64-2.76-.98-5.67-1.5-8.6-1.53-1.43,0-1.64-.72-1.57-2.26.13-1.35.51-2.66,1.12-3.87Z"/><path class="cls-21_fitness-68" d="M210.58,141.15l.2.06c2.03.49,4.02,1.11,5.96,1.87,1.12.41,2.17.99,3.1,1.74.76.65,1.36,1.46,2.15,2.06.99.91,2.51.91,3.5,0,.94-.84,1.42-2.07,1.28-3.32-.47-2.72,1.18-6.03,1.02-7.56-.32-3.11-2.36-3.17-4.39-5.56-1.81-2.13-4.56-4.58-7.37-2.74-1.88,1.26-2.32,2.8-2.78,4.91-.36,1.48-.85,2.92-1.47,4.31-.49,1.17-1.51,2.33-1.64,3.59-.03.17,0,.35.08.5.1.09.22.14.34.16Z"/><path class="cls-14_fitness-68" d="M221.94,137.92c.7,1.7,1.7,3.41,3.33,4.25.23.14.5.21.77.18.5-.09.75-.65.88-1.14.51-1.86.6-3.9,1.64-5.51.26-.39.59-.82.48-1.29-.08-.24-.22-.46-.41-.62-1.57-1.49-3.55-2.48-5.68-2.83-2.06-.2-2.39,1.37-2.15,3.06.21,1.34.59,2.65,1.14,3.89Z"/><path class="cls-21_fitness-68" d="M239.77,115.09c0,2.55.12,5.32,1.77,7.27.47.57,1.11,1.15,1.05,1.9-.08.93-1.15,1.37-1.87,1.97-1.54,1.29-1.52,3.62-1.52,5.63s-.38,4.42-2.21,5.26c-.67.25-1.38.37-2.1.34-2.67.16-5.35-.12-7.93-.82-2.59-.73-4.86-2.32-6.43-4.5-.91-1.35-1.45-2.94-2.46-4.24s-2.55-2.37-3.54-3.8c-1.4-2.07-1.57-4.73-.45-6.96.1-.24.27-.44.49-.58.82-.39,1.76.86,2.51.39-.19-4.98,2.6-9.59,7.09-11.73,4.14-1.88,8.35-.93,12.19,1.11,3.69,1.92,3.46,4.88,3.4,8.76Z"/><path class="cls-19_fitness-68" d="M239.98,106.21c1.32-1.09,2.49-2.34,3.5-3.73-1.28-.21-2.58-.33-3.88-.34.74-.41,1.39-.97,1.92-1.64-1.07-.28-2.17-.46-3.28-.51.25-.32.48-.82.19-1.07-.08-.06-.17-.11-.27-.14-3.4-1.4-6.98-2.3-10.64-2.68-3.98-.29-7.98.41-11.63,2.03-3.6,1.64-6.98,4.36-8.03,8.19-1.09,3.96.49,8.07,1.51,12.05.92,3.6,1.37,7.3,1.94,10.98,0,.66.3,1.29.82,1.71.78.43,1.69-.19,2.36-.77l1.89-1.64c.38-.27.67-.64.86-1.06.29-.91-.44-1.79-1.01-2.58-1.38-1.93-1.89-4.35-1.38-6.67.04-.32.2-.61.43-.82.51-.38,1.28.05,1.53.63.18.61.28,1.25.29,1.88.03.65.43,1.22,1.04,1.46.56-1.35.28-2.88.27-4.35-.03-6.09,4.68-11.16,10.75-11.59,1.92-.15,3.84.38,5.4,1.5,1.82,1.17,3.64.52,5.41-.85Z"/><path class="cls-21_fitness-68" d="M212.53,164.01c-1.6,2.2-3.89,3.81-6.5,4.58-1.45.49-2.93.85-4.44,1.08-4.18.67-8.44.77-12.64.29-1.53-.43-3.17.06-4.23,1.25-4.44,3.7-9.93,5.85-15.62,7.02-1.7.35-3.41.61-5.13.82-2.28.25-4.68.38-6.81-.47s-3.92-2.96-3.69-5.25c.25-2.62,2.83-4.3,5.12-5.58,3.61-2.03,7.23-4.06,10.85-6.08,3.28-1.82,6.55-3.65,10.16-4.5.81-.13,1.6-.38,2.33-.74.81-.56,1.52-1.28,2.07-2.1,3.14-3.99,7.24-7.11,11.91-9.1,2.03-.99,4.3-1.39,6.55-1.16,2.89.46,4.79,2.25,6.51,4.42s3.83,4.02,4.71,6.88c.9,2.91.47,6.06-1.17,8.62Z"/><path class="cls-21_fitness-68" d="M168.63,177.82c1.1,2.11,1.99,4.33,2.65,6.62l4.91,15.3c.47,1.48,1.74,1.64,2.96,2.46,1.39.91,2.66,1.99,3.79,3.21.16.16.29.35.37.56.16.53-.29,1.05-.75,1.35s-1,.59-1.2,1.11c-.27.68.2,1.42.67,1.98.56.49.88,1.2.88,1.95-.14.75-.92,1.18-1.64,1.38-.76.11-1.48.39-2.11.82-.24.25-.5.48-.77.69-.99.59-2.25-.43-3.39-.21-.25.07-.5.15-.75.25-1.42.48-2.5-.11-3.63-.88s-2.15-1.48-2.65-2.93c-.38-1.25-.48-2.56-.29-3.85.15-.77.19-1.55.12-2.33-.14-.66-.37-1.29-.7-1.88-1.23-2.49-2.52-4.95-3.87-7.37-2.79-5-5.87-9.89-7.71-15.31-.68-1.99-1.17-4.23-.27-6.13.76-1.5,2.18-2.56,3.83-2.87,4.09-.84,7.67,2.83,9.53,6.1Z"/><path class="cls-19_fitness-68" d="M193.92,244.8c3.52,7.37,10.18,12.73,17.25,16.78,6.44,3.69,13.36,6.48,20.55,8.29.6.2,1.24.24,1.86.11.69-.3,1.26-.81,1.64-1.47,4.69-6.53,8.73-13.5,12.07-20.81.38-.66.56-1.42.53-2.18-.25-.97-.85-1.82-1.68-2.39l-7.57-6.62c-1.56-1.5-3.33-2.77-5.25-3.76-1.89-.73-3.85-1.28-5.85-1.64-5.19-1.29-10-3.68-14.89-5.8-3.91-1.7-9.53-4.69-13.96-4-9.25,1.42-7.47,17.71-4.7,23.48Z"/><path class="cls-15_fitness-68" d="M193.92,244.8c3.52,7.37,10.18,12.73,17.25,16.78,6.44,3.69,13.36,6.48,20.55,8.29.6.2,1.24.24,1.86.11.69-.3,1.26-.81,1.64-1.47,4.69-6.53,8.73-13.5,12.07-20.81.38-.66.56-1.42.53-2.18-.25-.97-.85-1.82-1.68-2.39l-7.57-6.62c-1.56-1.5-3.33-2.77-5.25-3.76-1.89-.73-3.85-1.28-5.85-1.64-5.19-1.29-10-3.68-14.89-5.8-3.91-1.7-9.53-4.69-13.96-4-9.25,1.42-7.47,17.71-4.7,23.48Z"/><path class="cls-19_fitness-68" d="M150.99,327.73c-.66-.22-1.36-.25-2.01-.46-1.74-.53-2.9-2.13-3.78-3.72-.19-.41-.47-.78-.82-1.07-.75-.45-1.7-.41-2.42.1-.69.51-1.35,1.06-1.98,1.64-1.02.65-2.07,1.25-3.15,1.79-1.1.55-1.91,1.56-2.2,2.75-.06.99.16,1.97.64,2.84,4.01,9.09,9.3,17.56,15.71,25.15.34.38.75.82,1.26.75.34-.07.65-.27.86-.55,1.88-2.07,2.76-4.86,2.4-7.63-.38-2.78-1.98-5.23-2.97-7.86-.9-2.39-1.29-4.94-1.16-7.49.11-1.88,1.98-5.44-.37-6.24Z"/><path class="cls-19_fitness-68" d="M277.73,313.67c-.35.59-.53,1.27-.87,1.88-.88,1.58-2.69,2.39-4.42,2.92-.44.1-.86.29-1.22.56-.59.65-.74,1.58-.39,2.38.35.78.74,1.54,1.17,2.28.42,1.14.79,2.29,1.1,3.46.31,1.19,1.13,2.18,2.24,2.72.96.26,1.97.25,2.92-.04,9.72-2.03,19.1-5.45,27.84-10.15.45-.24.95-.57,1-1.07,0-.35-.13-.69-.36-.95-1.63-2.27-4.18-3.71-6.97-3.94-2.8-.2-5.53.82-8.31,1.28-2.52.38-5.1.24-7.57-.41-1.79-.48-4.88-3.04-6.15-.91Z"/><path class="cls-6_fitness-68" d="M150.99,327.73c-.66-.22-1.36-.25-2.01-.46-1.74-.53-2.9-2.13-3.78-3.72-.19-.41-.47-.78-.82-1.07-.75-.45-1.7-.41-2.42.1-.69.51-1.35,1.06-1.98,1.64-1.02.65-2.07,1.25-3.15,1.79-1.1.55-1.91,1.56-2.2,2.75-.06.99.16,1.97.64,2.84,4.01,9.09,9.3,17.56,15.71,25.15.34.38.75.82,1.26.75.34-.07.65-.27.86-.55,1.88-2.07,2.76-4.86,2.4-7.63-.38-2.78-1.98-5.23-2.97-7.86-.9-2.39-1.29-4.94-1.16-7.49.11-1.88,1.98-5.44-.37-6.24Z"/><path class="cls-3_fitness-68" d="M277.73,313.67c-.35.59-.53,1.27-.87,1.88-.88,1.58-2.69,2.39-4.42,2.92-.44.1-.86.29-1.22.56-.59.65-.74,1.58-.39,2.38.35.78.74,1.54,1.17,2.28.42,1.14.79,2.29,1.1,3.46.31,1.19,1.13,2.18,2.24,2.72.96.26,1.97.25,2.92-.04,9.72-2.03,19.1-5.45,27.84-10.15.45-.24.95-.57,1-1.07,0-.35-.13-.69-.36-.95-1.63-2.27-4.18-3.71-6.97-3.94-2.8-.2-5.53.82-8.31,1.28-2.52.38-5.1.24-7.57-.41-1.79-.48-4.88-3.04-6.15-.91Z"/><path class="cls-4_fitness-68" d="M210.68,147.04c-.52.45-1.14.96-1.79.76-.24-.08-.46-.21-.65-.38-1.63-1.27-3.42-2.32-5.32-3.14-.4-.17-.9-.55-.68-.93.07-.1.16-.18.26-.24,1.74-1.12,3.6-2.06,5.54-2.78.33-.15.68-.23,1.04-.25.45.04.88.17,1.27.38,1.08.51,5.73,2.01,5.33,3.21s-5,1.88-5,3.37Z"/><path class="cls-5_fitness-68" d="M206.16,169.4c-.25.04-.5.07-.76.1-2.57.31-5.07.43-7.64.62-2.75.21-6.11.52-8.81-.16-1.53-.43-3.17.06-4.23,1.25-4.44,3.7-9.93,5.85-15.62,7.02-.1-.07-.19-.16-.28-.24-2.5-2.32,1.64-3.62,3.28-4.62,2.75-1.65,5.29-3.63,7.57-5.89.35-.39.76-.73,1.21-1,1.15-.61,2.54-.21,3.81.07,4.4.97,8.93.44,13.34-.16,4.02-.55,7.86-.65,11.13-3.4,2.32-1.94,3.92-4.72,4.43-7.7,1.08,1.72,1.11,3.96.48,5.89s-1.86,3.62-3.18,5.17c-.95,1.11-2.01,2.21-3.38,2.71-.44.16-.9.25-1.37.32Z"/></g><g id="treadmill_fitness-68"><path class="cls-19_fitness-68" d="M325.22,365.39h0c-4.8,0-7.94-3.78-7.01-8.43l24.97-125.82c1.14-4.83,5.39-8.29,10.36-8.43h0c4.79,0,7.93,3.78,7,8.43l-24.98,125.82c-1.14,4.82-5.38,8.28-10.33,8.43Z"/><path class="cls-9_fitness-68" d="M325.22,365.39h0c-4.8,0-7.94-3.78-7.01-8.43l24.97-125.82c1.14-4.83,5.39-8.29,10.36-8.43h0c4.79,0,7.93,3.78,7,8.43l-24.98,125.82c-1.14,4.82-5.38,8.28-10.33,8.43Z"/><rect class="cls-19_fitness-68" x="119.75" y="352.56" width="216.3" height="34.36" rx="13.96" ry="13.96"/><rect class="cls-19_fitness-68" x="115.03" y="352.56" width="191.1" height="34.36" rx="13.13" ry="13.13"/><path class="cls-8_fitness-68" d="M306.12,365.68v8.12c0,7.24-5.87,13.1-13.1,13.1h-164.87c-7.24,0-13.1-5.87-13.1-13.1v-8.12c0-7.24,5.87-13.1,13.1-13.1h164.85c7.24,0,13.1,5.87,13.1,13.1h.02Z"/><path class="cls-22_fitness-68 targetColor" d="M128.77,362.21h159.33c4.28,0,7.75,3.47,7.75,7.74h0c0,4.28-3.47,7.74-7.75,7.74h-159.33c-4.28,0-7.75-3.47-7.75-7.74h0c0-4.28,3.47-7.74,7.75-7.74Z" style="fill: rgb(104, 225, 253);"/><polygon class="cls-19_fitness-68" points="393.36 195.76 360.99 234.64 282.3 234.64 261.55 228.01 259.09 227.23 258.27 220.99 334.77 217.19 357.56 191.69 366.38 192.57 382.24 194.13 393.36 195.76"/><polygon class="cls-7_fitness-68" points="393.36 195.76 360.99 234.64 282.3 234.64 261.55 228.01 261.5 227.6 338 223.8 366.38 192.57 393.36 195.76"/><path class="cls-19_fitness-68" d="M324.9,226.32c0,.55-.06,1.1-.16,1.64l-24.99,125.78c-.04.2-.09.41-.15.61-2-1.17-4.28-1.79-6.6-1.79h-10.36l24.74-124.6c1.14-4.83,5.39-8.3,10.35-8.43,4.22-.02,7.17,2.92,7.17,6.8Z"/></g></svg>