<?xml version="1.0" encoding="utf-8"?>
<!-- Generator: Adobe Illustrator 27.5.0, SVG Export Plug-In . SVG Version: 6.00 Build 0)  -->
<svg version="1.1" id="Capa_1" xmlns="http://www.w3.org/2000/svg" xmlns:xlink="http://www.w3.org/1999/xlink" x="0px" y="0px"
	 viewBox="0 0 2122 2122" style="enable-background:new 0 0 2122 2122;" xml:space="preserve">
<g>
	<path style="fill:#EFDCD5;" d="M1618.094,1573.087c-26.263,4.759-52.241,11.106-77.784,19.067
		c-5.696,1.775-8.109-7.141-2.455-8.904c26.131-8.144,52.735-14.611,79.633-19.431c-1.611-18.128-5.609-36.95-11.554-56.088
		c-24.425,22.797-50.033,44.301-76.82,64.315c-4.767,3.562-9.365-4.457-4.66-7.973c27.376-20.454,53.508-42.516,78.35-65.961
		c-8.532-24.984-20.111-50.35-33.577-75.198c-15.924,44.946-35.902,88.356-59.786,129.632c-2.979,5.147-10.954,0.493-7.973-4.66
		c23.85-41.216,43.812-84.518,59.591-129.448c0.702-1.999,2.303-2.936,3.971-3.103c-23.646-42.265-52.395-82.71-80.441-116.842
		c11.4,18.077,21.136,37.202,29.066,57.13c2.201,5.531-6.733,7.91-8.903,2.455c-7.938-19.952-17.804-39.106-29.431-57.16
		c-10.077-15.648-21.463-30.419-34.053-44.127c-6.044-6.581-12.801-14.335-21.592-17.15c-9.939-3.183-16.126,3.761-21.18,11.318
		c-7.387,11.044-14.936,22.038-21.178,33.786c-7.942,14.943-13.277,30.898-16.845,47.414c-0.307,1.42-1.75,2.986-3.224,3.224
		c-5.385,0.871-10.737,1.999-16.067,3.154c-70.953,15.371-141.222,42.666-200.649,84.754c-1.541,1.091-4.399,0.729-5.595-0.722
		c-30.211-36.66-76.548-57.552-123.948-56.054c-10.509,44.001-15.755,89.009-15.598,134.26c0.021,5.952-9.213,5.94-9.233,0
		c-0.164-47.167,5.453-94.198,16.682-140.008c0.499-2.039,2.459-3.277,4.451-3.389c49.592-2.792,99.218,18.32,131.696,55.838
		c19.918-13.84,40.953-25.984,62.784-36.548c33.897-16.402,69.467-29.405,105.773-39.355c14.703-4.03,29.621-7.783,44.671-10.361
		c4.485-19.499,11.638-38.067,21.881-55.305c3.865-6.505,8.069-12.795,12.266-19.088c4.339-6.502,8.381-13.87,14.798-18.575
		c7.184-5.267,14.542-5.39,21.506-2.89c-46.678-47.601-85.826-90.65-114.645-158.392c-33.753-79.349-27.398-169.177-61.423-248.267
		c-31.759-73.823-90.759-135.411-160.895-173.97c-97.73-53.729-226.088-73.585-336.431-41.898c0.801,2.807,1.571,5.627,2.42,8.415
		c1.736,5.707-7.179,8.124-8.904,2.455c-0.827-2.718-1.583-5.456-2.366-8.187c-12.579,3.966-24.927,8.554-36.92,13.926
		c1.839,4.285-4.838,7.851-8.19,3.895c-24.449,11.779-47.453,26.563-68.286,44.745C493.364,790.472,454.918,994.993,489.443,1162.65
		c31.268,151.839,169.559,314.509,313.13,426.915c-0.107-0.517-0.2-1.037-0.356-1.547l-0.326-0.93
		c-0.064-0.15-0.185-0.44-0.244-0.558l-0.687-1.221c-0.039-0.064-0.31-0.456-0.454-0.674c-0.166-0.193-0.494-0.592-0.549-0.652
		l-1.044-1.024c-1.848-1.687-1.705-4.824,0-6.529c1.82-1.819,4.688-1.68,6.529,0c2.97,2.711,5.094,6.398,5.994,10.317
		c0.744,3.242,0.767,6.623,0.215,9.915c35.221,27.015,70.627,50.928,104.729,70.844c-2.215-10.701-4.415-21.338-6.749-31.809
		c-1.292-5.798,7.612-8.252,8.903-2.455c2.997,13.448,5.802,26.947,8.686,40.429c1.907,1.075,3.836,2.213,5.733,3.261
		c23.766,13.135,39.947,33.85,53.981,56.304c67.199-15.476,134.315-31.313,201.467-46.988c5.79-1.352,8.238,7.553,2.455,8.904
		c-66.283,15.472-132.533,31.097-198.86,46.382c8.141,13.657,15.757,27.679,23.986,40.831c6.982,11.157,15.288,21.3,24.585,30.565
		c49.706-30.127,99.412-60.255,149.119-90.382c5.1-3.091,9.735,4.897,4.66,7.973c-48.953,29.671-97.906,59.341-146.859,89.012
		c11.315,10.178,23.936,19.149,37.615,26.89c89.22,50.49,221.949,49.92,310.262,8.88c-0.401-3.467,4.374-6.92,7.959-3.914
		c0.015,0.012,0.028,0.024,0.042,0.036c8.466-4.308,16.498-8.987,23.954-14.072c55.984-38.186,102.578-67.514,135.985-106.656
		c-1.193-0.86-2.392-1.741-3.583-2.595c-4.792-3.436-0.177-11.441,4.66-7.973c1.592,1.141,3.156,2.324,4.742,3.474
		c24.64-31.266,41.251-69.071,47.974-122.161C1618.258,1592.274,1618.507,1582.783,1618.094,1573.087z"/>
	<path style="fill:#332F28;" d="M1401.165,1233.984c-6.417,4.705-10.46,12.073-14.798,18.575
		c-4.198,6.293-8.401,12.583-12.266,19.088c-10.243,17.238-17.396,35.806-21.881,55.305c-15.05,2.578-29.969,6.332-44.671,10.361
		c-36.306,9.95-71.876,22.953-105.773,39.355c-21.832,10.564-42.866,22.708-62.784,36.548
		c-32.479-37.517-82.104-58.629-131.696-55.838c-1.993,0.112-3.952,1.35-4.451,3.389c-11.229,45.81-16.846,92.841-16.682,140.008
		c0.021,5.94,9.254,5.952,9.233,0c-0.157-45.25,5.089-90.259,15.598-134.26c47.399-1.498,93.736,19.394,123.948,56.054
		c1.196,1.451,4.054,1.813,5.595,0.722c59.427-42.088,129.697-69.383,200.649-84.754c5.33-1.155,10.681-2.283,16.067-3.154
		c1.474-0.238,2.918-1.804,3.224-3.224c3.568-16.516,8.903-32.471,16.845-47.414c6.243-11.748,13.792-22.742,21.178-33.786
		c5.054-7.557,11.241-14.501,21.18-11.318c8.791,2.815,15.548,10.57,21.592,17.15c12.59,13.709,23.976,28.479,34.053,44.127
		c11.626,18.054,21.493,37.209,29.431,57.16c2.17,5.455,11.104,3.076,8.903-2.455c-7.929-19.929-17.666-39.053-29.066-57.13
		c-10.786-17.104-23.055-33.274-36.793-48.231c-6.58-7.165-15.473-15.704-25.128-19.169
		C1415.707,1228.594,1408.349,1228.716,1401.165,1233.984z"/>
	<ellipse style="fill:#332F28;" cx="1243.39" cy="1612.305" rx="20.184" ry="27.785"/>
	<path style="fill:#332F28;" d="M1407.661,1507.603c-11.147,0-20.184,12.44-20.184,27.785s9.037,27.785,20.184,27.785
		s20.184-12.44,20.184-27.785S1418.807,1507.603,1407.661,1507.603z"/>
	<path style="fill:#332F28;" d="M1392.507,1669.108c0.833-0.114-0.482,0.027-0.646,0.039c-0.468,0.033-0.936,0.054-1.404,0.062
		c-1.011,0.017-2.023-0.025-3.029-0.123l-0.694-0.075l0.076-0.002c-0.46-0.08-0.917-0.164-1.373-0.263
		c-0.912-0.198-1.813-0.441-2.702-0.725c-1.911-0.612-2.697-0.948-4.68-2.065c-0.82-0.461-1.62-0.959-2.396-1.489
		c-0.98-0.669-0.949-0.646-1.692-1.27c-3.072-2.585-4.913-4.78-6.723-8.057c-0.025-0.044-0.042-0.093-0.066-0.137
		c-0.225-3.601-0.848-7.189-2.007-10.676c0.145-0.106,0.311-0.177,0.453-0.287c8.056-6.303,6.461-14.349,8.217-23.137
		c1.213-6.069-7.203-6.484-7.203-6.484c-12.208,3.628-26.656,8.643-33.828,20.239c-2.735,4.422,0.099,8.068,4.164,10.326
		c5.326,2.958,12.188,4.249,18.509,3.264c0.451,3.244,1.398,6.382,2.757,9.342c0.04,14.262-8.825,28.894-22.326,33.741
		c-2.345,0.843-3.921,3.145-3.224,5.679c0.623,2.268,3.321,4.071,5.679,3.225c14.249-5.116,24.221-17.693,27.626-31.846
		c0.592,0.557,1.175,1.122,1.807,1.638c7.751,6.327,17.202,9.353,27.161,7.986c2.473-0.339,3.822-3.503,3.224-5.679
		C1397.454,1669.667,1394.987,1668.768,1392.507,1669.108z"/>
	<path style="fill:#332F28;" d="M1188.402,1686.249c-67.152,15.676-134.268,31.512-201.467,46.988
		c-1.806,0.416-3.61,0.843-5.417,1.259c-5.788,1.331-3.339,10.236,2.455,8.903c2.676-0.616,5.348-1.248,8.024-1.864
		c66.327-15.285,132.576-30.91,198.86-46.382C1196.64,1693.802,1194.192,1684.897,1188.402,1686.249z"/>
	<path style="fill:#332F28;" d="M1189.686,1722.549c-49.706,30.127-99.412,60.255-149.119,90.382
		c-0.113,0.069-0.227,0.137-0.34,0.206c-5.075,3.076-0.44,11.064,4.66,7.973c0.867-0.525,1.733-1.051,2.599-1.576
		c48.953-29.671,97.907-59.341,146.859-89.012C1199.421,1727.445,1194.786,1719.458,1189.686,1722.549z"/>
	<path style="fill:#332F28;" d="M1201.271,1751.899c-27.208,33.595-54.416,67.189-81.624,100.783
		c-3.708,4.578,2.786,11.15,6.529,6.529c27.208-33.595,54.416-67.189,81.624-100.783
		C1211.507,1753.85,1205.013,1747.278,1201.271,1751.899z"/>
	<path style="fill:#332F28;" d="M1561.062,1418.439c-15.779,44.93-35.742,88.232-59.591,129.448
		c-2.981,5.153,4.995,9.807,7.973,4.66c23.884-41.276,43.862-84.686,59.786-129.632c0.24-0.676,0.498-1.345,0.736-2.022
		c1.266-3.605-1.946-5.856-4.933-5.557C1563.365,1415.503,1561.764,1416.44,1561.062,1418.439z"/>
	<path style="fill:#332F28;" d="M1529.115,1572.047c26.787-20.014,52.394-41.518,76.82-64.315
		c10.164-9.486,20.179-19.134,29.901-29.09c4.154-4.254-2.369-10.789-6.529-6.529c-8.648,8.857-17.503,17.506-26.501,25.999
		c-24.842,23.446-50.974,45.507-78.35,65.961C1519.75,1567.589,1524.348,1575.608,1529.115,1572.047z"/>
	<path style="fill:#332F28;" d="M1702.091,1554.206c-28.399,1.381-56.66,4.607-84.602,9.613
		c-26.898,4.819-53.502,11.287-79.633,19.431c-5.655,1.762-3.241,10.678,2.455,8.904c25.543-7.961,51.521-14.308,77.784-19.067
		c27.73-5.025,55.78-8.276,83.997-9.648C1708.006,1563.152,1708.041,1553.917,1702.091,1554.206z"/>
	<path style="fill:#332F28;" d="M1395.365,1855.304c0.105,0.909,0.483,1.82,1.43,2.614c26.664,22.357,54.088,46.285,73.8,75.273
		c8.986,13.214,18.976,30.841,14.096,47.412c-2.062,7.003-6.825,12.526-12.405,17.051c-4.616,3.745,1.952,10.242,6.529,6.529
		c37.102-30.094,1.402-77.159-22.158-102.888c-16.443-17.957-34.653-34.241-53.292-49.869c-0.014-0.012-0.028-0.024-0.042-0.036
		C1399.739,1848.384,1394.963,1851.837,1395.365,1855.304z"/>
	<path style="fill:#332F28;" d="M1455.686,1964.209c-2.079-1.378-5.108-0.41-6.316,1.656c-1.322,2.259-0.427,4.935,1.656,6.316
		c5.431,3.601,8.524,10.387,8.805,16.855c0.307,7.059-1.951,13.513-7.522,18.115c-1.924,1.589-1.645,4.884,0,6.529
		c1.903,1.903,4.6,1.592,6.529,0C1474.033,2001.13,1471.776,1974.876,1455.686,1964.209z"/>
	<path style="fill:#332F28;" d="M1418.091,1984.376c2.709,4.843,5.244,9.736,6.968,14.919c0.606,1.82,1.119,3.675,1.467,5.563
		l0.123,0.744c0.023,0.168,0.067,0.494,0.076,0.624c0.055,0.784,0.11,1.563,0.104,2.35c-0.005,0.623-0.196,1.365-0.112,1.969
		c-0.008,0.036-0.007,0.026-0.016,0.069l-0.164,0.812c-0.136,0.603-0.304,1.198-0.502,1.784l-0.226,0.626
		c-0.981,1.931-2.052,3.751-3.255,5.557c-1.383,2.076-0.406,5.11,1.656,6.317c2.263,1.324,4.93,0.424,6.316-1.656
		c3.157-4.737,5.489-9.657,5.536-15.476c0.081-10.205-5.161-20.209-10-28.86C1423.163,1974.529,1415.184,1979.179,1418.091,1984.376
		z"/>
	<path style="fill:#332F28;" d="M1411.414,2016.913c-18.147,5.01-43.802-2.947-46.786-23.833
		c-1.194-8.352,1.138-16.803,4.234-24.485c0.932-2.313-1.016-5.072-3.224-5.68c-2.636-0.724-4.743,0.903-5.679,3.224
		c-5.639,13.991-7.658,31.024,1.823,43.889c7.672,10.411,19.89,15.719,32.467,17.194c6.522,0.765,13.281,0.343,19.62-1.407
		C1419.588,2024.237,1417.16,2015.326,1411.414,2016.913z"/>
	<path style="fill:#332F28;" d="M909.631,1635.698c2.333,10.47,4.534,21.108,6.749,31.809
		c11.18,54.024,22.734,109.812,53.727,155.683c17.902,26.495,42.397,47.19,72.25,58.944c20.59,8.106,42.908,11.34,64.467,15.853
		c25.727,5.385,51.406,11.199,77.229,16.104c22.079,4.193,44.567,5.717,66.633,9.945c22.921,4.392,43.997,12.935,62.23,27.723
		c4.575,3.711,11.147-2.783,6.529-6.529c-15.196-12.325-32.23-21.371-51.113-26.594c-18.193-5.032-37.077-6.867-55.733-9.347
		c-24.248-3.222-48.072-8.641-71.997-13.649c-24.83-5.198-49.939-9.691-74.58-15.716c-32.059-7.838-60.058-25.406-80.581-51.296
		c-19.896-25.098-32.089-55.54-41.236-85.953c-6.829-22.706-12.026-45.827-16.984-69.001c-2.884-13.482-5.689-26.982-8.686-40.429
		C917.243,1627.446,908.339,1629.9,909.631,1635.698z"/>
	<path style="fill:#332F28;" d="M1559.721,1728.104c1.191,0.854,2.39,1.735,3.583,2.595c32.745,23.587,66.31,49.504,90.52,82.073
		c10.979,14.77,22.948,34.52,18.761,53.819c-1.691,7.793-5.903,14.404-11.57,19.924c-4.264,4.154,2.268,10.68,6.529,6.529
		c39.043-38.034-7.292-91.134-35.968-118.513c-19.441-18.562-40.7-35.16-62.453-50.926c-1.586-1.149-3.15-2.333-4.742-3.474
		C1559.544,1716.663,1554.929,1724.668,1559.721,1728.104z"/>
	<path style="fill:#332F28;" d="M1644.415,1850.972c-2.078-1.378-5.108-0.409-6.317,1.656c-1.321,2.259-0.428,4.935,1.656,6.317
		c5.431,3.601,8.524,10.387,8.805,16.855c0.307,7.06-1.951,13.513-7.522,18.114c-1.923,1.589-1.645,4.884,0,6.529
		c1.903,1.903,4.6,1.593,6.529,0C1662.762,1887.893,1660.505,1861.639,1644.415,1850.972z"/>
	<path style="fill:#332F28;" d="M1620.156,1863.652c-4.238-4.172-10.772,2.352-6.529,6.529c9.599,9.449,11.296,24.852,4.591,36.329
		c-11.462,5.281-24.745,7.294-36.57,1.922c-9.423-4.282-16.897-12.478-20.514-22.156c-2.061-5.516-10.989-3.128-8.904,2.454
		c4.552,12.182,13.5,22.673,25.503,28.011c15.169,6.746,31.55,4.339,46.156-2.699c1.348-0.649,2.054-1.641,2.28-2.719
		C1635.156,1896.421,1632.564,1875.866,1620.156,1863.652z"/>
	<path style="fill:#332F28;" d="M811.436,1586.747c-0.899-3.918-3.024-7.606-5.994-10.317c-1.841-1.68-4.709-1.819-6.529,0
		c-1.705,1.705-1.848,4.842,0,6.529l1.044,1.024c0.055,0.059,0.384,0.459,0.549,0.652c0.145,0.218,0.415,0.61,0.454,0.674
		l0.687,1.221c0.059,0.118,0.18,0.408,0.244,0.558l0.326,0.93c0.156,0.509,0.249,1.029,0.356,1.547
		c0.034,0.163,0.08,0.324,0.112,0.489c0.033,0.212,0.09,0.57,0.1,0.706l0.055,1.243c0.011,0.841-0.052,1.669-0.115,2.505
		c-0.001,0.007,0,0.003-0.001,0.01l-0.094,0.551l-0.224,1.065c-0.208,0.886-0.468,1.759-0.777,2.615
		c-0.054,0.151-0.287,0.7-0.313,0.779l-0.455,0.954c-0.387,0.751-0.815,1.481-1.282,2.185l-0.62,0.885
		c0.673-0.955-0.248,0.287-0.4,0.46c-0.545,0.622-1.129,1.211-1.748,1.76c-0.059,0.052-0.451,0.366-0.644,0.526
		c-0.22,0.147-0.596,0.406-0.657,0.445c-0.588,0.375-1.207,0.687-1.833,0.989c-0.185,0.066-0.704,0.281-0.849,0.326l-1.02,0.284
		c-0.171,0.041-0.885,0.151-0.967,0.18c-0.341,0.028-0.682,0.059-1.024,0.071c-2.493,0.083-4.617,2.063-4.617,4.617
		c0,2.437,2.113,4.7,4.617,4.617c11.623-0.388,20.005-10.273,21.831-21.165C812.203,1593.37,812.18,1589.99,811.436,1586.747z"/>
	<path style="fill:#332F28;" d="M762.719,1570.661c-1.978-1.522-5.171-0.303-6.317,1.656c-1.393,2.382-0.327,4.791,1.656,6.317
		c1.931,1.486,3.821,3.82,5.217,6.333c0.852,1.533,1.158,2.254,1.626,3.645c0.525,1.562,0.924,3.172,1.178,4.8
		c0.014,0.096,0.029,0.201,0.036,0.266l0.107,1.237c0.054,0.825,0.074,1.652,0.06,2.479c-0.032,1.814-0.108,2.52-0.396,3.929
		c-0.62,3.043-1.443,5.067-2.977,7.473c-13.922-4.236-28.397-10.231-38.418-21.188c-1.717-1.877-2.669-3.091-4.072-5.329
		c-0.554-0.884-1.074-1.791-1.555-2.717c-0.263-0.507-0.507-1.023-0.754-1.538l-0.342-0.764l-0.006-0.036
		c-0.716-1.855-1.299-3.754-1.7-5.703l-0.231-1.237l-0.066-0.419c-0.095-0.855-0.171-1.711-0.206-2.571
		c-0.07-1.72,0.04-3.412,0.184-5.124c0.005-0.056,0.005-0.072,0.007-0.111c0.01-0.049,0.015-0.072,0.028-0.138l0.178-1.012
		c0.134-0.695,0.293-1.384,0.473-2.068c0.268-1.021,0.126-1.889-0.162-2.675c3.249-0.693,5.171-6.022,1.536-8.733
		c-87.72-65.421-176.409-135.295-232.045-231.507c-58.953-101.948-77.074-226.405-48.688-340.775
		c16.328-65.789,47.811-127.256,91.81-178.83c3.836-4.497-2.665-11.059-6.529-6.529c-79.772,93.505-117.433,217.234-105.542,339.405
		c5.826,59.866,22.844,118.716,50.467,172.181c25.209,48.792,59.327,92.357,98.046,131.132
		c44.549,44.612,94.665,83.203,145.102,120.858c-1.304,0.381-2.444,1.293-2.897,3.019c-1.878,7.165-1.592,14.982,0.846,21.977
		c4.038,11.587,12.973,20.424,23.201,26.832c8.958,5.613,18.972,9.501,29.054,12.559c1.981,0.601,3.528-0.123,4.517-1.344
		c1.967,0.521,3.986-0.322,5.167-2.047c4.683-6.843,5.966-15.312,4.677-23.391C773.685,1582.816,769.219,1575.662,762.719,1570.661z
		"/>
	<path style="fill:#332F28;" d="M730.452,1146.344c-4.242-18.416-10.986-36.186-19.919-52.834c-2.81-5.238-10.784-0.58-7.972,4.66
		c38.642,72.021,30.814,165.835-19.697,230.225c-3.627,4.623,2.863,11.202,6.529,6.529
		C730.717,1282.243,745.451,1211.456,730.452,1146.344z"/>
	<path style="fill:#332F28;" d="M732.93,1399.41c-3.551-4.668-11.573-0.073-7.973,4.66c38.92,51.159,71.793,106.69,97.924,165.42
		c2.411,5.418,10.37,0.726,7.973-4.66C804.723,1506.1,771.85,1450.569,732.93,1399.41z"/>
	<path style="fill:#332F28;" d="M703.508,625.175c-0.14-0.327-0.21-0.65-0.456-0.982c-39.545-53.18-58.977-118.848-58.845-184.845
		c0.132-66.161,19.569-132.463,57.209-187.062c37.281-54.081,91.888-95.375,152.39-120.275
		c60.535-24.914,127.444-34.336,192.45-26.197c69.169,8.66,143.983,37.87,182.188,99.577
		c18.284,29.532,27.963,65.764,21.775,100.378c-5.176,28.956-27.195,69.075-62.796,58.92c-26.967-7.692-40.703-40.682-53.007-63.007
		c-14.767-26.79-33.822-49.326-59.501-66.287c-51.411-33.957-118.775-42.193-176.972-22.297
		c-61.653,21.077-111.556,69.293-141.238,126.593c-35.304,68.152-40.767,147.86-27.689,222.555
		c2.896,16.537,6.787,32.871,11.413,49.002c0.783,2.731,1.539,5.468,2.366,8.187c1.725,5.669,10.64,3.252,8.904-2.455
		c-0.848-2.788-1.619-5.608-2.42-8.415c-21.688-76.031-25.809-158.993,2-233.998c23.406-63.13,70.994-118.966,133.147-146.356
		c59.431-26.191,130.599-20.927,185.112,14.682c13.326,8.705,25.411,19.268,35.727,31.396
		c10.006,11.764,17.395,25.118,24.768,38.608c12.624,23.097,27.481,52.863,54.936,60.695c32.102,9.157,58.165-17.544,68.689-45.208
		c12.312-32.364,8.908-69.618-3.908-101.252c-27.848-68.734-95.959-107.716-165.37-123.828
		c-64.97-15.081-133.802-12.028-197.575,7.205c-63.429,19.129-122.445,54.431-166.965,103.768
		c-44.926,49.788-72.827,112.878-81.715,179.202c-8.824,65.843,0.987,134.491,31.209,193.921
		c7.389,14.531,16.022,28.374,25.748,41.453c0.07,0.094,0.166,0.129,0.24,0.216C698.669,633.026,705.347,629.46,703.508,625.175z"/>
	<path style="fill:#332F28;" d="M1080.214,1413.243c-14.105-10.531-37.032-22.476-51.315-5.33
		c-5.534,6.643-7.832,15.197-8.291,23.706c-0.6,11.105,2.319,22.259,0.585,33.329c-0.388,2.48,0.636,4.938,3.224,5.679
		c2.188,0.626,5.294-0.764,5.679-3.224c1.569-10.016,0.078-19.812-0.271-29.847c-0.256-7.356,0.452-15.068,4.451-21.45
		c10.109-16.134,30.513-2.925,41.278,5.111c2.013,1.503,5.137,0.311,6.316-1.656
		C1083.273,1417.219,1082.202,1414.727,1080.214,1413.243z"/>
	<path style="fill:#332F28;" d="M1418.164,1271.634c-1.788-0.693-4.361,0.441-5.214,2.122c-7.042,13.885-14.085,27.77-21.127,41.654
		c-2.682,5.288,5.281,9.967,7.973,4.66c6.423-12.663,12.845-25.325,19.268-37.988c13.026,6.252,23.039,18.191,26.976,32.085
		c1.617,5.707,10.529,3.282,8.903-2.455C1449.733,1293.324,1435.92,1278.516,1418.164,1271.634z"/>
	<path style="fill:#332F28;" d="M982.403,1562.255c-7.622,40.943-11.261,82.503-10.755,124.149c0.072,5.938,9.305,5.953,9.233,0
		c-0.496-40.824,2.954-81.555,10.426-121.694C992.387,1558.901,983.491,1556.411,982.403,1562.255z"/>
</g>
</svg>
