<svg version="1.1" id="Layer_1" xmlns="http://www.w3.org/2000/svg" xmlns:xlink="http://www.w3.org/1999/xlink" x="0px" y="0px" viewBox="0 0 500 500" style="width: 188px;" xml:space="preserve" data-imageid="music-66" imageName="Music" class="illustrations_image">
<style type="text/css">
	.st0_music-66{fill:#AED4ED;}
	.st1_music-66{fill:#D4E7F7;}
	.st2_music-66{fill:#68E1FD;}
	.st3_music-66{opacity:0.13;fill:#2A343D;enable-background:new    ;}
	.st4_music-66{fill:#3B0459;}
	.st5_music-66{opacity:0.18;fill:#D4E7F7;enable-background:new    ;}
	.st6_music-66{fill:#EF986C;}
	.st7_music-66{fill:#FE6162;}
	.st8_music-66{fill:#2A343D;}
	.st9_music-66{fill:#FDECE2;}
	.st10_music-66{opacity:0.32;fill:url(#SVGID_1_);enable-background:new    ;}
	.st11_music-66{opacity:0.32;fill:url(#SVGID_00000086683301785333185470000005475531221044532105_);enable-background:new    ;}
	.st12_music-66{opacity:0.32;fill:url(#SVGID_00000180357807467395712030000009631708388913892742_);enable-background:new    ;}
	.st13_music-66{fill:#FAD0A0;}
	.st14_music-66{fill:#9B6D9C;}
	.st15_music-66{opacity:0.5;fill:#2A343D;enable-background:new    ;}
</style>
<g id="Base_music-66">
	<path class="st0_music-66" d="M433,289.7L237.8,178.2L70.2,277l-0.4-3.7l-19.5-1.6v17L260.5,410c-1.4-0.8,189.2-110.9,189.2-110.9v-17&#10;&#9;&#9;L433,289.7z"/>
	<path class="st1_music-66" d="M50.3,271.7L260.5,393c-1.4-0.8,189.2-110.9,189.2-110.9L237.8,161.3L50.3,271.7z"/>
</g>
<g id="CD_music-66">
	<ellipse class="st2_music-66 targetColor" cx="243.2" cy="275.6" rx="117.2" ry="69.7" style="fill: rgb(104, 225, 253);"/>
	<ellipse class="st3_music-66" cx="243.2" cy="275.6" rx="117.2" ry="69.7"/>
	<ellipse class="st1_music-66" cx="240.8" cy="270.4" rx="29.9" ry="17.8"/>
	<path class="st0_music-66" d="M240.8,284c-12.3,0-22.3-6.1-22.3-13.5s10-13.5,22.3-13.5s22.3,6.1,22.3,13.5S253.1,284,240.8,284z&#10;&#9;&#9; M240.8,258.3c-11.5,0-20.9,5.5-20.9,12.1s9.4,12.1,20.9,12.1s20.9-5.5,20.9-12.1S252.3,258.3,240.8,258.3L240.8,258.3z"/>
	<ellipse class="st4_music-66" cx="240.7" cy="269.6" rx="9.3" ry="6"/>
	<path class="st5_music-66" d="M207.1,280.6c0,0,8.2,11.3,30.4,11l-6,48.5c0,0-53.7-0.7-84-32.4L207.1,280.6z"/>
	<path class="st5_music-66" d="M240.7,248.7c0,0,21-0.8,27.8,10.5l52.2-32.4c0,0-34.5-21.3-89.2-16.6L240.7,248.7z"/>
</g>
<g id="Song_music-66">
	<path class="st4_music-66" d="M106.5,158.7v32.5c0,0.1-2.2,0.9-2.3,0.9c-1.7,0.7-3.1,1.8-4.4,3.1c-3.5,3.9-1.1,10.2,4.2,9.9&#10;&#9;&#9;c5.6-0.3,6.9-6.3,7.2-10.9v-33l21.9-11.5V144L106.5,158.7z"/>
	<path class="st4_music-66" d="M128.4,146.4v27.1c0,0.1-2.2,0.9-2.3,0.9c-1.7,0.7-3.1,1.8-4.4,3.1c-3.5,3.9-1.1,10.2,4.2,9.9&#10;&#9;&#9;c5.6-0.3,6.9-6.3,7.2-10.9v-31.4C131.6,145.5,130,145.9,128.4,146.4z"/>
	<path class="st4_music-66" d="M173.2,113.8v40c0,0.1-2.7,1.1-2.8,1.1c-2,0.9-3.9,2.2-5.4,3.8c-4.3,4.7-1.4,12.6,5.1,12.2&#10;&#9;&#9;c6.8-0.4,8.5-7.8,8.9-13.4V117l27-14.1v-7.2L173.2,113.8z"/>
	<path class="st4_music-66" d="M200.1,98.7V132c0,0.1-2.7,1.1-2.8,1.1c-2,0.9-3.9,2.2-5.4,3.8c-4.3,4.7-1.4,12.6,5.1,12.2&#10;&#9;&#9;c6.8-0.4,8.5-7.8,8.9-13.5V97.1C204,97.5,202.1,98,200.1,98.7z"/>
</g>
<g id="Character_music-66">
	<path class="st6_music-66" d="M275,139.9c0.2-0.5-0.1-1-0.5-1.1c0,0,0,0,0,0c-0.1,0-0.3,0-0.5,0l-1.1,0.2v-0.1c0.2-0.2,0.2-0.5,0.2-0.7&#10;&#9;&#9;c0.3-0.4,0.2-0.9-0.2-1.2c-0.2-0.1-0.4-0.2-0.7-0.2c-5.4,1-11,1.3-16.5,0.8c-1-0.1-2.1-0.2-3.2-0.2l-2.4-0.2h-0.6&#10;&#9;&#9;c-0.5,0-0.8,0.4-0.8,0.9c0,0.5,0.4,0.8,0.8,0.8l0,0c0.1,0.4,0.4,0.6,0.8,0.7l1,0.1c-0.1,0.3-0.1,0.6,0.1,0.8&#10;&#9;&#9;c0.1,0.1,0.1,0.2,0.2,0.3c0.1,0.1,0.3,0.2,0.4,0.2h0.3c2.4,0.5,4.7,0.8,7.1,1c-1.1,0.6-1.9,1.5-2.5,2.6c-0.2,0.4-0.1,1,0.3,1.2&#10;&#9;&#9;c0,0,0,0,0,0c0.3,0.1,0.6,0.1,0.8,0c2-1.1,4-2.1,6-3c3.8,0.6,7.6,0.2,11.2-1.1C276.3,141.2,275.9,139.6,275,139.9z"/>
	<circle class="st7_music-66" cx="299.7" cy="103.6" r="3.6"/>
	<path class="st1_music-66" d="M254.3,234.3c-1,0.9-5.1,2.6-4.4,6.3c0.9,4.8,10.9,2.9,10.9,2.9l12.5-5l11.7-17l-9.8-3.3l-8.9,12.9"/>
	<path class="st8_music-66" d="M275.3,218.2c-0.4,0.8-8.5,10.3-10.5,11.6s-10,3.1-10.5,4.6s4.2,6.1,4.2,6.1s11.3-2.8,13.1-4.1&#10;&#9;&#9;c1.1-0.8,2.1-1.8,3-2.8l9-13"/>
	<path class="st1_music-66" d="M302,249.2c-0.3,1.4-2.7,5,0,7.7c3.4,3.4,10.6-3.8,10.6-3.8l7.4-11.2v-20.7l-10,2.8v15.7"/>
	<path class="st8_music-66" d="M310,224c0.2,0.9-1.2,13.3-2.1,15.5s-6.5,8.2-6,9.7s7,2.6,7,2.6s7.7-8.8,8.4-10.8c0.4-1.3,0.7-2.6,0.9-4v-15.7&#10;&#9;&#9;"/>
	<path class="st9_music-66" d="M304.7,144.7c0,0-13.4,28.9-16.3,34.1c-2.4,4.3-18.3,38.6-23.4,49.6c3.9,3.9,9.5,5.7,14.9,4.9l36.4-69.5&#10;&#9;&#9;l6.8-19.6L304.7,144.7z"/>
	<path class="st9_music-66" d="M326.5,165.3c0.5-8.7-0.8-17.5-2-26.1c-0.8-2.7-1.4-4.7-1.4-4.7l-12.9,18.2c0,0-11.8,39.9-9.2,45.5&#10;&#9;&#9;s5.2,39,5.2,39s8.7,6.6,13.5-2.5c1.3-2.4-0.7-39.7-0.7-39.7S323.7,178.1,326.5,165.3z"/>
	<path class="st2_music-66 targetColor" d="M304.8,109.8c-0.8,0.2-6.9,1-9.8,5.3s-7.4,14-10.2,16.2s-16.8,4.2-16.8,4.2s-1.5,7,0.7,9.7s19-1.9,22.8-2.7&#10;&#9;&#9;s15.1-17.5,15.1-17.5" style="fill: rgb(104, 225, 253);"/>
	<path class="st2_music-66 targetColor" d="M322,112.6c-1.9-0.8-6.1-3.1-8.6-3c-3.9,0-7.8,0.3-11.6,0.9c-4.8,4.9-2.8,15.9-1.9,21.6&#10;&#9;&#9;c0.8,5.3,2.2,10.6,3.4,15.8c6.2,3.4,17.6-0.1,22.1-1.8C325.5,134.9,324.4,123.7,322,112.6z" style="fill: rgb(104, 225, 253);"/>
	<path class="st8_music-66" d="M313.2,92.4c-1.2-1.1-3.1-1.3-4.4-0.3c0-0.1-0.1-0.1-0.1-0.2c-1.1-0.8-1.7-1.8-3.1-1.9&#10;&#9;&#9;c-1.3-0.1-2.6,0.2-3.8,0.8c-1.1,0.5-2.1,1.5-2.5,2.6c-0.1,0-0.2,0-0.4,0c-2.8,0.6-4.5,3.3-4,6.1c0.5,2.3,2.8,4.6,5.2,4.3&#10;&#9;&#9;c1.2,0.2,2.5,0.2,3.7-0.2c0.8-0.2,1.2-1.1,1-1.8c-0.1-0.3-0.2-0.5-0.4-0.7l0.2-0.1h0.1c0.5,0.4,1.2,0.4,1.6-0.1l0.2-0.2&#10;&#9;&#9;c0.3-0.1,0.6-0.3,0.9-0.5h0.4v0.4c0,0.6,0.3,1.2,0.9,1.4c0.3,0.1,0.6,0.1,0.9,0c-0.5,1-1.2,1.9-2.1,2.7c-1.2,0.9-0.1,2.5,1.1,2.4&#10;&#9;&#9;c-0.5,0.5,0.2,3.2,0.8,2.7c3.1-2.5,5-6.2,5.3-10.2C314.6,98,314.7,93.7,313.2,92.4z"/>
	<path class="st6_music-66" d="M298.5,100.5c-0.4,0,1.6,11.3,6.4,11.3c6,0,7-7.4,7-7.4s0-5.3-4-6.4S302.8,100.6,298.5,100.5z"/>
	<path class="st8_music-66" d="M298.5,100.5c0,0,4.8,0,7.1-1.2s0.1,7.3,2,7s1-4.6,2.6-3.2s-1,7-1,7s4.5-3.4,4.9-7.9s-5.8-7.6-11-6.3&#10;&#9;&#9;S298.5,100.5,298.5,100.5z"/>
	<path class="st8_music-66" d="M303.1,197.4c-0.4-6.5,1.6-13.2,2.8-19.6l3.9-20.1c0.2-1.1-1.4-1.5-1.6-0.5l-3.9,20.1c-1.1,6-3,12.2-2.9,18.4&#10;&#9;&#9;s1.7,12.1,2.5,18c1,7.2,1.8,14.4,2.2,21.7c0.1,1.1,1.8,1.1,1.7,0c-0.4-6.5-1.1-13-1.9-19.5C305.1,209.8,303.5,203.6,303.1,197.4z"/>
	<path class="st6_music-66" d="M315.7,107.8c0,0-0.1-6-0.8-5.8s-0.9,2.3-1.1,3.7l-1-2.4c0,0-1.8-3.1-3-2.8s-1.3,5-1.3,5.9s4.1,5.4,4.1,5.4&#10;&#9;&#9;l1.5-2.2l0.1,1L315.7,107.8z"/>
	<path class="st2_music-66 targetColor" d="M315.7,107.8c1.5-0.8,18.5,16,16,23.5s-23.2-12.1-23.2-12.1S312.2,109.7,315.7,107.8z" style="fill: rgb(104, 225, 253);"/>
	<circle class="st7_music-66" cx="311" cy="102.3" r="3.6"/>
	<path class="st7_music-66" d="M305.5,90.5c-4.5-0.7-6.5,1.4-7.5,3.1h0.1c0.3-0.1,0.6-0.2,0.9-0.3h0.2c0.8-0.5,1.6-0.8,2.5-0.9&#10;&#9;&#9;c7.4,0.2,8,8.2,8,8.2l2.3-0.1C312.1,100.6,312.7,91.6,305.5,90.5z"/>
	<path class="st3_music-66" d="M308.5,119.2c0,0,9.3,10.7,16.3,12.5v9.5C324.8,141.2,312.1,126.6,308.5,119.2z"/>
</g>
<g id="Shadow_music-66">
	
		<linearGradient id="SVGID_1_-music-66" gradientUnits="userSpaceOnUse" x1="380.0125" y1="-1806.1281" x2="389.9225" y2="-1820.2081" gradientTransform="matrix(1 0 0 1 0 2101.04)">
		<stop offset="0" style="stop-color:#2A343D;stop-opacity:0"/>
		<stop offset="0.99" style="stop-color:#2A343D"/>
	</linearGradient>
	<polyline class="st10_music-66" points="417.5,284.7 384.4,304 356.3,285.5 382.5,269.6 &#9;"/>
	
		<linearGradient id="SVGID_00000041264861134362304180000001463024355737705873_-music-66" gradientUnits="userSpaceOnUse" x1="259.3003" y1="-1722.5498" x2="271.0703" y2="-1739.2798" gradientTransform="matrix(1 0 0 1 0 2101.04)">
		<stop offset="0" style="stop-color:#2A343D;stop-opacity:0"/>
		<stop offset="0.99" style="stop-color:#2A343D"/>
	</linearGradient>
	
		<polyline style="opacity:0.32;fill:url(#SVGID_00000041264861134362304180000001463024355737705873_);enable-background:new    ;" points="&#10;&#9;&#9;294.2,359.6 253.9,382 240.8,374.1 279.1,353 &#9;"/>
	
		<linearGradient id="SVGID_00000098919752286228514660000012924882400779455920_-music-66" gradientUnits="userSpaceOnUse" x1="75.8159" y1="-1820.5129" x2="83.7159" y2="-1831.7329" gradientTransform="matrix(1 0 0 1 0 2101.04)">
		<stop offset="0" style="stop-color:#2A343D;stop-opacity:0"/>
		<stop offset="0.99" style="stop-color:#2A343D"/>
	</linearGradient>
	
		<polyline style="opacity:0.32;fill:url(#SVGID_00000098919752286228514660000012924882400779455920_);enable-background:new    ;" points="&#10;&#9;&#9;101.7,269.6 79.5,286 60.9,275.8 87.1,259.9 &#9;"/>
</g>
<g id="Music_Player_music-66">
	<path class="st0_music-66" d="M181.3,255.5v11.4c0,0.4,0.3,0.7,0.7,0.7s0.7-0.3,0.7-0.7c0,0,0,0,0,0v-11.4c0-0.4-0.3-0.7-0.7-0.7&#10;&#9;&#9;C181.6,254.8,181.3,255.1,181.3,255.5C181.3,255.5,181.3,255.5,181.3,255.5z"/>
	<ellipse class="st0_music-66" cx="91.5" cy="266.6" rx="11" ry="5.7"/>
	<ellipse class="st0_music-66" cx="91.5" cy="254.4" rx="11" ry="5.7"/>
	<polyline class="st0_music-66" points="80.6,254.4 80.6,266.6 102.5,266.6 102.5,254.4 &#9;"/>
	<rect x="91.4" y="248.2" class="st13_music-66" width="94.7" height="8.8"/>
	<path class="st13_music-66" d="M186,248.2c0,0,4.9,4.5,0,8.8"/>
	<path class="st13_music-66" d="M91.4,248.2c0,0-4.1,5.5,0,8.8"/>
</g>
<g id="Button_music-66">
	<polyline class="st4_music-66" points="277.5,350.7 277.5,356.2 296.6,356.2 296.6,350.7 &#9;"/>
	<ellipse class="st4_music-66" cx="287" cy="356.2" rx="9.5" ry="5.5"/>
	<ellipse class="st14_music-66" cx="287" cy="350.7" rx="9.5" ry="5.5"/>
	<polyline class="st4_music-66" points="257.5,361.7 257.5,367.1 276.5,367.1 276.5,361.7 &#9;"/>
	<ellipse class="st4_music-66" cx="267" cy="367.1" rx="9.5" ry="5.5"/>
	<ellipse class="st14_music-66" cx="267" cy="361.7" rx="9.5" ry="5.5"/>
</g>
<g id="Plant_music-66">
	<path class="st2_music-66 targetColor" d="M413.1,249.4c-1-2.2-5.6-3.9-11.1-3.9s-10.3,1.8-11.2,4.1c-6.4,9-12.8,23.7-4.9,33.6c3.9,4.5,9.6,7.1,15.6,7h1&#10;&#9;&#9;c6,0.1,11.7-2.5,15.6-7C426.1,273.2,419.6,258.4,413.1,249.4z" style="fill: rgb(104, 225, 253);"/>
	<ellipse class="st15_music-66" cx="402.1" cy="250.4" rx="11.3" ry="4.8"/>
	<path class="st7_music-66" d="M415.2,209.3c-7,11.8-11.3,25.1-12.6,38.7c0-16.5-1.5-33-4.5-49.3c-0.1-0.6-1-0.3-0.9,0.2&#10;&#9;&#9;c3.4,18.2,4.9,36.7,4.5,55.1c0,0.2,0.2,0.4,0.4,0.4c0,0,0,0,0,0h0.1v0.4c0,0.3,0.3,0.4,0.5,0.4c0.2,0,0.4-0.2,0.4-0.4&#10;&#9;&#9;c0.3-15.9,4.7-31.5,12.8-45.2c0.1-0.2-0.1-0.5-0.3-0.6C415.5,209.2,415.3,209.2,415.2,209.3z"/>
	<path class="st7_music-66" d="M408.1,224.3c0,0,7-22.5,22-30.8c0,0-3,4.5-1.6,8.1s3.6,10.1-3.5,13.8s-11.2,0-10.5,7.1s3.4,10.5-1.1,14&#10;&#9;&#9;s-8.4,6.5-9.9,13.9C403.4,250.4,405.1,231.8,408.1,224.3z"/>
	<path class="st7_music-66" d="M401.4,221.9c0,0-2.9-34.5-9-43.3c0.5,3.3-0.1,6.7-1.7,9.7c-2.6,5-5.5,6.7-3.9,13.2s7.7,5.2,7.1,11.7&#10;&#9;&#9;s-5.7,5.3-3.2,13.5s11.3,13.6,11.3,13.6"/>
</g>
</svg>