<svg version="1.1" id="Layer_1" xmlns="http://www.w3.org/2000/svg" xmlns:xlink="http://www.w3.org/1999/xlink" x="0px" y="0px" viewBox="0 0 500 500" style="width: 188px;" xml:space="preserve" data-imageid="content-creation-55" imageName="Content Creation" class="illustrations_image">
<style type="text/css">
	.st0_content-creation-55{fill:#8383EA;}
	.st1_content-creation-55{fill:url(#SVGID_1_);}
	.st2_content-creation-55{fill:url(#SVGID_00000129171807433459112570000014020056040166191548_);}
	.st3_content-creation-55{fill:url(#SVGID_00000011032230447506581160000008610084319216431001_);}
	.st4_content-creation-55{fill:#EB4956;}
	.st5_content-creation-55{fill:#F4F4F4;}
	.st6_content-creation-55{fill:#68E1FD;}
	.st7_content-creation-55{fill:#C4E59E;}
	.st8_content-creation-55{fill:#124577;}
	.st9_content-creation-55{fill:#34323D;}
	.st10_content-creation-55{fill:#FCBF81;}
	.st11_content-creation-55{fill:#5F66FC;}
	.st12_content-creation-55{opacity:0.3;fill:#34323D;enable-background:new    ;}
	.st13_content-creation-55{fill:#297600;}
	.st14_content-creation-55{opacity:0.5;fill:#297600;enable-background:new    ;}
</style>
<g id="background_content-creation-55">
	<path class="st0_content-creation-55" d="M239.6,406L19,275.6c-7-3.9-13-10.4-6.2-14.7l221.4-127.6c3.3-2.1,8.4-3.4,11.7-1.4l231.5,134.4&#10;&#9;&#9;c7,4.1,8.3,15.5,1.3,19.5l-210,119.9C259.7,411,248.6,411.1,239.6,406z"/>
	
		<linearGradient id="SVGID_1_-content-creation-55" gradientUnits="userSpaceOnUse" x1="158.6668" y1="188.4193" x2="131.4468" y2="171.0693" gradientTransform="matrix(1 0 0 -1 0 502)">
		<stop offset="0" style="stop-color:#124577"/>
		<stop offset="1" style="stop-color:#8383EA;stop-opacity:0"/>
	</linearGradient>
	<path class="st1_content-creation-55" d="M190.3,294.1L123.5,326c0,0,2.2,3.3,14.5,8.5l54.3-32.3"/>
	
		<linearGradient id="SVGID_00000147205239531321922760000013013835329335976078_-content-creation-55" gradientUnits="userSpaceOnUse" x1="314.4698" y1="168.4803" x2="251.9998" y2="117.6303" gradientTransform="matrix(1 0 0 -1 0 502)">
		<stop offset="0" style="stop-color:#124577"/>
		<stop offset="1" style="stop-color:#8383EA;stop-opacity:0"/>
	</linearGradient>
	<path style="fill:url(#SVGID_00000147205239531321922760000013013835329335976078_);" d="M300.7,350l-66.8,31.9&#10;&#9;&#9;c0,0,0.4,1.7,12.7,6.8l58.9-30.6"/>
	
		<linearGradient id="SVGID_00000097481144700489846780000006848118072222893749_-content-creation-55" gradientUnits="userSpaceOnUse" x1="408.4364" y1="217.405" x2="369.8264" y2="189.555" gradientTransform="matrix(1 0 0 -1 0 502)">
		<stop offset="0" style="stop-color:#124577"/>
		<stop offset="1" style="stop-color:#8383EA;stop-opacity:0"/>
	</linearGradient>
	<polyline style="fill:url(#SVGID_00000097481144700489846780000006848118072222893749_);" points="433.8,287.4 375,321.2 &#10;&#9;&#9;350.8,305.1 403.9,276.1 &#9;"/>
</g>
<g id="phone_content-creation-55">
	<polyline class="st4_content-creation-55" points="229.3,74.1 237.5,77.8 229.6,81.2 227.7,77.1 &#9;"/>
	<path class="st4_content-creation-55" d="M154.7,314.6l68-39.6c5.6-3.2,9-9.2,9-15.7l2.2-180c0-4.7-7.3-7.1-11.4-4.7l-70.3,41.5&#10;&#9;&#9;c-3.5,2.1-5.7,5.9-5.7,10v183.7c0,3,2.5,5.5,5.5,5.5C152.9,315.3,153.9,315.1,154.7,314.6z"/>
	<polyline class="st4_content-creation-55" points="149.3,314.6 158.1,319.3 157.1,313.1 150.9,312 &#9;"/>
	<path class="st5_content-creation-55" d="M163.2,319.1l68-39.6c5.6-3.3,9-9.2,9-15.7V82.1c0-2.7-2.2-4.8-4.9-4.7c-0.8,0-1.6,0.2-2.3,0.6l-72.3,42.7&#10;&#9;&#9;c-3.5,2.1-5.7,5.9-5.7,10v183.6c0,3,2.5,5.5,5.5,5.5C161.5,319.8,162.4,319.6,163.2,319.1z"/>
	<polygon class="st6_content-creation-55 targetColor" points="159.3,141.8 236.7,97.4 236.7,256.3 159.3,301.1 &#9;" style="fill: rgb(104, 225, 253);"/>
	<polygon class="st7_content-creation-55" points="217.7,183.9 169.4,211.6 169.4,251.4 217.7,223.5 &#9;"/>
	<rect x="175.7" y="213.7" class="st0_content-creation-55" width="0.9" height="29.8"/>
	<rect x="187.4" y="207.4" class="st0_content-creation-55" width="0.9" height="29.8"/>
	<rect x="193.1" y="202.7" class="st0_content-creation-55" width="0.9" height="29.8"/>
	<rect x="203.3" y="197.9" class="st0_content-creation-55" width="0.9" height="29.8"/>
	<path class="st8_content-creation-55" d="M176.1,219.1c-0.7,0.1-1.2,0.7-1.1,1.3c0.1,0.6,0.5,1.1,1.1,1.1c0.7-0.1,1.2-0.7,1.1-1.3&#10;&#9;&#9;C177.2,219.6,176.7,219.1,176.1,219.1z"/>
	<path class="st8_content-creation-55" d="M187.8,225c-0.7,0-1.2,0.6-1.2,1.2c0,0.7,0.6,1.2,1.2,1.2s1.2-0.6,1.2-1.2C189.1,225.6,188.5,225,187.8,225z"/>
	<path class="st8_content-creation-55" d="M193.6,211.6c-0.7,0.1-1.2,0.7-1.1,1.3c0.1,0.6,0.5,1.1,1.1,1.1c0.7-0.1,1.2-0.7,1.1-1.3&#10;&#9;&#9;C194.6,212.1,194.2,211.6,193.6,211.6z"/>
	<path class="st8_content-creation-55" d="M203.3,215.3c-0.7,0-1.2,0.6-1.2,1.2c0,0.7,0.6,1.2,1.2,1.2s1.2-0.6,1.2-1.2&#10;&#9;&#9;C204.5,215.9,203.9,215.3,203.3,215.3L203.3,215.3z"/>
	<polygon class="st8_content-creation-55" points="188.8,227.1 175.8,219.6 176.5,218.5 188.2,225.3 193.2,212 202.9,215.8 209.5,198.2 210.7,198.7 &#10;&#9;&#9;203.6,217.3 193.9,213.6 &#9;"/>
	<polygon class="st8_content-creation-55" points="207.1,199.7 211.9,201.9 211.3,194.6 &#9;"/>
	<path class="st8_content-creation-55" d="M171.9,261.4l14.4-8.2l22.9-13.2l5.3-3c2.1-1.2,0.2-4.4-1.9-3.2l-14.4,8.2l-22.9,13.2l-5.3,3&#10;&#9;&#9;C167.9,259.4,169.8,262.5,171.9,261.4L171.9,261.4z"/>
	<path class="st8_content-creation-55" d="M171.9,270.7l14.4-8.2l22.9-13.2l5.3-3c2.1-1.2,0.2-4.4-1.9-3.2l-14.4,8.2l-22.9,13.1l-5.3,3&#10;&#9;&#9;C167.9,268.7,169.8,271.9,171.9,270.7L171.9,270.7z"/>
	<path class="st8_content-creation-55" d="M171.9,280.8l14.4-8.2l22.9-13.2l5.3-3c2.1-1.2,0.2-4.4-1.9-3.2l-14.4,8.2l-22.9,13.1l-5.3,3&#10;&#9;&#9;C167.9,278.7,169.8,281.9,171.9,280.8L171.9,280.8z"/>
	
		<ellipse transform="matrix(0.2323 -0.9727 0.9727 0.2323 -119.9784 418.673)" class="st9_content-creation-55" cx="205.2" cy="285.3" rx="4.8" ry="3.6"/>
	<path class="st9_content-creation-55" d="M208.1,105L208.1,105c0,0.6-0.3,1.2-0.9,1.5l-15,8.6c-0.8,0.5-1.9,0.2-2.4-0.6c-0.1-0.3-0.2-0.6-0.2-0.9v-0.4&#10;&#9;&#9;c0-0.6,0.3-1.2,0.9-1.5l15-8.2c0.8-0.5,1.9-0.2,2.4,0.7C208,104.4,208.1,104.7,208.1,105z"/>
	<ellipse transform="matrix(0.3471 -0.9378 0.9378 0.3471 46.1817 267.2065)" class="st9_content-creation-55" cx="215" cy="100.4" rx="2.3" ry="1.7"/>
</g>
<g id="stairs_content-creation-55">
	<path class="st9_content-creation-55" d="M266.5,186.7l39.9,168.4c1,4-5.3,5.8-6.2,1.7l-39.9-168.4C259.2,184.4,265.5,182.6,266.5,186.7L266.5,186.7z"/>
	<path class="st9_content-creation-55" d="M229.1,206.6L268.9,375c1,4-5.3,5.8-6.2,1.7l-39.9-168.4C221.8,204.3,228.1,202.6,229.1,206.6z"/>
	<path class="st9_content-creation-55" d="M270.6,213.3l-37.4,20.9c-3.6,2-6.9-3.6-3.3-5.6l37.4-20.9C271,205.7,274.3,211.2,270.6,213.3L270.6,213.3z"/>
	<path class="st9_content-creation-55" d="M274.5,236.7l-35.9,20c-3.6,2-6.9-3.6-3.3-5.6l35.9-20C274.9,229.1,278.1,234.6,274.5,236.7L274.5,236.7z"/>
	<path class="st9_content-creation-55" d="M278.9,255.6l-35.8,20c-3.6,2-6.9-3.6-3.3-5.6l35.8-20C279.2,248,282.5,253.6,278.9,255.6z"/>
	<path class="st9_content-creation-55" d="M284.5,276L249,295.8c-3.6,2-6.9-3.5-3.3-5.6l35.5-19.8C284.9,268.4,288.1,274,284.5,276L284.5,276z"/>
	<path class="st9_content-creation-55" d="M289.4,294.7l-35.6,19.9c-3.6,2-6.9-3.5-3.3-5.6l35.6-19.9C289.7,287.1,293,292.6,289.4,294.7L289.4,294.7z"/>
	<path class="st9_content-creation-55" d="M294.8,316.4l-37.4,20.9c-3.6,2-6.9-3.6-3.3-5.6l37.4-20.9C295.2,308.8,298.4,314.3,294.8,316.4L294.8,316.4z"/>
</g>
<g id="notification_content-creation-55">
	<path class="st7_content-creation-55" d="M186.4,144.8l80.9-46.4c3.6-2,8.1-0.8,10.2,2.8c0.6,1.1,1,2.4,1,3.7v31.6c0,2.7-1.4,5.1-3.7,6.4l-80.9,46.6&#10;&#9;&#9;c-3.6,2.1-8.1,0.8-10.2-2.7c-0.7-1.1-1-2.4-1-3.7v-31.9C182.7,148.6,184.1,146.1,186.4,144.8z"/>
	<ellipse transform="matrix(0.2889 -0.9574 0.9574 0.2889 -6.2532 310.028)" class="st5_content-creation-55" cx="205.6" cy="159.2" rx="14.8" ry="10"/>
	<path class="st8_content-creation-55" d="M224.4,141.1l14.4-8.2l22.9-13.2l5.3-3c2-1.2,0.2-4.4-1.9-3.2l-14.4,8.2l-23,13.1l-5.3,3&#10;&#9;&#9;C220.5,139,222.3,142.2,224.4,141.1L224.4,141.1z"/>
	<path class="st8_content-creation-55" d="M224.4,150.4l14.4-8.2l22.9-13.1l5.3-3c2-1.2,0.2-4.4-1.9-3.2l-14.4,8.2l-23,13.1l-5.3,3&#10;&#9;&#9;C220.5,148.3,222.3,151.5,224.4,150.4L224.4,150.4z"/>
	<path class="st8_content-creation-55" d="M224.4,160.4l14.4-8.2l22.9-13.2l5.3-3c2-1.2,0.2-4.4-1.9-3.2l-14.4,8.2l-23,13.2l-5.3,3&#10;&#9;&#9;C220.4,158.4,222.3,161.6,224.4,160.4L224.4,160.4z"/>
	<ellipse transform="matrix(0.2889 -0.9574 0.9574 0.2889 -2.8604 307.2058)" class="st8_content-creation-55" cx="205.4" cy="155.5" rx="7" ry="4.8"/>
	<path class="st8_content-creation-55" d="M213.2,166.7c0.1-0.2-1.5-7.3-5.9-6.9c-7.2,0.6-9.2,7.4-8.8,12c2.3,2,5.5,2.5,8.2,1.1&#10;&#9;&#9;C209.5,171.6,211.8,169.4,213.2,166.7z"/>
	
		<ellipse transform="matrix(0.2889 -0.9574 0.9574 0.2889 -11.293 281.3416)" class="st4_content-creation-55" cx="183.7" cy="148.3" rx="8.6" ry="6.6"/>
</g>
<g id="character_content-creation-55">
	<path class="st4_content-creation-55" d="M275.8,273.5c0,0-7.4-3.3-9.2-3.4s-4.8,0.5-2.2,3.8c0,0,7.8,5.1,8.8,5.3s3.5-0.6,3.6-0.4s0.3,2.2,0.3,2.2&#10;&#9;&#9;s6.5,2.5,6.8-1.9c0-0.6-0.9-8.7-0.9-8.7"/>
	<path class="st6_content-creation-55 targetColor" d="M284.4,254.4c-1.3-8.4-3.7-16.5-4.6-25c-0.6-5.4-1.1-10.7-1.7-16s-2.7-10.5-3.9-15.8c-0.1-0.3,0-0.5,0.3-0.7&#10;&#9;&#9;c-0.1-0.2-0.1-0.4-0.2-0.6c-0.7-0.6-1.3-1.2-2-1.8l-9.1,6.1c0,0,0.1,5.6,0.3,13.7c1.1,4.7,1.9,8.9,3.1,13.4&#10;&#9;&#9;c-0.3,0.3-0.4,0.7-0.3,1.1c3,14.1,5.1,28.4,6.5,42.7c0,0.5,0.4,0.9,0.8,1.1c0.1,0.7,0.2,1.5,0.3,2.2c7.9,3.1,9.7-2.3,9.7-2.3&#10;&#9;&#9;s0.4-4.5,0.8-10.9C284.4,259.2,284.4,256.8,284.4,254.4z" style="fill: rgb(104, 225, 253);"/>
	<path class="st10_content-creation-55" d="M231.9,174.1l-0.2,0.1c0.3-0.5,0.1-1.1-0.4-1.4c-0.1-0.1-0.2-0.1-0.3-0.1c-0.5-0.1-0.9-0.1-1.4-0.1&#10;&#9;&#9;c0,0-0.1-0.1-0.1-0.1c-0.2-0.1-0.3-0.2-0.5-0.2c-0.2-0.2-0.5-0.3-0.8-0.2l-0.3,0.1c-0.4,0-0.8,0-1.2,0l-1.5,0&#10;&#9;&#9;c-0.1-0.1-0.2-0.2-0.3-0.3c-2.3-1.9-4.5-3.9-6.5-6.1c-0.7-0.7-2.2,0.1-1.6,1.1c0.6,1.1,1.3,2.2,2.1,3.2c-2.4-1.7-3.6-1.9-5.9-3.8&#10;&#9;&#9;c-1-0.8-2,0.8-1.1,1.6c0.6,0.5,2.7,1.5,3.3,2c-1.1-0.7-3.7-1.9-4.8-2.6s-2.1,1-1.1,1.6c1.7,1,3.4,2.1,5.1,3.1&#10;&#9;&#9;c-1.4-0.6-2.9-1.1-4.3-1.8c-1.1-0.5-1.8,1.3-0.6,1.8c1.6,0.8,3.2,1.4,4.9,2c-1,0-2-0.1-2.9-0.3c-1.2-0.2-1.4,1.7-0.1,1.9&#10;&#9;&#9;c1,0.2,2,0.3,3,0.4c0.5,0.1,1,0.1,1.5,0.2c0.6,0,1.2,0.2,1.7,0.4c2.1,0.8,4.3,1.2,6.5,1.3l0.4,0.2c0.3,0.1,0.6,0.1,0.8-0.1&#10;&#9;&#9;c2.6,0,5.2-0.7,7.4-2.1C233.8,175.1,232.9,173.4,231.9,174.1z"/>
	<path class="st10_content-creation-55" d="M248,159.4c0.1-0.4-5.7,0-6.2,0c-3.1,0-6.2-0.2-9.2-0.5c-0.1,0-0.2,0-0.3,0c-0.6-0.1-1.2-0.1-1.8-0.1&#10;&#9;&#9;c-0.4,0-0.7,0.3-0.7,0.7c0,0.2,0.1,0.4,0.3,0.6c1.3,0.9,2.8,1.4,4.4,1.5c0.1,0.5,0.3,1,0.5,1.5c0.1,0,0.2,0,0.3,0.1&#10;&#9;&#9;c0.2,0.2,0.3,0.4,0.4,0.6c0.1,0.1,0.1,0.3,0.1,0.5c0,0.1,0,0.1,0,0.2c0.5,0.5,1.1,0.7,1.8,0.6c0.4,0.6,0.9,1,1.6,1.2h0.1&#10;&#9;&#9;c0,0,0.1-0.1,0.1-0.1c0.9-0.5,1.8-0.8,2.7-1.2c0.2,0,0.3,0.1,0.4,0.2c0,0,0,0.1,0,0.1c0.6-0.4,1.2-0.8,1.8-1.3&#10;&#9;&#9;c0.1-0.1,0.2-0.2,0.2-0.4c0.1,0,0.2,0,0.4-0.1c0.4-0.1,0.6-0.5,0.5-0.9c0-0.1-0.1-0.2-0.1-0.3c-0.1-0.1-0.1-0.1-0.2-0.2h0.4&#10;&#9;&#9;c0.3,0.3,0.8,0.3,1.2,0c0.3-0.3,0.3-0.8,0-1.2c-0.1-0.1-0.2-0.1-0.3-0.2h1c0.1,0,0.2-0.1,0.2-0.2c0,0,0-0.1-0.1-0.1&#10;&#9;&#9;c0,0,0-0.1,0-0.1c0.5,0,1.1,0.1,1.6,0.1C255.1,160.5,248.2,159.4,248,159.4z"/>
	<path class="st10_content-creation-55" d="M247.4,160.1c-0.9,0.3-1.8,0.5-2.8,0.4c-0.8-0.1-1.5,0.5-1.5,1.3c0,0,0,0,0,0c-0.3-0.2-0.7-0.3-1-0.5&#10;&#9;&#9;c-1.6-1-3.3,1.5-1.6,2.5c1.2,0.9,2.7,1.3,4.3,1.3c1.5-0.2,2.9-0.6,4.2-1.2c0.8-0.4,1-1.3,0.6-2.1c-0.1-0.2-0.2-0.3-0.4-0.5&#10;&#9;&#9;c0-0.1,0-0.1,0-0.2C249,160.5,248.2,159.9,247.4,160.1C247.4,160.1,247.4,160.1,247.4,160.1z"/>
	<path class="st9_content-creation-55" d="M245.6,164.4c-2.1,1-4.6,0.5-6.2-1.2c0,0-0.1-0.1-0.1-0.1l0,0l-2.1-0.1c-0.3,0-0.6,0-0.9-0.1&#10;&#9;&#9;c-0.5-0.1-2.2-0.9-0.9-1.6c0.7-0.1,1.4-0.2,2.1-0.1c0.7,0,1.4,0,2,0c0.1,0,0.2-0.1,0.2-0.2s-0.1-0.2-0.2-0.2c-1.2,0-2.5,0-3.8,0.1&#10;&#9;&#9;c-0.6,0-1.2,0.1-1.3,0.8c-0.1,0.5,0.2,1.1,0.7,1.3c0.2,0.4,0.3,1,0.7,1.4c0.4,0.3,1,0.4,1.5,0.4h0.3c0,0,0,0.1,0,0.1&#10;&#9;&#9;c0.4,0.5,0.7,1.2,1.4,1.1c0.3,0,0.6-0.1,0.8-0.3l1.3-0.6c0.1,0,0.1-0.1,0.1-0.2c0,0,0,0,0,0c1.4,0.5,3,0.4,4.4-0.2&#10;&#9;&#9;C246,164.7,245.8,164.4,245.6,164.4z M236.9,164.4c-0.5,0-0.8-0.3-1-0.7c-0.1-0.1-0.1-0.3-0.2-0.4c1.1,0.2,2.3,0.3,3.5,0.2l0.1,0.1&#10;&#9;&#9;c-0.1,0-0.1,0.1-0.1,0.2C239.1,164.8,237.5,164.6,236.9,164.4L236.9,164.4z M239.5,165.6c-0.3,0.2-0.7,0.1-0.9-0.1&#10;&#9;&#9;c-0.2-0.2-0.3-0.4-0.5-0.6c0.7-0.1,1.3-0.3,1.4-1c0.5,0.4,1,0.8,1.6,1C240.6,165.2,240.1,165.4,239.5,165.6L239.5,165.6z"/>
	<path class="st11_content-creation-55" d="M267.7,157.4c-1-0.4-23.7,2.4-25.5,2c0,4.2,2.6,8,6.5,9.5c0,0,16.5,3.3,21.7,0.7"/>
	<path class="st12_content-creation-55" d="M267.7,157.4c-1-0.4-23.7,2.4-25.5,2c0,4.2,2.6,8,6.5,9.5c0,0,16.5,3.3,21.7,0.7"/>
	<path class="st4_content-creation-55" d="M259.6,285.7l-4.4,1.6c-0.3,0.8-0.9,1.4-1.8,1.6c-0.2,0.2-0.4,0.3-0.6,0.3c-1.8,0.1-3.6-0.2-5.2-0.8&#10;&#9;&#9;c-2.1-0.7-10.4-3.8-8.1,2.1c1.5,1.1,3.2,2,4.7,2.9c0.9,0.5,1.7,1,2.6,1.5c0.5,0.3,1,0.6,1.5,0.7c1.2,0.2,4.1-0.7,4.1-0.4&#10;&#9;&#9;s0.3,2.6,0.3,2.6s7.5,2.9,7.8-2.2C260.7,295.1,259.6,285.7,259.6,285.7z"/>
	<path class="st6_content-creation-55 targetColor" d="M265.8,240.6c0.9-14.8,1.4-29.8,4.6-44.4c0.1-3.8,2.6-1.4,2.4-2.9c-1.3-12.2-19.1,2.3-19.1,2.3&#10;&#9;&#9;c-0.7,0.6-0.8,4.3-0.9,5.2c-0.8,4.7-1.5,9.4-2.1,14.1c-2.9,23.8-1.9,47.6-0.6,71.4c3.8,3.9,6.2,5,12.3,2.5&#10;&#9;&#9;c1.2-15.7,2.3-31.3,3.4-47C265.7,241.5,265.8,241.1,265.8,240.6z" style="fill: rgb(104, 225, 253);"/>
	<path class="st11_content-creation-55" d="M275.9,184.5c0.7-7.3,0.8-14.7,0.5-22.1c-0.1-1.9-0.7-6.7-2.6-7.8c-4.2-2.5-10.1-0.3-13.7,2.4&#10;&#9;&#9;c-4.8,3.5-7.5,36.2-7.5,44.2c6.6,2.6,15.1,3.6,21.8,0.8c0.6-0.2,0.7-8.3,0.8-9.2C275.4,190,275.7,187.3,275.9,184.5z"/>
	<path class="st9_content-creation-55" d="M262.3,173.9c-0.4,4.7-3.7,8.7-8.3,9.9c0,0.4-0.1,3.3-0.2,3.7c5.3-1.3,9.3-8,9.8-13.7&#10;&#9;&#9;C263.7,173,262.4,173,262.3,173.9z"/>
	<path class="st10_content-creation-55" d="M258.2,143.9c-0.4,0.2-2.5,9.3-0.1,14.2c2.4,4.9,10.1-2.1,11.6-6.4S266.1,140.2,258.2,143.9z"/>
	<path class="st4_content-creation-55" d="M258.6,145c0.3,1.6,1.5,2.9,3.1,3.2c2.6,0.4,4.8,0.7,4.8,1.8s-4.4,0.7-4,3.3c0.3,1.7,0.9,3.4,1.7,5&#10;&#9;&#9;c0.5,1.2,7.1-4,8.3-11.1s-5.2-7.7-5.5-7.7s-1.2-1.7-4.3-1.8S259,139,259,139c-1.5-0.6-3.3-0.1-4.2,1.3c-2.3,2.7-0.9,6.5,2.5,7.6&#10;&#9;&#9;L258.6,145z"/>
	<path class="st11_content-creation-55" d="M262.3,161.6c0,0-15.3,8.8-20.9,8.8c-4,0-11.9-1.3-16-2c-3.8,3.2-4,8.9-1.7,13.2c6.7,1.1,26.6,3.9,32.8,0.9&#10;&#9;&#9;c7.5-3.7,15.8-8.7,15.8-8.7S279.9,166.4,262.3,161.6z"/>
</g>
<g id="plant_content-creation-55">
	<polyline class="st6_content-creation-55 targetColor" points="399.4,260.3 399.4,282.5 435.3,282.5 435.3,260.3 &#9;" style="fill: rgb(104, 225, 253);"/>
	<ellipse class="st9_content-creation-55" cx="417.4" cy="260.3" rx="18" ry="8.9"/>
	<ellipse class="st6_content-creation-55 targetColor" cx="417.4" cy="283.4" rx="18" ry="8.9" style="fill: rgb(104, 225, 253);"/>
	<path class="st13_content-creation-55" d="M437.5,208.6c-3.8-1.6-9.1-6.7-13.6-6.6c-1.7,4.3-2.3,9.3-2.8,13.6c-0.9,7.6-1.1,15.2-0.5,22.8&#10;&#9;&#9;c0.1,1.7,0.2,3.4,0.4,5.1c0,0.5,0.2,1,0.4,1.4v17.6c0,0.3,0.3,0.6,0.6,0.6c0.3,0,0.6-0.3,0.6-0.6v-16.9c1.8-0.6,3.5-1.4,5.1-2.4&#10;&#9;&#9;c3.4-2.1,5.9-5.3,7.2-9.1c2.9-8.1,1.1-17.1,3.8-25.1C438.3,208.9,437.9,208.7,437.5,208.6z"/>
	<path class="st7_content-creation-55" d="M429.7,195.3c-2.1,1.3-3.9,3.1-5.1,5.2c-0.3,0.5-0.6,1-0.8,1.6l-0.1,0.3l0,0c-0.4,0.9-0.6,1.8-0.9,2.8&#10;&#9;&#9;c0.4-0.7,1.1-1.2,1.9-1.5c0.9-0.4,2-0.5,3-0.3c1,0.4,1.9,0.9,2.8,1.5c1.3,0.8,2.5,1.6,3.8,2.4c6,3.8,13.9,4.2,18.5-1.4&#10;&#9;&#9;c0.1-0.2,0.1-0.4,0.1-0.7C453.5,201.6,442.9,187.7,429.7,195.3z"/>
	<path class="st13_content-creation-55" d="M450.1,208.4c0.2-0.2,0.5-0.3,0.7-0.5c0-0.2,0-0.3-0.1-0.4c-3.6-3.7-7.5-7.3-12.4-9.1&#10;&#9;&#9;c-3.5-1.3-7.3-1.7-11.1-1.1c-0.4,0.5-0.8,0.9-1.1,1.4c4-1.3,9.1-0.5,12.7,1.1c4.4,1.9,7.8,5.2,11.1,8.5&#10;&#9;&#9;C449.9,208.3,450,208.4,450.1,208.4z"/>
	<path class="st13_content-creation-55" d="M389.7,216.5c-5.3,2.8-8.4,8.4-8,14.4c0.4,10.6,17.9,0.3,22.5-8.7s5.4,3.8,5.4,3.8"/>
	<path class="st7_content-creation-55" d="M405.4,212.8c-3.3-0.1-6.6,0.4-9.7,1.4c-2.1,0.5-4.1,1.3-6,2.4c1.1,0.7,2.3,1.4,3.5,1.9c2.2,0.9,4.5,2,5.6,4.1&#10;&#9;&#9;c0.3,0.5,0.5,1,0.7,1.6c1.1,3.5,0.1,7.7,1.6,11.2c1.5,3.7,4.4,6.6,8.5,6.9c4.9,0.3,7.2-4.4,8.2-8.5s2.3-9.7,0.8-13.9&#10;&#9;&#9;C416.7,214.7,410.1,213,405.4,212.8z"/>
	<path class="st14_content-creation-55" d="M429.7,195.3c-2.1,1.3-3.9,3.1-5.1,5.2c-0.3,0.5-0.6,1-0.8,1.6l-0.1,0.3l0,0c-0.4,0.9-0.6,1.8-0.9,2.8&#10;&#9;&#9;c0.4-0.7,1.1-1.2,1.9-1.5c0.9-0.4,2-0.5,3-0.3c1,0.4,1.9,0.9,2.8,1.5c1.3,0.8,2.5,1.6,3.8,2.4c6,3.8,13.9,4.2,18.5-1.4&#10;&#9;&#9;c0.1-0.2,0.1-0.4,0.1-0.7C453.5,201.6,442.9,187.7,429.7,195.3z"/>
	<path class="st14_content-creation-55" d="M405.4,212.8c-3.3-0.1-6.6,0.4-9.7,1.4c-2.1,0.5-4.1,1.3-6,2.4c1.1,0.7,2.3,1.4,3.5,1.9&#10;&#9;&#9;c2.2,0.9,4.5,2,5.6,4.1c0.3,0.5,0.5,1,0.7,1.6c1.1,3.5,0.1,7.7,1.6,11.2c1.5,3.7,4.4,6.6,8.5,6.9c4.9,0.3,7.2-4.4,8.2-8.5&#10;&#9;&#9;s2.3-9.7,0.8-13.9C416.7,214.7,410.1,213,405.4,212.8z"/>
	<path class="st13_content-creation-55" d="M411.9,229.3c-2.1-6.7-6.5-13-12.9-16h-0.2l-0.3,0.1l-1.2,0.3c7.5,2.8,12.2,10.1,14.1,17.7&#10;&#9;&#9;c2.5,9.6,1.6,20.1,1.6,29.9c0.1,0.3,0.4,0.4,0.6,0.4c0.2,0,0.3-0.2,0.4-0.4C414.1,250.8,415,239.5,411.9,229.3z"/>
</g>
</svg>