<svg version="1.1" id="Layer_1" xmlns="http://www.w3.org/2000/svg" xmlns:xlink="http://www.w3.org/1999/xlink" x="0px" y="0px" viewBox="0 0 500 500" style="width: 188px;" xml:space="preserve" data-imageid="ui-design-45" imageName="UI Design" class="illustrations_image">
<style type="text/css">
	.st0_ui-design-45{fill:#68E1FD;}
	.st1_ui-design-45{opacity:0.18;fill:#06577A;enable-background:new    ;}
	.st2_ui-design-45{opacity:0.52;fill:#FFFFFF;enable-background:new    ;}
	.st3_ui-design-45{fill:#8EA3FF;}
	.st4_ui-design-45{fill:url(#SVGID_1_);}
	.st5_ui-design-45{fill:url(#SVGID_00000027598441948878978160000013939050753503787916_);}
	.st6_ui-design-45{fill:#06577A;}
	.st7_ui-design-45{fill:#F2696A;}
	.st8_ui-design-45{fill:#8CCC00;}
	.st9_ui-design-45{fill:#FFFFFF;}
	.st10_ui-design-45{fill:#F2F2F2;}
	.st11_ui-design-45{fill:#3E2928;}
	.st12_ui-design-45{fill:#FFB5A9;}
	.st13_ui-design-45{fill:#007F68;}
</style>
<g id="Screen_1_ui-design-45">
	<path class="st0_ui-design-45 targetColor" d="M98.6,195.3v116c0,3.6,2.9,6.5,6.5,6.5c0,0,0,0,0,0c1.1,0,2.3-0.3,3.2-0.9L269.9,224c2-1.2,3.2-3.3,3.2-5.6&#10;&#9;&#9;V100.8c0-3.6-2.9-6.5-6.5-6.5c-1.1,0-2.3,0.3-3.2,0.9l-160.3,92.3C100.4,189.1,98.6,192.1,98.6,195.3z" style="fill: rgb(104, 225, 253);"/>
	<path class="st1_ui-design-45" d="M98.6,195.3v116c0,3.6,2.9,6.5,6.5,6.5c0,0,0,0,0,0c1.1,0,2.3-0.3,3.2-0.9L269.9,224c2-1.2,3.2-3.3,3.2-5.6&#10;&#9;&#9;V100.8c0-3.6-2.9-6.5-6.5-6.5c-1.1,0-2.3,0.3-3.2,0.9l-160.3,92.3C100.4,189.1,98.6,192.1,98.6,195.3z"/>
	<polygon class="st2_ui-design-45" points="134.4,191.1 175.3,167.4 175.3,257.5 134.4,282.4 &#9;"/>
</g>
<path id="Base_ui-design-45" class="st3_ui-design-45" d="M65.8,362.6l156.8,90.7c6.7,3.8,14.8,3.8,21.5,0l203.5-116.2c5.9-3.4,8-10.9,4.6-16.9&#10;&#9;c-1.1-1.9-2.7-3.5-4.6-4.6l-152.4-88.6c-5-2.9-11.1-2.9-16.1,0L65.8,349.2c-3.7,2.2-5,6.9-2.8,10.6C63.7,361,64.6,362,65.8,362.6&#10;&#9;L65.8,362.6z"/>
<g id="Shadow_ui-design-45">
	
		<linearGradient id="SVGID_1_-ui-design-45" gradientUnits="userSpaceOnUse" x1="209.9812" y1="-251.4487" x2="281.7312" y2="-323.1887" gradientTransform="matrix(1 0 0 1 2.000000e-02 641.73)">
		<stop offset="0" style="stop-color:#06577A;stop-opacity:0"/>
		<stop offset="1" style="stop-color:#3E2928"/>
	</linearGradient>
	<polyline class="st4_ui-design-45" points="244.9,346.7 182.6,380.5 209.3,398.8 273.7,363.9 &#9;"/>
	
		<linearGradient id="SVGID_00000155851895624964912500000001546980697112561831_-ui-design-45" gradientUnits="userSpaceOnUse" x1="331.82" y1="-275.83" x2="408.19" y2="-352.2" gradientTransform="matrix(1 0 0 1 2.000000e-02 641.73)">
		<stop offset="0" style="stop-color:#06577A;stop-opacity:0"/>
		<stop offset="1" style="stop-color:#3E2928"/>
	</linearGradient>
	<polyline style="fill:url(#SVGID_00000155851895624964912500000001546980697112561831_);" points="366.4,323 304,356.8 &#10;&#9;&#9;330.8,375.2 398.2,336.4 &#9;"/>
</g>
<g id="Plant_ui-design-45">
	<g id="Shadow-2_ui-design-45">
		<path class="st6_ui-design-45" d="M361.2,291.9c0,0-4.6,39.4,16.3,47.1s32-12.2,32.4-47.1"/>
	</g>
	<ellipse class="st7_ui-design-45" cx="385.5" cy="291.9" rx="24.3" ry="14.1"/>
	<path class="st8_ui-design-45" d="M391.7,260.7c0,0-9.5-13.8-5.4-23.3c0,0,3.4-6.1,8.3-7.1c0,0-0.5,13.1,4.4,11.4s0-13.7,0-13.7&#10;&#9;&#9;s5.1-6.9,10.7-6.7s0,12.2,3.9,10.2s0.2-12.2,4.6-13.4c4-0.9,8.1-1.6,12.2-2c0,0,4.1,11.9,0,13.6s-10.2,2.3-7.3,4.9&#10;&#9;&#9;s11.2-0.4,11.2-0.4s0.5,6.7-2.3,9.6s-19.3-3.5-16.4,2.2s13.9,2.9,13.9,2.9s-5.6,8-12.2,11.6S391.7,260.7,391.7,260.7z"/>
	<path class="st8_ui-design-45" d="M393.9,295.2c0,0-6.9-6.8-5.5-12.7c0,0,1.3-3.8,4-4.9c0,0,1.1,7.5,3.7,6s-1.5-7.8-1.5-7.8s2.2-4.5,5.4-4.9&#10;&#9;&#9;s1.3,6.9,3.3,5.4s-1.2-7,1.2-8.1c2.2-1,4.4-1.8,6.7-2.4c0,0,3.6,6.3,1.5,7.7s-5.6,2.4-3.6,3.6s6.3-1.4,6.3-1.4s1,3.8-0.3,5.7&#10;&#9;&#9;s-11.4,0-9.1,3s8.2,0.2,8.2,0.2c-1.4,3-3.3,5.7-5.7,7.9C405.1,295.2,393.9,295.2,393.9,295.2z"/>
	<path class="st8_ui-design-45" d="M368.6,280.5c0,0-16.8,0.6-22.5-7.9c0,0-3.3-6.2-1.6-10.8c0,0,10.8,7.4,12,2.4s-11.5-7.3-11.5-7.3&#10;&#9;&#9;s-3.2-8,0.1-12.7s10.3,6.6,10.7,2.2s-10.2-6.8-8.8-11.1c1.4-3.9,3-7.6,4.9-11.3c0,0,12.3,2.9,11.5,7.3s-3.6,9.8,0.2,8.8&#10;&#9;&#9;s5.7-9.6,5.7-9.6s5.9,3.2,6.9,7.1s-13.4,14.4-6.9,15.1s9.8-10.2,9.8-10.2s3.7,9,3.3,16.5C381.9,266.5,368.6,280.5,368.6,280.5z"/>
	<path class="st6_ui-design-45" d="M426.8,221.4c-1.8,1.5-3.6,3-5.4,4.6c0.2-1.9,0.4-3.8,0.7-5.7c0.2-1-1.4-1.4-1.6-0.4c-0.4,2.5-0.7,5.1-0.9,7.6&#10;&#9;&#9;c-4.8,4.1-9.4,8.4-13.7,13c-0.4-3.2-0.5-6.4-0.3-9.7c0-0.4-0.4-0.8-0.8-0.8c-0.4,0-0.8,0.4-0.8,0.8c-0.2,3.7,0,7.5,0.5,11.2&#10;&#9;&#9;c-2.8,3-5.4,6.1-7.8,9.4c-2.7-3.8-4.6-8.1-5.4-12.7c-0.2-1-1.7-0.6-1.6,0.4c0.9,4.9,2.9,9.4,5.8,13.4c0,0.1,0.1,0.1,0.2,0.1&#10;&#9;&#9;c-7,9.9-11.7,20.9-12.1,33.8c0,0.4,0.4,0.8,0.8,0.8c0.4,0,0.8-0.4,0.8-0.8c0.4-12.4,5-23,11.6-32.6c6.4,1.7,13,2.3,19.6,1.9&#10;&#9;&#9;c0.4,0,0.8-0.4,0.8-0.8c0-0.4-0.4-0.8-0.8-0.8l0,0c-6.3,0.4-12.5-0.2-18.6-1.7c3.4-4.5,7.1-8.8,11.1-12.8h0.1&#10;&#9;&#9;c3.7,0.3,7.4,0.6,11.1,0.8c2.3,0.3,4.7,0.1,6.9-0.8c0.9-0.5,0.1-1.8-0.8-1.4c-2.6,1.3-6.1,0.6-8.9,0.4c-2.3-0.1-4.8-0.3-7-0.5&#10;&#9;&#9;c5.6-5.6,11.7-10.8,17.5-15.7C428.7,221.9,427.5,220.8,426.8,221.4z"/>
	<path class="st6_ui-design-45" d="M377.7,252.2c0.1-0.4-0.1-0.9-0.5-1c-0.4-0.1-0.9,0.1-1,0.5c0,0,0,0.1,0,0.1l0,0c-1.7,5.8-5.3,11-10.2,14.6&#10;&#9;&#9;c-1.8-5-3.4-10-4.9-15.1c3.8-3.8,7-8.2,9.3-13.1c0.5-0.9-0.9-1.7-1.4-0.8c-2.1,4.5-5,8.6-8.4,12.1c-1.6-5.8-3.2-11.7-4.3-17.6&#10;&#9;&#9;c-0.2-1-1.7-0.6-1.6,0.4c1.7,8.1,3.8,16.1,6.2,24.1c-3-0.6-5.9-1.5-8.6-2.8c-0.9-0.4-1.7,0.9-0.8,1.4c3.2,1.5,6.5,2.6,10,3.2l0,0&#10;&#9;&#9;c1.7,5.2,3.5,10.4,5.5,15.5c-4.7-0.1-9.4-1.2-13.8-3c-0.9-0.4-1.7,1-0.8,1.4c4.8,2.1,9.9,3.2,15.2,3.3c2.5,6.3,5.3,12.6,8.4,18.7&#10;&#9;&#9;c0.5,0.9,1.8,0.1,1.4-0.8c-4-8.1-7.6-16.5-10.7-25l0,0C372,264.2,375.9,258.6,377.7,252.2z"/>
	<path class="st6_ui-design-45" d="M406.4,272.8l-4.4,7.3c-0.5-0.7-1-1.5-1.4-2.3c-0.4-0.9-1.8-0.1-1.4,0.8c0.5,1,1.1,2,1.8,2.9l0,0l-4.8,7.9&#10;&#9;&#9;c-0.5-0.5-0.9-1.2-1-1.9c-0.1-1-1.7-1-1.6,0c0.1,1.3,0.8,2.4,1.7,3.3l-5.9,9.9c-0.2,0.4,0,0.9,0.4,1c0.3,0.2,0.8,0,1-0.3l7.8-13.1&#10;&#9;&#9;c1.3,0,2.6-0.2,3.8-0.6c1-0.3,0.6-1.9-0.4-1.6c-0.8,0.3-1.6,0.4-2.5,0.5l7.9-13.2c0-0.4-0.3-0.8-0.7-0.8&#10;&#9;&#9;C406.7,272.6,406.5,272.6,406.4,272.8L406.4,272.8z"/>
</g>
<g id="Image_ui-design-45">
	<path class="st0_ui-design-45 targetColor" d="M197.2,119.9v91.1c0,2.8,2.3,5.1,5.1,5.1c0.9,0,1.8-0.2,2.6-0.7l126.9-73c1.6-0.9,2.5-2.6,2.5-4.4V45.7&#10;&#9;&#9;c0-2.8-2.3-5.1-5.1-5.1c-0.9,0-1.8,0.2-2.6,0.7l-125.8,72.5C198.6,115,197.2,117.4,197.2,119.9z" style="fill: rgb(104, 225, 253);"/>
	<polygon class="st9_ui-design-45" points="217.6,118.7 217.6,198.8 323.2,138.1 323.2,58 &#9;"/>
	<path class="st8_ui-design-45" d="M217.6,198.8l25.4-55.9c2.6-5.7,9.3-8.3,15.1-5.8l12.4,5.5l24.1-40.7c2.2-3.8,7.1-5,10.8-2.7c0,0,0,0,0,0&#10;&#9;&#9;c0.2,0.1,0.5,0.3,0.7,0.5l17,12.8v25.6L217.6,198.8z"/>
</g>
<g id="Chat_2_ui-design-45">
	<path class="st0_ui-design-45 targetColor" d="M43.1,315.6v32.2c0,1.7,1.3,3,2.9,3.1c0.6,0,1.2-0.1,1.7-0.5l78.6-45.9c1-0.5,1.6-1.5,1.6-2.6v-31.7&#10;&#9;&#9;c0-1.7-1.3-3-2.9-3.1c-0.6,0-1.2,0.1-1.7,0.4L44.7,313C43.7,313.5,43.1,314.5,43.1,315.6z" style="fill: rgb(104, 225, 253);"/>
	<path class="st10_ui-design-45" d="M54.5,320.8c2.2-1.5,4.6-2.8,7-4c5.1-2.8,10.2-5.5,15.3-8.3c11.1-6,22.2-11.9,33.4-17.8l7.8-4.1&#10;&#9;&#9;c1.8-1,0.2-3.7-1.6-2.7c-18.3,9.7-36.6,19.4-54.8,29.3c-3,1.4-5.9,3.1-8.7,4.9C51.4,319.2,52.9,322,54.5,320.8L54.5,320.8z"/>
	<path class="st10_ui-design-45" d="M54.5,334.2c2.2-1.5,4.6-2.8,7-3.9c5.1-2.8,10.2-5.5,15.3-8.3c11.1-6,22.2-11.9,33.4-17.8l7.8-4.1&#10;&#9;&#9;c1.8-1,0.2-3.7-1.6-2.7c-18.3,9.7-36.6,19.4-54.8,29.3c-3,1.4-5.9,3-8.7,4.9C51.4,332.7,52.9,335.5,54.5,334.2L54.5,334.2z"/>
</g>
<g id="Chat_Bubble_ui-design-45">
	<ellipse transform="matrix(0.5 -0.866 0.866 0.5 -176.7463 170.0587)" class="st7_ui-design-45" cx="58.9" cy="238.1" rx="31.7" ry="20.2"/>
	<path class="st7_ui-design-45" d="M75.3,244.7c0,0,9.5,11.9,7.2,12.7s-14-1.6-14-1.6"/>
	<path class="st10_ui-design-45" d="M44.7,242c4.5-3.3,10.2-5.3,15.1-7.7c4.6-2.2,9.2-4.5,13.8-6.7c1.8-0.9,0.2-3.6-1.6-2.7&#10;&#9;&#9;c-4.6,2.2-9.2,4.4-13.8,6.7c-4.9,2.4-10.7,4.5-15.1,7.7C41.6,240.4,43.2,243.2,44.7,242z"/>
	<path class="st10_ui-design-45" d="M45,254.1c4.6-3.4,10.3-5.8,15.4-8.6c4.7-2.5,9.3-5,14.1-7.5c1.8-0.9,0.2-3.7-1.6-2.7&#10;&#9;&#9;c-4.7,2.5-9.4,5-14.1,7.5c-5,2.7-10.8,5.1-15.4,8.6C41.8,252.6,43.4,255.3,45,254.1z"/>
</g>
<g id="Character_ui-design-45">
	<path class="st7_ui-design-45" d="M261.5,200.8c5.8,5,10.1,11.3,12.7,18.5c4.4,12.2-6.6,32.3-6.6,32.3L250.2,238"/>
	<path class="st6_ui-design-45" d="M263.4,362.8l4.8-2.6l-1.2-6.7c0,0-7,0.6-7.6,3.2"/>
	<path class="st0_ui-design-45 targetColor" d="M261.6,362.6c-1.1-0.6-2.1-1.2-3.2-1.8c-2.7-1.5-6.6-3-8.3-5.8c-0.7-1.1-0.6-2.6,0.2-3.6&#10;&#9;&#9;c2.5-3,7.8,1.9,10.6-1.4c0.5-0.6,0.8-11,0.8-11l10.4,2.8c0,0,1.8,20.7,1.6,22s-3.8,2.5-3.8,2.5c-1.1-0.2-2.1-0.6-3-1.2&#10;&#9;&#9;c-1.1-0.8-0.1-10.5-1.5-9.1s-2,6.7-2,6.7C262.9,362.8,262.2,362.8,261.6,362.6z" style="fill: rgb(104, 225, 253);"/>
	<path class="st6_ui-design-45" d="M243.4,372.8l4.8-2.6l-1.1-6.7c0,0-7,0.6-7.6,3.2"/>
	<path class="st0_ui-design-45 targetColor" d="M241.6,372.7c-1.1-0.6-2.1-1.2-3.2-1.8c-2.7-1.5-6.6-3-8.3-5.8c-0.7-1.1-0.6-2.6,0.2-3.6&#10;&#9;&#9;c2.5-3,7.8,1.9,10.6-1.4c0.5-0.6,0.8-11,0.8-11l10.4,2.8c0,0,1.8,20.7,1.6,22s-3.8,2.5-3.8,2.5c-1.1-0.2-2.1-0.6-3-1.2&#10;&#9;&#9;c-1.1-0.8-0.1-10.5-1.5-9.1s-2,6.7-2,6.7C242.9,372.8,242.3,372.8,241.6,372.7z" style="fill: rgb(104, 225, 253);"/>
	<path class="st11_ui-design-45" d="M277.4,305.5l3,41.1c0,0-4.9,6.8-21.3,3l0,0l-0.2-27.7"/>
	<path class="st11_ui-design-45" d="M258.4,313.6c0.4,3.5,0,42.6,0,42.6s-4.5,8.5-24.3,0l0.3-33.2"/>
	<path class="st11_ui-design-45" d="M278.9,319.1c-1.3,0.9-1.8-3.9-3.2-3c-5.1,3-10.6,5.4-16.2,7.1h-0.1c-0.5-0.3-1.2,0-1.5,0.5c0,0,0,0,0,0l0,0&#10;&#9;&#9;c-3.5,1-7,1.8-10.6,2.4c-4.6,0.7-8.4-2.7-13.2-2.9c0-18.1-0.1-69.9,7.6-80.7l22.8-7.7c0.1,1.9,11.1,14.6,10.8,30.1&#10;&#9;&#9;c-0.3,17.5,2,34,2.4,39.5C277.8,305.3,278.9,318.1,278.9,319.1z"/>
	<path class="st7_ui-design-45" d="M239.6,221.6l2.1,20.8c0,0,17.1,0.7,24.4-4.4v-17.7"/>
	<path class="st12_ui-design-45" d="M217.9,207.9l1.7,2.4c-0.9-1.9-1.7-3.9-2.5-5.9c-0.5-1.4,1.7-1.9,2.2-0.6l0.2,0.7c-0.2-0.7-0.4-1.5-0.6-2.2&#10;&#9;&#9;c-0.2-0.6,0.2-1.2,0.8-1.4c0.6-0.2,1.2,0.2,1.4,0.8c0.5,1.9,1.1,3.8,1.7,5.7c-0.4-1.6-0.6-3.3-0.8-5c-0.1-1.5,2.1-1.4,2.3,0&#10;&#9;&#9;c0.2,1.9,0.5,3.8,1,5.7c0-0.7,0.1-1.3,0.2-1.9c0-0.3,0.2-0.6,0.5-0.8c0-0.3,0.1-0.5,0.2-0.8c0.2-0.6,0.8-1,1.4-0.8&#10;&#9;&#9;c0.5,0.1,0.9,0.6,0.8,1.1l0.1,8.6c0.4,0.9,0.9,1.7,1.6,2.5c-1.1,0.8-2.2,1.6-3.2,2.5c-0.9,0.8-1.8,1.6-2.6,2.5&#10;&#9;&#9;c-0.7-0.9-1.4-1.8-2.1-2.8c-0.1-0.1-0.2-0.1-0.2-0.2c-2.1-3-4.2-6-6.3-8.9C215.1,207.8,217,206.7,217.9,207.9z"/>
	<path class="st7_ui-design-45" d="M250.4,202.6c0,0-8,2.2-11.3,7.4c-2,3.6-3.8,7.3-5.4,11.1l-6-9.2c0,0-7.2,2.2-10.1,5.8c0,0,8.6,18.7,16.1,20.3&#10;&#9;&#9;s15.4-11.1,15.4-11.1s1.6,5.3,1.3-0.3"/>
	<path class="st13_ui-design-45" d="M245.3,222.6c2.3-1.9,4.1-4.4,5.1-7.3c1-3.3-0.2-6.2-1.4-9.2c-1.2-3-1.9-6.2-2.1-9.5&#10;&#9;&#9;c-0.1-3.2,0.3-6.4,0.5-9.6c0-0.1,0-0.3,0-0.4c1.1-3.6,3.3-6.7,7.6-7c11.3-1,11.9,11.5,11.8,16.6s-0.6,8.5,3.2,10.6&#10;&#9;&#9;s6.4,7.7,2.9,12.2s-0.4,2.9,2,6.9s1.8,9-3.2,10.8s-27.5-1.6-29.6-3.7c-0.7-0.8-1.1-1.9-1.1-3.1C241.5,227,243,224.4,245.3,222.6z"/>
</g>
</svg>