<svg version="1.1" id="Layer_1" xmlns="http://www.w3.org/2000/svg" xmlns:xlink="http://www.w3.org/1999/xlink" x="0px" y="0px" viewBox="0 0 500 500" style="width: 188px;" xml:space="preserve" data-imageid="social-media-carousel-90" imageName="Social Media Carousel" class="illustrations_image">
<style type="text/css">
	.st0_social-media-carousel-90{fill:#FF9F9F;}
	.st1_social-media-carousel-90{fill:#CBD6FC;}
	.st2_social-media-carousel-90{fill:#94A7DD;}
	.st3_social-media-carousel-90{fill:#EE6300;}
	.st4_social-media-carousel-90{fill:#81C418;}
	.st5_social-media-carousel-90{fill:#6D320B;}
	.st6_social-media-carousel-90{fill:#FFC285;}
	.st7_social-media-carousel-90{fill:#FFC931;}
	.st8_social-media-carousel-90{fill:#68E1FD;}
	.st9_social-media-carousel-90{opacity:0.43;}
	.st10_social-media-carousel-90{fill:#21366F;}
</style>
<g id="background_social-media-carousel-90">
	<path class="st0_social-media-carousel-90" d="M239.9,402.9L20.1,273c-7-3.9-13-10.4-6.2-14.6l220.6-127.2c3.3-2,8.3-3.4,11.7-1.4l230.8,133.9&#10;&#9;&#9;c7,4.1,8.2,15.4,1.2,19.5L268.9,402.7C259.9,407.9,248.9,408,239.9,402.9z"/>
	<ellipse class="st1_social-media-carousel-90" cx="250.2" cy="275.1" rx="143.1" ry="68"/>
	<ellipse class="st2_social-media-carousel-90" cx="246" cy="304.1" rx="40.7" ry="12.1"/>
</g>
<g id="character_social-media-carousel-90">
	<path class="st3_social-media-carousel-90" d="M259.2,287c-0.1-3.6-0.1-7.2,0-7.3s-5.9,0.6-5.9,0.6s-0.1,1.2-0.2,2.8c-0.3,0.3-0.4,0.7-0.4,1.1&#10;&#9;&#9;c-0.2,3.9-0.6,7.9-0.9,11.8c-0.4,4-0.5,7.9-0.3,11.9c0.3,2.9,2.4,6.1,5.7,4.2c1.9-1.1,2.9-3.5,3.1-5.6&#10;&#9;&#9;C260.8,300.1,259.9,293.3,259.2,287z"/>
	<path class="st3_social-media-carousel-90" d="M233.2,282.3c0,0,1.4,7.2-1.7,10.4s-8.5,6.8-10.4,8.9s1.2,3,4.9,2.4s6.4-3.9,10-3.5s4.9-1.4,5-4.6&#10;&#9;&#9;s-0.5-8.5,0.2-14.8"/>
	<path class="st4_social-media-carousel-90" d="M226.8,202.5c0,0-1.5,79.5,0.7,80.8s15.8,2.8,18.4,1l-2.7-80.7L226.8,202.5z"/>
	<path class="st4_social-media-carousel-90" d="M236,203.7c0,0,12,80.6,14.4,81.6s13.5,0.1,16.3-2l-13.6-80.8L236,203.7z"/>
	<path class="st3_social-media-carousel-90" d="M275.7,188.5c1.2,0.6,2.5,1.2,3.8,1.7c2.3,0.1,4.6,0,7-0.2c1-0.2,1.9-0.3,2.9-0.2c0.7,0,1.2,0.6,1.2,1.3&#10;&#9;&#9;c0,0.1,0,0.2,0,0.3c-0.3,0.9-1.1,1.5-2,1.7c-0.8,0.2-1.5,0.4-2.3,0.5c2.2,1.1,4.5,1.9,6.8,2.7c1.5,0.5,0.9,2.9-0.6,2.4l-1.6-0.5&#10;&#9;&#9;c0.9,0.5,1.7,1.1,2.6,1.7c1,0.8,0.5,2.7-0.9,2.2c-1.9-0.6-3.8-1.4-5.6-2.4c1.1,0.8,2.3,1.5,3.4,2.3c1.3,0.8,0.1,2.9-1.2,2.1&#10;&#9;&#9;c-1.6-1-3.2-2.1-4.8-3.2c0.4,0.7,0.7,1.4,1.1,2c0.7,1.4-1.4,2.6-2.1,1.2s-1.4-2.6-2.2-3.9l-0.2-0.1c-3.9-1.8-7.7-3.7-11.5-5.7&#10;&#9;&#9;c-1.4-0.7-0.2-2.8,1.2-2.1l1.8,0.9c0.1-0.4,0.3-0.7,0.6-0.9c-0.4-0.6-0.2-1.3,0.3-1.7c0.2-0.1,0.4-0.2,0.6-0.2&#10;&#9;&#9;c-0.3-0.6,0-1.4,0.6-1.7C275,188.4,275.4,188.4,275.7,188.5z"/>
	<path class="st5_social-media-carousel-90" d="M285.7,194.8c-1.4,1.4-3,2.9-5.2,2.5c-0.4-0.1-0.3-0.8,0.1-0.7c1.9,0.4,3.3-1,4.5-2.2&#10;&#9;&#9;C285.4,194,286,194.5,285.7,194.8z"/>
	<path class="st5_social-media-carousel-90" d="M287.1,196.3c1.8,0.7,3.7,1.3,5.6,1.9c0.3,0.1,0.2,0.6-0.1,0.5c-1.9-0.5-3.9-1.2-5.7-1.9&#10;&#9;&#9;C286.6,196.6,286.8,196.1,287.1,196.3z"/>
	<path class="st5_social-media-carousel-90" d="M286,198.7c2.1,1.3,4.3,2.2,6.7,2.9c0.3,0.1,0.2,0.6-0.1,0.5c-2.4-0.7-4.7-1.7-6.8-3&#10;&#9;&#9;C285.5,199,285.7,198.5,286,198.7z"/>
	<path class="st5_social-media-carousel-90" d="M283.5,200c1.6,1.2,3.3,2.3,5.1,3.1c0.3,0.1,0.1,0.6-0.2,0.5c-1.8-0.9-3.6-2-5.2-3.2&#10;&#9;&#9;C282.9,200.2,283.2,199.8,283.5,200z"/>
	<path class="st6_social-media-carousel-90" d="M285.4,174.8c0.9-2.3,1.6-4.6,2.4-7c1.2-3.3,2.1-6.8,2.6-10.3c-0.6-1.6-2.8-2.9-4.4-3.3c-2-0.5-4,0.4-5.9,0.3&#10;&#9;&#9;c-2.6-0.1-4.6-1.1-7-1.8c-2.5-0.6-5.1-0.5-7.5,0.4c-4.6,1.4-9.4,0.9-13.3-2.1c-2.2-1.7-3.9-3.2-6.7-3.9c-4.3-1.1-8.7-0.3-11.5,3.3&#10;&#9;&#9;c-2.6,3.2-3.1,7.5-0.4,10.9c1.4,1.5,3.3,2.6,5.4,3c1.9,0.5,3.7,1.6,5.6,2h0.2c1.8,0.3,3.6,0.2,5.5,0.7c2.3,0.7,4.4,1.8,6.6,2.6&#10;&#9;&#9;c3,1.1,5.9,0.6,8.9,0.3c3.9-0.5,6,0.7,9,2.9c0.2,0.1,0.4,0.3,0.5,0.4c2.1,1.3,4.6,1.9,7.1,1.9C283.5,175,284.5,175,285.4,174.8z"/>
	<path class="st3_social-media-carousel-90" d="M212.8,146.5c-0.7-1.2-1.4-2.4-2-3.7c-0.2-2.3-0.3-4.6-0.3-6.9c0.2-1,0.2-2,0-2.9c0-0.7-0.6-1.2-1.3-1.1&#10;&#9;&#9;c-0.1,0-0.2,0-0.3,0.1c-0.9,0.4-1.5,1.2-1.6,2.1c-0.1,0.8-0.3,1.5-0.4,2.3c-1.2-2.1-2.2-4.3-3.1-6.6c-0.6-1.4-2.9-0.7-2.3,0.8&#10;&#9;&#9;c0.2,0.5,0.4,1,0.6,1.6c-0.6-0.8-1.2-1.7-1.8-2.4c-0.8-0.9-2.8-0.3-2.2,1.1c0.8,1.9,1.7,3.7,2.8,5.4c-0.9-1.1-1.7-2.1-2.5-3.3&#10;&#9;&#9;c-0.9-1.3-2.9,0.1-2,1.3c1.1,1.6,2.3,3.1,3.5,4.6c-0.7-0.3-1.4-0.6-2.1-0.9c-1.4-0.6-2.6,1.6-1.1,2.2s2.7,1.2,4.1,1.9&#10;&#9;&#9;c0,0.1,0,0.1,0.1,0.1c2.1,3.8,4.2,7.5,6.5,11.1c0.8,1.3,2.8,0,2-1.3c-0.4-0.6-0.7-1.1-1-1.7c0.4-0.1,0.7-0.3,0.9-0.7&#10;&#9;&#9;c0.6,0.3,1.3,0.2,1.7-0.4c0.1-0.2,0.2-0.4,0.2-0.6c0.6,0.3,1.4,0.1,1.7-0.5C213.1,147.4,213.1,146.9,212.8,146.5z"/>
	<path class="st5_social-media-carousel-90" d="M205.9,137c-1.4,1.5-2.7,3.2-2.1,5.3c0.1,0.4,0.8,0.3,0.7-0.1c-0.5-1.9,0.7-3.4,1.9-4.7&#10;&#9;&#9;C206.6,137.1,206.2,136.6,205.9,137z"/>
	<path class="st5_social-media-carousel-90" d="M204.3,135.6c-0.9-1.8-1.6-3.6-2.2-5.5c-0.1-0.3-0.6-0.2-0.5,0.1c0.7,1.9,1.4,3.8,2.3,5.6&#10;&#9;&#9;C204,136.1,204.4,135.9,204.3,135.6z"/>
	<path class="st5_social-media-carousel-90" d="M202,136.9c-1.4-2-2.5-4.2-3.3-6.5c-0.1-0.3-0.6-0.2-0.5,0.1c0.8,2.3,2,4.6,3.4,6.6&#10;&#9;&#9;C201.7,137.4,202.2,137.2,202,136.9z"/>
	<path class="st5_social-media-carousel-90" d="M200.9,139.5c-1.3-1.5-2.5-3.1-3.5-4.9c-0.2-0.3-0.6,0-0.5,0.2c1,1.8,2.2,3.5,3.6,5&#10;&#9;&#9;C200.7,140.1,201.1,139.8,200.9,139.5z"/>
	<path class="st7_social-media-carousel-90" d="M245.8,162.1l-8.3-1.6c-7-0.3-13.6-3.2-18.6-8.3c-2.9-3-5.5-6.3-7.6-9.9c-2.5,1.5-4.8,3.4-6.6,5.6&#10;&#9;&#9;c-1,1.1-1.9,2.3-2.7,3.6c3.6,7.5,12.7,19.4,23.7,23.6c0,0,0.8,17.8,1.1,27.4c0,0,10.8,5.5,26.3,0&#10;&#9;&#9;C253.1,202.5,248.6,166.2,245.8,162.1z"/>
	<path class="st7_social-media-carousel-90" d="M241.5,161.8c0,0,16,12.1,40.9,27.4c0,0-1.5,8.3-5,11.4c0,0-27.2-9.5-34.2-21.8"/>
	<path class="st3_social-media-carousel-90" d="M234.3,154.3c0,0-2.9,8.5,2.5,12.3s12.7-4.2,10.7-11.7S237.7,147,234.3,154.3z"/>
	<path class="st6_social-media-carousel-90" d="M248.2,165.4c-0.9,0.2-1.8-0.1-2.5-0.7c-0.8-0.8-0.7-2-0.7-3c0.1-1.4-0.6-2.7-1.8-3.5c-1.4-1-3.2-1.2-4.5-2.4&#10;&#9;&#9;c-0.1-0.1-0.3-0.3-0.4-0.4c0.2,0.2,0.4,0.3,0.6,0.4c2.1,1.3,5.2,1.6,6.2,2.1s-0.6,4.4,1.2,6s5.9-8.9,3.5-11.8s-10.3-6.3-13.7-1.5&#10;&#9;&#9;c0.1,0.4,0.2,0.8,0.3,1.3c0.1,1.3,0.6,2.5,1.4,3.6c1.3,1.6,3.1,1.9,4.8,2.9c1.1,0.5,1.8,1.6,1.9,2.9c-0.1,1,0,2,0.3,3&#10;&#9;&#9;c0.7,1.3,2.1,2,3.6,1.7C248.7,165.8,248.5,165.4,248.2,165.4z"/>
	<path class="st5_social-media-carousel-90" d="M250.7,284.6c-5.2-24.2-9.8-48.5-13.8-72.9c-0.1-0.8-1.3-0.4-1.2,0.3c4,24.4,8.6,48.8,13.8,73&#10;&#9;&#9;C249.7,285.7,250.8,285.4,250.7,284.6z"/>
</g>
<g id="screen_social-media-carousel-90">
	<path class="st8_social-media-carousel-90 targetColor" d="M140.4,198.9v54.3c0,0,29.4,15.8,75.7,11.6v-50.1C216.1,214.7,172,221.9,140.4,198.9z" style="fill: rgb(104, 225, 253);"/>
	<path class="st8_social-media-carousel-90 targetColor" d="M331.9,209.7v49c0,0,46.5-12.8,58.1-50.7v-49.9C390,158.1,378.4,193.5,331.9,209.7z" style="fill: rgb(104, 225, 253);"/>
	<path class="st8_social-media-carousel-90 targetColor" d="M110.2,142v52.4c0,0,4-33.7,55-51.7V96.1C165.1,96.1,121.4,104.6,110.2,142z" style="fill: rgb(104, 225, 253);"/>
	<path class="st8_social-media-carousel-90 targetColor" d="M355.7,96.9v52.6c0,0-25-12.1-73.8-14.7V81.5C281.9,81.5,320.8,81.2,355.7,96.9z" style="fill: rgb(104, 225, 253);"/>
	<path class="st8_social-media-carousel-90 targetColor" d="M274.9,111.4v-3.6c-8-0.7-16.3-1-24.7-1c-30,0-57.9,4.4-81,12v3.7c23-7.6,50.9-12,81-12&#10;&#9;&#9;C258.7,110.4,266.9,110.8,274.9,111.4z" style="fill: rgb(104, 225, 253);"/>
	<path class="st8_social-media-carousel-90 targetColor" d="M121,237.3c-7.7-8.2-12-17.2-12-26.7c0-20.6,20.3-39.1,52-51.2v-3.7c-33.8,12.8-55.6,32.6-55.6,54.9&#10;&#9;&#9;c0,11.3,5.7,22,15.7,31.5L121,237.3z" style="fill: rgb(104, 225, 253);"/>
	<path class="st8_social-media-carousel-90 targetColor" d="M129.3,265.5v4.2c16.4,11.9,40.1,21.3,68.1,26.6v-3.6C169,287.3,145.1,277.7,129.3,265.5z" style="fill: rgb(104, 225, 253);"/>
	<path class="st8_social-media-carousel-90 targetColor" d="M250.2,233.4c-14.9,0-29.8-1.1-44.5-3.4v3.6c14.7,2.3,29.6,3.4,44.5,3.4c42.8,0,81.3-9,107.9-23.2v-3.9&#10;&#9;&#9;C332.2,224.3,293.5,233.4,250.2,233.4z" style="fill: rgb(104, 225, 253);"/>
	<path class="st8_social-media-carousel-90 targetColor" d="M275.2,290.3v3.7c32.7-2.7,61.6-10.8,82.9-22.2v-3.9C337.3,279.4,308.2,287.5,275.2,290.3z" style="fill: rgb(104, 225, 253);"/>
	<path class="st8_social-media-carousel-90 targetColor" d="M366.5,90.4v4.1c15.8,10.7,25.1,23.6,25.1,37.6s-9.3,26.9-25.1,37.6v4.1c18-11.6,28.8-26.1,28.8-41.7&#10;&#9;&#9;S384.5,102,366.5,90.4z" style="fill: rgb(104, 225, 253);"/>
	<g class="st9_social-media-carousel-90">
		<path class="st10_social-media-carousel-90" d="M274.9,111.4v-3.6c-8-0.7-16.3-1-24.7-1c-30,0-57.9,4.4-81,12v3.7c23-7.6,50.9-12,81-12&#10;&#9;&#9;&#9;C258.7,110.4,266.9,110.8,274.9,111.4z"/>
		<path class="st10_social-media-carousel-90" d="M121,237.3c-7.7-8.2-12-17.2-12-26.7c0-20.6,20.3-39.1,52-51.2v-3.7c-33.8,12.8-55.6,32.6-55.6,54.9&#10;&#9;&#9;&#9;c0,11.3,5.7,22,15.7,31.5L121,237.3z"/>
		<path class="st10_social-media-carousel-90" d="M129.3,265.5v4.2c16.4,11.9,40.1,21.3,68.1,26.6v-3.6C169,287.3,145.1,277.7,129.3,265.5z"/>
		<path class="st10_social-media-carousel-90" d="M250.2,233.4c-14.9,0-29.8-1.1-44.5-3.4v3.6c14.7,2.3,29.6,3.4,44.5,3.4c42.8,0,81.3-9,107.9-23.2v-3.9&#10;&#9;&#9;&#9;C332.2,224.3,293.5,233.4,250.2,233.4z"/>
		<path class="st10_social-media-carousel-90" d="M275.2,290.3v3.7c32.7-2.7,61.6-10.8,82.9-22.2v-3.9C337.3,279.4,308.2,287.5,275.2,290.3z"/>
		<path class="st10_social-media-carousel-90" d="M366.5,90.4v4.1c15.8,10.7,25.1,23.6,25.1,37.6s-9.3,26.9-25.1,37.6v4.1c18-11.6,28.8-26.1,28.8-41.7&#10;&#9;&#9;&#9;S384.5,102,366.5,90.4z"/>
	</g>
</g>
</svg>